<svg width="16" height="16" viewBox="0 0 16 16" fill="none" xmlns="http://www.w3.org/2000/svg">
<path fill-rule="evenodd" clip-rule="evenodd" d="M7.25 10L7.25 4.81066L6.03033 6.03033C5.73744 6.32322 5.26256 6.32322 4.96967 6.03033C4.67678 5.73744 4.67678 5.26256 4.96967 4.96967L7.46967 2.46967C7.54158 2.39776 7.62445 2.34351 7.71291 2.30691C7.80134 2.27024 7.89831 2.25 8 2.25C8.1025 2.25 8.2002 2.27056 8.2892 2.30779C8.37281 2.34268 8.45139 2.39338 8.52037 2.45989L8.5315 2.47084L11.0303 4.96967C11.3232 5.26256 11.3232 5.73744 11.0303 6.03033C10.7374 6.32322 10.2626 6.32322 9.96967 6.03033L8.75 4.81066L8.75 10C8.75 10.4142 8.41421 10.75 8 10.75C7.58579 10.75 7.25 10.4142 7.25 10ZM4.75 12.25C4.33579 12.25 4 12.5858 4 13C4 13.4142 4.33579 13.75 4.75 13.75H11.25C11.6642 13.75 12 13.4142 12 13C12 12.5858 11.6642 12.25 11.25 12.25H4.75Z" fill="currentColor"/>
</svg>
