<svg width="16" height="16" viewBox="0 0 16 16" fill="none" xmlns="http://www.w3.org/2000/svg">
<path d="M15.0303 8.53033L12.5303 11.0303C12.2374 11.3232 11.7626 11.3232 11.4697 11.0303C11.1768 10.7374 11.1768 10.2626 11.4697 9.96967L12.6893 8.75L5 8.75C4.58579 8.75 4.25 8.41421 4.25 8C4.25 7.58579 4.58579 7.25 5 7.25L12.6893 7.25L11.4697 6.03033C11.1768 5.73744 11.1768 5.26256 11.4697 4.96967C11.7626 4.67678 12.2374 4.67678 12.5303 4.96967L15.0303 7.46967C15.3232 7.76256 15.3232 8.23744 15.0303 8.53033ZM8.75 5C9.16421 5 9.5 4.66421 9.5 4.25L9.5 4C9.5 2.34315 8.15685 1 6.5 1L4 1C2.34315 0.999999 1 2.34315 1 4L1 12C0.999999 13.6569 2.34314 15 4 15L6.5 15C8.15685 15 9.5 13.6569 9.5 12L9.5 11.75C9.5 11.3358 9.16421 11 8.75 11C8.33579 11 8 11.3358 8 11.75L8 12C8 12.8284 7.32843 13.5 6.5 13.5L4 13.5C3.17157 13.5 2.5 12.8284 2.5 12L2.5 4C2.5 3.17157 3.17157 2.5 4 2.5L6.5 2.5C7.32843 2.5 8 3.17157 8 4L8 4.25C8 4.66421 8.33579 5 8.75 5Z" fill="currentColor"/>
</svg>
