<svg width="16" height="16" viewBox="0 0 16 16" fill="none" xmlns="http://www.w3.org/2000/svg">
<path d="M8.00102 3C5.23903 3 3 5.23903 3 8.00102C3 10.763 5.23903 13.002 8.00102 13.002C9.21685 13.002 10.3296 12.5691 11.1964 11.8482L12.1555 13.0015C11.0293 13.9381 9.58003 14.502 8.00102 14.502C4.41061 14.502 1.5 11.5914 1.5 8.00102C1.5 4.41061 4.41061 1.5 8.00102 1.5C11.5914 1.5 14.502 4.41061 14.502 8.00102L14.5019 8.70883C14.5019 10.0515 13.4135 11.1399 12.0709 11.1399C11.298 11.1399 10.6094 10.7792 10.1641 10.2171C9.60593 10.762 8.8427 11.0977 8.00105 11.0977C6.29079 11.0977 4.90435 9.71128 4.90435 8.00102C4.90435 6.29076 6.29079 4.90432 8.00105 4.90432C9.56111 4.90432 10.8517 6.05793 11.0664 7.55863H11.1398V8.70883C11.1398 9.22304 11.5567 9.63989 12.0709 9.63989C12.5851 9.63989 13.0019 9.22304 13.0019 8.70883V8.00102C13.0019 5.23903 10.763 3 8.00102 3ZM8.00105 9.59772C8.88288 9.59772 9.59775 8.88285 9.59775 8.00102C9.59775 7.11918 8.88288 6.40432 8.00105 6.40432C7.11922 6.40432 6.40435 7.11918 6.40435 8.00102C6.40435 8.88285 7.11922 9.59772 8.00105 9.59772Z" fill="currentColor"/>
</svg>
