<svg width="16" height="16" viewBox="0 0 16 16" fill="none" xmlns="http://www.w3.org/2000/svg">
<path d="M7.34531 2.63381C7.43525 2.67994 7.52439 2.72822 7.61265 2.77865L8 2.99999L8.38735 2.77865C8.47561 2.72822 8.56475 2.67994 8.65469 2.63381C10.5465 1.66367 12.7942 1.64708 14.7065 2.60325C15.1928 2.8464 15.5 3.34343 15.5 3.88713V12.8254C15.5 13.4741 14.9741 14 14.3254 14H14.2845C14.0983 14 13.9157 13.9494 13.7561 13.8536C12.3509 13.0105 10.6124 12.9438 9.14676 13.6766L8.94721 13.7764C8.88283 13.8086 8.81701 13.8374 8.75 13.8628C8.51091 13.9533 8.25683 14 8 14H7.88327C7.66535 14 7.45002 13.9561 7.25 13.8714C7.21867 13.8581 7.18772 13.8439 7.15719 13.8286L6.9242 13.7121C5.41433 12.9572 3.62342 13.0259 2.1759 13.8945C2.0608 13.9635 1.92909 14 1.79486 14H1.67464C1.02591 14 0.5 13.4741 0.5 12.8254V3.88713C0.5 3.34343 0.807183 2.8464 1.29348 2.60325C3.20582 1.64708 5.45355 1.66367 7.34531 2.63381ZM8.75 12.2061C10.4315 11.4639 12.35 11.4964 14 12.2839V3.92721C12.4529 3.16838 10.6292 3.22523 9.13156 4.08102L8.75 4.29905V12.2061ZM7.25 12.2105V4.29905L6.86844 4.08101C5.37082 3.22523 3.54709 3.16838 2 3.92721V12.2919C3.65407 11.5218 5.56451 11.4885 7.25 12.2105Z" fill="currentColor"/>
</svg>
