<svg width="16" height="16" viewBox="0 0 16 16" fill="none" xmlns="http://www.w3.org/2000/svg">
<path d="M13.7757 11.0139C13.9905 11.1325 14.2373 11.2 14.5 11.2C15.3284 11.2 16 10.5284 16 9.70001C16 8.87159 15.3284 8.20001 14.5 8.20001C13.6716 8.20001 13 8.87159 13 9.70001C13 9.70934 13.0001 9.71865 13.0003 9.72794L12.0858 10.222C11.8573 10.0812 11.5881 10 11.3 10C10.4716 10 9.80005 10.6716 9.80005 11.5C9.80005 12.3284 10.4716 13 11.3 13C11.5181 13 11.7252 12.9535 11.9121 12.8699L13.0119 13.3898C13.1052 14.1286 13.7358 14.7 14.5 14.7C15.3284 14.7 16 14.0284 16 13.2C16 12.3716 15.3284 11.7 14.5 11.7C14.1591 11.7 13.8448 11.8137 13.5929 12.0053L12.7947 11.6279C12.7971 11.5993 12.7987 11.5704 12.7995 11.5413L13.7757 11.0139Z" fill="black"/>
<path fill-rule="evenodd" clip-rule="evenodd" d="M4 3.5H12C12.8284 3.5 13.5 4.17157 13.5 5V5.5L2.5 5.5V5C2.5 4.17157 3.17157 3.5 4 3.5ZM2.5 10.5V11C2.5 11.8284 3.17157 12.5 4 12.5H7.25V10.5H2.5ZM2.5 9H7.25V7H2.5V9ZM8.75 14H4C2.34315 14 1 12.6569 1 11V5C1 3.34315 2.34315 2 4 2H12C13.6569 2 15 3.34315 15 5V7L8.75 7V14Z" fill="black"/>
</svg>
