<svg width="16" height="16" viewBox="0 0 16 16" fill="none" xmlns="http://www.w3.org/2000/svg">
<path d="M4.5 3C3.67157 3 3 3.67157 3 4.5V11.5C3 12.3284 3.67157 13 4.5 13H11.5C12.3284 13 13 12.3284 13 11.5V4.5C13 3.67157 12.3284 3 11.5 3H4.5ZM1.5 4.5C1.5 2.84315 2.84315 1.5 4.5 1.5H11.5C13.1569 1.5 14.5 2.84315 14.5 4.5V11.5C14.5 13.1569 13.1569 14.5 11.5 14.5H4.5C2.84315 14.5 1.5 13.1569 1.5 11.5V4.5ZM8.75 5.25C8.75 4.83579 8.41421 4.5 8 4.5C7.58579 4.5 7.25 4.83579 7.25 5.25L7.25 10.75C7.25 11.1642 7.58579 11.5 8 11.5C8.41421 11.5 8.75 11.1642 8.75 10.75L8.75 5.25ZM11.5 7.25C11.5 6.83579 11.1642 6.5 10.75 6.5C10.3358 6.5 10 6.83579 10 7.25L10 10.75C10 11.1642 10.3358 11.5 10.75 11.5C11.1642 11.5 11.5 11.1642 11.5 10.75L11.5 7.25ZM6 9.25C6 8.83579 5.66421 8.5 5.25 8.5C4.83579 8.5 4.5 8.83579 4.5 9.25V10.75C4.5 11.1642 4.83579 11.5 5.25 11.5C5.66421 11.5 6 11.1642 6 10.75L6 9.25Z" fill="currentColor"/>
</svg>
