<svg width="16" height="16" viewBox="0 0 16 16" fill="none" xmlns="http://www.w3.org/2000/svg">
<g clip-path="url(#clip0_3360_120797)">
<path d="M3.48109 3H4.08627C4.20447 3.96586 5.21496 4.56054 6.11104 4.21221L6.44023 4.80103C5.64291 5.39565 5.64291 6.60437 6.44023 7.199L6.11104 7.78781C5.21496 7.43949 4.20449 8.03416 4.08627 9H3.48109C3.36289 8.0341 2.35234 7.4394 1.45623 7.7878L1.12704 7.199C1.92437 6.60437 1.92437 5.39565 1.12704 4.80103L1.45623 4.21222C2.35234 4.56062 3.36291 3.96592 3.48109 3ZM2.99255 2C2.71641 2 2.49255 2.22386 2.49255 2.5V2.8104C2.49255 3.19842 2.06978 3.43857 1.7365 3.23986L1.51635 3.1086C1.27448 2.96439 0.96129 3.04827 0.823874 3.29407L0.0209272 4.73028C-0.11118 4.96658 -0.0312281 5.26509 0.201297 5.40373L0.481092 5.57055C0.806352 5.76448 0.806352 6.23554 0.481092 6.42947L0.201297 6.59629C-0.0312283 6.73493 -0.11118 7.03345 0.0209269 7.26975L0.823874 8.70596C0.96129 8.95175 1.27448 9.03563 1.51635 8.89143L1.7365 8.76017C2.06978 8.56146 2.49255 8.8016 2.49255 9.18963V9.5C2.49255 9.77614 2.71641 10 2.99255 10H4.5748C4.85094 10 5.0748 9.77614 5.0748 9.5V9.18968C5.0748 8.80165 5.49757 8.5615 5.83085 8.76022L6.05092 8.89142C6.29279 9.03563 6.60598 8.95175 6.7434 8.70596L7.54635 7.26975C7.67845 7.03345 7.5985 6.73493 7.36598 6.59629L7.08618 6.42947C6.76092 6.23554 6.76092 5.76448 7.08618 5.57055L7.36598 5.40373C7.5985 5.2651 7.67845 4.96658 7.54635 4.73028L6.7434 3.29407C6.60598 3.04828 6.29279 2.96439 6.05092 3.1086L5.83085 3.23981C5.49757 3.43852 5.0748 3.19838 5.0748 2.81035V2.5C5.0748 2.22386 4.85094 2 4.5748 2H2.99255ZM4.80002 6C4.80002 6.55228 4.3523 7 3.80002 7C3.24773 7 2.80002 6.55228 2.80002 6C2.80002 5.44772 3.24773 5 3.80002 5C4.3523 5 4.80002 5.44772 4.80002 6ZM9.67446 7.0354L10.1381 6.6464C10.8494 7.31032 12.0058 7.11634 12.4683 6.27351L13.099 6.51297C12.8704 7.48099 13.6474 8.40692 14.6404 8.34992L14.7667 9.01258C13.8563 9.32174 13.4645 10.4268 13.9948 11.2427L13.5312 11.6317C12.8198 10.9677 11.6634 11.1617 11.2009 12.0046L10.5702 11.7652C10.7988 10.7972 10.0218 9.87122 9.02884 9.92822L8.90253 9.26558C9.81294 8.95646 10.2048 7.85131 9.67446 7.0354ZM8.65743 6.58339C8.4459 6.76089 8.4183 7.07626 8.5958 7.2878L8.79532 7.52558C9.04474 7.82282 8.87524 8.27854 8.4922 8.34055L8.23919 8.3815C7.96122 8.42651 7.77521 8.69208 7.82794 8.9687L8.13602 10.585C8.18671 10.851 8.43985 11.0282 8.70708 10.985L9.02865 10.9329C9.40247 10.8724 9.70526 11.2333 9.58075 11.5909L9.47365 11.8985C9.38464 12.1542 9.51527 12.4343 9.76836 12.5304L11.3066 13.1144C11.5699 13.2144 11.8637 13.0773 11.9563 12.8114L12.0406 12.5694C12.1682 12.2029 12.6464 12.1151 12.8958 12.4124L13.0953 12.6501C13.2728 12.8617 13.5882 12.8892 13.7997 12.7117L15.0118 11.6947C15.2233 11.5172 15.2509 11.2018 15.0734 10.9903L14.874 10.7526C14.6245 10.4553 14.794 9.99959 15.1771 9.93759L15.43 9.89664C15.708 9.85164 15.894 9.58607 15.8413 9.30945L15.5332 7.69312C15.4825 7.42719 15.2294 7.24991 14.9621 7.29317L14.6405 7.34522C14.2667 7.40574 13.9639 7.04488 14.0884 6.68725L14.1955 6.37961C14.2846 6.12395 14.1539 5.84388 13.9008 5.74778L12.3626 5.1637C12.0993 5.06374 11.8055 5.2008 11.7129 5.46674L11.6286 5.70871C11.5011 6.07516 11.0228 6.16295 10.7734 5.86571L10.5739 5.62797C10.3964 5.41643 10.081 5.38884 9.8695 5.56634L8.65743 6.58339ZM12.6132 8.48575C12.9682 8.90882 12.913 9.53958 12.4899 9.89458C12.0668 10.2496 11.4361 10.1944 11.0811 9.77132C10.7261 9.34825 10.7813 8.71749 11.2043 8.36249C11.6274 8.00749 12.2582 8.06267 12.6132 8.48575Z" fill="currentColor"/>
</g>
<defs>
<clipPath id="clip0_3360_120797">
<rect width="16" height="16" fill="white"/>
</clipPath>
</defs>
</svg>
