<svg width="16" height="16" viewBox="0 0 16 16" fill="none" xmlns="http://www.w3.org/2000/svg">
<path d="M8 10.5C7.17157 10.5 6.5 9.82843 6.5 9L6.5 4C6.5 3.17157 7.17157 2.5 8 2.5L9 2.5V4C9 5.65685 10.3431 7 12 7H13.5V9C13.5 9.82843 12.8284 10.5 12 10.5H8ZM13.0607 5.18198C13.1562 5.27752 13.2375 5.38463 13.3033 5.5H12C11.1716 5.5 10.5 4.82843 10.5 4V2.69674C10.6154 2.76248 10.7225 2.8438 10.818 2.93934L13.0607 5.18198ZM15 6.24264C15 5.44699 14.6839 4.68393 14.1213 4.12132L11.8787 1.87868C11.3161 1.31607 10.553 1 9.75736 1H8C6.34315 1 5 2.34315 5 4H4C2.34315 4 1 5.34315 1 7V12C1 13.6569 2.34315 15 4 15H8C9.65685 15 11 13.6569 11 12H12C13.6569 12 15 10.6569 15 9V6.24264ZM9.5 12C9.5 12.8284 8.82843 13.5 8 13.5H4C3.17157 13.5 2.5 12.8284 2.5 12L2.5 7C2.5 6.17157 3.17157 5.5 4 5.5H5V9C5 10.6569 6.34315 12 8 12H9.5Z" fill="currentColor"/>
</svg>
