<svg width="16" height="16" viewBox="0 0 16 16" fill="none" xmlns="http://www.w3.org/2000/svg">
<path d="M11.5 3.25216C11.5 4.08178 10.8284 4.75432 10 4.75432C9.17157 4.75432 8.5 4.08178 8.5 3.25216C8.5 2.42254 9.17157 1.75 10 1.75C10.8284 1.75 11.5 2.42254 11.5 3.25216ZM7.39674 3.04767H3.91049C3.22014 3.04767 2.66049 3.60731 2.66049 4.29767V5.0111C2.66049 5.42531 2.99628 5.7611 3.41049 5.7611C3.82471 5.7611 4.16049 5.42531 4.16049 5.0111V4.54767H5.95533L4.14365 7.13289C3.97692 7.27045 3.87065 7.47866 3.87065 7.71169V10.3245L1.21916 12.9678C0.925816 13.2602 0.925082 13.7351 1.21752 14.0284C1.50996 14.3218 1.98484 14.3225 2.27818 14.0301L5.00316 11.3135C5.23842 11.079 5.37065 10.7604 5.37065 10.4282V9.87821L6.32625 10.9625V13.4989C6.32625 13.9131 6.66204 14.2489 7.07625 14.2489C7.49046 14.2489 7.82625 13.9131 7.82625 13.4989V10.8681C7.82625 10.5637 7.71524 10.2699 7.51403 10.0416L5.5214 7.78061L7.19766 5.38862L8.44158 8.67072C8.58837 9.05805 9.02137 9.25303 9.4087 9.10624C9.79603 8.95944 9.99101 8.52644 9.84422 8.13911L8.09806 3.53187C7.9876 3.24042 7.70841 3.04767 7.39674 3.04767ZM13.683 14.2236H13.6839L13.7548 14.2236L14.5262 14.223C14.909 14.2227 15.1301 13.7774 14.917 13.4359L14.4876 12.7476L14.4481 12.6843L14.4477 12.6835L12.1717 9.03504C12.0246 8.79936 11.7283 8.72476 11.5096 8.87479C9.64741 10.1518 8.97991 11.2856 8.80035 13.677C8.77809 13.9735 9.00891 14.227 9.29145 14.2268L13.683 14.2236ZM10.4118 12.6865C10.5049 12.2621 10.6286 11.9435 10.7808 11.676C10.9476 11.3828 11.1799 11.0956 11.5354 10.7808L12.7231 12.6848L10.4118 12.6865Z" fill="currentColor"/>
</svg>
