<svg width="16" height="16" viewBox="0 0 16 16" fill="none" xmlns="http://www.w3.org/2000/svg">
<path fill-rule="evenodd" clip-rule="evenodd" d="M5.25 3.5H4C3.17157 3.5 2.5 4.17157 2.5 5V5.5H5.25V3.5ZM6.75 3.5V5.5L13.5 5.5V5C13.5 4.17157 12.8284 3.5 12 3.5H6.75ZM5.25 7H2.5V9H5.25V7ZM2.5 11V10.5H5.25V12.5H4C3.17157 12.5 2.5 11.8284 2.5 11ZM6.75 12.5V10.5H9V9H6.75V7H9L13.5 7L15 7V5C15 3.34315 13.6569 2 12 2H4C2.34315 2 1 3.34315 1 5V11C1 12.6569 2.34315 14 4 14H9V12.5H6.75Z" fill="currentColor"/>
<path d="M12.75 9L11.5 11.5H14L12.75 14" stroke="currentColor" stroke-width="1.5" stroke-linecap="round" stroke-linejoin="round"/>
</svg>
