<svg width="16" height="16" viewBox="0 0 16 16" fill="none" xmlns="http://www.w3.org/2000/svg">
<path d="M10.4963 2.69284C9.43499 1.60443 7.71171 1.6033 6.64903 2.69032L1.79604 7.65444C0.734326 8.74047 0.734327 10.5013 1.79604 11.5873L3.93543 13.7757L3.95957 13.751C4.09646 13.8977 4.29151 13.9894 4.50798 13.9894H13.4397C13.8539 13.9894 14.1897 13.6536 14.1897 13.2394C14.1897 12.8252 13.8539 12.4894 13.4397 12.4894H9.94501L13.0859 9.28899C14.1501 8.20456 14.1529 6.44278 13.0921 5.35485L10.4963 2.69284ZM9.89711 10.3971L5.50535 6.00538L7.69762 3.76292C8.18065 3.26882 8.96396 3.26933 9.44638 3.76406L12.0421 6.42608C12.5243 6.92059 12.5231 7.7214 12.0393 8.21432L9.89711 10.3971Z" fill="currentColor"/>
</svg>
