<svg width="16" height="16" viewBox="0 0 16 16" fill="none" xmlns="http://www.w3.org/2000/svg">
<path d="M10 1.5C9.58579 1.5 9.25 1.83579 9.25 2.25C9.25 2.66421 9.58579 3 10 3H11.9393L6.96967 7.96967C6.67678 8.26256 6.67678 8.73744 6.96967 9.03033C7.26256 9.32322 7.73744 9.32322 8.03033 9.03033L13 4.06066V6C13 6.41421 13.3358 6.75 13.75 6.75C14.1642 6.75 14.5 6.41421 14.5 6V2.25C14.5 1.83579 14.1642 1.5 13.75 1.5H10ZM7.5 3.25C7.5 2.83579 7.16421 2.5 6.75 2.5H4.5C2.84315 2.5 1.5 3.84315 1.5 5.5V11.5C1.5 13.1569 2.84315 14.5 4.5 14.5H10.5C12.1569 14.5 13.5 13.1569 13.5 11.5V9.25C13.5 8.83579 13.1642 8.5 12.75 8.5C12.3358 8.5 12 8.83579 12 9.25V11.5C12 12.3284 11.3284 13 10.5 13H4.5C3.67157 13 3 12.3284 3 11.5V5.5C3 4.67157 3.67157 4 4.5 4H6.75C7.16421 4 7.5 3.66421 7.5 3.25Z" fill="currentColor"/>
</svg>
