<svg width="16" height="16" viewBox="0 0 16 16" fill="none" xmlns="http://www.w3.org/2000/svg">
<path d="M3.03009 1.96967C2.7372 1.67678 2.26233 1.67678 1.96943 1.96967C1.67654 2.26256 1.67654 2.73744 1.96943 3.03033L2.799 3.85989C1.81816 4.66325 1.02567 5.69189 0.499263 6.87631L0.23947 7.46084C0.0868431 7.80425 0.0868434 8.19625 0.23947 8.53966L0.499411 9.12453C1.45353 11.2713 3.28182 12.9063 5.52142 13.6157C7.13415 14.1265 8.86532 14.1265 10.478 13.6157C10.9863 13.4547 11.4733 13.2461 11.9337 12.9946L12.9694 14.0303C13.2623 14.3232 13.7372 14.3232 14.0301 14.0303C14.323 13.7374 14.323 13.2626 14.0301 12.9697L3.03009 1.96967ZM10.8174 11.8783C10.5616 11.9967 10.2971 12.0996 10.0251 12.1857C8.70713 12.6031 7.29234 12.6031 5.97434 12.1857C4.14404 11.606 2.64988 10.2698 1.87013 8.51532L1.64121 8.00025L1.86998 7.48551C2.32086 6.47103 3.0106 5.59639 3.86607 4.92697L5.41516 6.47606C5.15121 6.92272 4.99973 7.44375 4.99973 8.00015C4.99973 9.657 6.34288 11.0002 7.99973 11.0002C8.55614 11.0002 9.07716 10.8487 9.52382 10.5847L10.8174 11.8783ZM6.55058 7.61147L8.38841 9.44931C8.26445 9.48247 8.13415 9.50015 7.99973 9.50015C7.17131 9.50015 6.49973 8.82858 6.49973 8.00015C6.49973 7.86573 6.51741 7.73544 6.55058 7.61147ZM13.9471 11.4474C14.587 10.7747 15.1148 9.99123 15.5001 9.12437L15.76 8.53951C15.9127 8.1961 15.9127 7.8041 15.76 7.46069L15.5002 6.87615C14.546 4.72918 12.7175 3.09405 10.4777 2.38476C8.86518 1.87415 7.13434 1.87415 5.52186 2.38476C5.36241 2.43526 5.20505 2.49044 5.04993 2.55017L6.23725 3.73749C7.47909 3.3993 8.79414 3.42506 10.0248 3.81478C11.8553 4.39444 13.3497 5.73075 14.1295 7.48536L14.3583 8.0001L14.1294 8.51517C13.8197 9.2119 13.3974 9.84268 12.8861 10.3863L13.9471 11.4474ZM7.53547 5.03571L10.9641 8.46429C10.9876 8.31297 10.9998 8.15791 10.9998 8C10.9998 6.34315 9.65662 5 7.99976 5C7.84185 5 7.68679 5.0122 7.53547 5.03571Z" fill="currentColor"/>
</svg>
