<svg width="16" height="16" viewBox="0 0 16 16" fill="none" xmlns="http://www.w3.org/2000/svg">
<path d="M11 13.5C11.8284 13.5 12.5 12.8284 12.5 12V8H10C8.34315 8 7 6.65685 7 5V2.5L5 2.5C4.17157 2.5 3.5 3.17157 3.5 4L3.5 12C3.5 12.8284 4.17157 13.5 5 13.5H11ZM12.3033 6.5C12.2375 6.38462 12.1562 6.27752 12.0607 6.18198L8.81802 2.93934C8.72248 2.8438 8.61538 2.76248 8.5 2.69674V5C8.5 5.82843 9.17157 6.5 10 6.5H12.3033ZM13.1213 5.12132C13.6839 5.68393 14 6.44699 14 7.24264L14 12C14 13.6569 12.6569 15 11 15H5C3.34315 15 2 13.6569 2 12V4C2 2.34315 3.34315 1 5 1H7.75736C8.55301 1 9.31607 1.31607 9.87868 1.87868L13.1213 5.12132Z" fill="currentColor"/>
</svg>
