<svg width="16" height="16" viewBox="0 0 16 16" fill="none" xmlns="http://www.w3.org/2000/svg">
<path d="M5 13.5C4.17157 13.5 3.5 12.8284 3.5 12L3.5 4C3.5 3.17157 4.17157 2.5 5 2.5L7 2.5V5C7 6.65685 8.34315 8 10 8H12.5V12C12.5 12.8284 11.8284 13.5 11 13.5H5ZM12.0607 6.18198C12.1562 6.27752 12.2375 6.38462 12.3033 6.5H10C9.17157 6.5 8.5 5.82843 8.5 5V2.69674C8.61538 2.76248 8.72248 2.8438 8.81802 2.93934L12.0607 6.18198ZM14 7.24264C14 6.44699 13.6839 5.68393 13.1213 5.12132L9.87868 1.87868C9.31607 1.31607 8.55301 1 7.75736 1H5C3.34315 1 2 2.34315 2 4V12C2 13.6569 3.34315 15 5 15H11C12.6569 15 14 13.6569 14 12L14 7.24264ZM10 11.25H6C5.58579 11.25 5.25 10.9142 5.25 10.5C5.25 10.0858 5.58579 9.75 6 9.75H10C10.4142 9.75 10.75 10.0858 10.75 10.5C10.75 10.9142 10.4142 11.25 10 11.25Z" fill="currentColor"/>
</svg>
