<svg width="16" height="16" viewBox="0 0 16 16" fill="none" xmlns="http://www.w3.org/2000/svg">
<path d="M5.30675 1.89014C5.2513 1.02611 6.17172 0.516187 6.87574 0.86135C8.18234 1.50194 9.22597 2.56805 9.90701 3.72248C9.99153 3.3453 10.2699 3.07599 10.5755 2.95905C10.9352 2.82141 11.3998 2.86607 11.7386 3.19827L11.7497 3.20921L11.7604 3.22061C12.6569 4.17603 13.7472 6.03046 14.1185 8.05736C14.496 10.1186 14.138 12.4695 11.9507 14.1537L11.9413 14.161L11.9413 14.1609C11.2879 14.6478 10.5354 15.0058 9.75706 15.2136C9.52261 15.2884 9.28933 15.2408 9.11844 15.139C8.94542 15.036 8.8465 14.8899 8.79423 14.7746C8.69826 14.5628 8.64567 14.1586 8.96389 13.8466L8.98094 13.8299L8.99902 13.8143C9.94829 12.9952 10.0946 12.1257 9.96232 11.3797C9.90323 11.0466 9.78678 10.7345 9.64882 10.4635C9.59224 10.5425 9.52787 10.6186 9.45479 10.6903L8.46395 11.6619L8.19402 10.3007C8.12114 9.93315 7.93095 9.52114 7.66274 9.17297C7.41214 10.0092 6.91275 10.6336 6.58146 11.0128C6.32022 11.3117 6.04143 11.7652 5.9709 12.2504C5.90771 12.6852 5.99733 13.2163 6.60354 13.793L6.61177 13.8008L6.61171 13.8009C6.93407 14.117 6.88768 14.5423 6.7479 14.789C6.59842 15.0528 6.24891 15.2884 5.83245 15.178C4.99386 14.9884 4.21965 14.5911 3.55905 14.047L4.03587 13.4681L3.5596 14.0475C2.20694 12.9355 1.72696 11.5055 1.75084 10.1473C1.77423 8.81745 2.27647 7.5583 2.87966 6.67112L2.88219 6.66739L2.88221 6.6674C3.12411 6.31616 3.37508 5.97767 3.61183 5.65835C3.68032 5.56597 3.74762 5.4752 3.81317 5.38618C4.11114 4.98155 4.37923 4.60503 4.6065 4.22552C5.05089 3.48345 5.32167 2.75859 5.30675 1.89014ZM8.96009 8.4053C8.97914 8.39352 8.99852 8.38251 9.01818 8.3723C9.31951 8.21588 9.70083 8.23435 9.9985 8.46784L10.0183 8.48336L10.037 8.50016C10.569 8.97835 11.2326 9.95253 11.4393 11.1178C11.5253 11.6031 11.5308 12.1183 11.4201 12.6377C12.6946 11.4336 12.9265 9.87518 12.643 8.32762C12.4053 7.02993 11.8102 5.80587 11.2271 4.9559C11.09 5.4238 10.8476 5.89266 10.4437 6.26993L9.50283 7.14851L9.20247 5.89678C8.91852 4.71348 8.03591 3.36071 6.77668 2.52988C6.67484 3.46896 6.32937 4.26815 5.89339 4.99617C5.62723 5.44062 5.32324 5.86521 5.02101 6.27563C4.94933 6.37297 4.87801 6.46918 4.80706 6.56489C4.57355 6.87988 4.34406 7.18945 4.11888 7.5163C3.65065 8.20571 3.268 9.18506 3.25061 10.1737C3.23392 11.1232 3.54993 12.0807 4.47778 12.8602C4.44206 12.5803 4.44743 12.3035 4.4865 12.0347C4.61306 11.1639 5.07999 10.4514 5.45195 10.0257C5.88172 9.53392 6.35011 8.87337 6.31601 8.0374L6.31538 8.02212V8.00683C6.31538 7.70073 6.46741 7.42185 6.70504 7.25541C6.95028 7.08365 7.32379 7.01946 7.65427 7.22169C8.18613 7.50458 8.62537 7.93011 8.96009 8.4053Z" fill="currentColor"/>
</svg>
