<svg width="16" height="16" viewBox="0 0 16 16" fill="none" xmlns="http://www.w3.org/2000/svg">
<path d="M7.5 13.5C7.5 13.7761 7.72386 14 8 14H13C13.2761 14 13.5 13.7761 13.5 13.5V11.5C13.5 11.2239 13.2761 11 13 11H10.5H9.87868L9.43934 10.5607L9.02513 10.1464C8.93136 10.0527 8.80418 10 8.67157 10H8C7.72386 10 7.5 10.2239 7.5 10.5V12.25V13.5ZM6 13H4.5C2.84315 13 1.5 11.6569 1.5 10V2V1.25C1.5 0.835787 1.83579 0.5 2.25 0.5C2.66421 0.5 3 0.835787 3 1.25V2C3 2.82843 3.67157 3.5 4.5 3.5H6V2.5C6 1.39543 6.89543 0.5 8 0.5H8.67157C9.20201 0.5 9.71071 0.710714 10.0858 1.08579L10.5 1.5H13C14.1046 1.5 15 2.39543 15 3.5V5.5C15 6.60457 14.1046 7.5 13 7.5H8C6.89543 7.5 6 6.60457 6 5.5V5H4.5C3.95357 5 3.44126 4.85391 3 4.59865V10C3 10.8284 3.67157 11.5 4.5 11.5H6V10.5C6 9.39543 6.89543 8.5 8 8.5H8.67157C9.20201 8.5 9.71071 8.71071 10.0858 9.08579L10.5 9.5H13C14.1046 9.5 15 10.3954 15 11.5V13.5C15 14.6046 14.1046 15.5 13 15.5H8C6.89543 15.5 6 14.6046 6 13.5V13ZM7.5 4.25V5.5C7.5 5.77614 7.72386 6 8 6H13C13.2761 6 13.5 5.77614 13.5 5.5V3.5C13.5 3.22386 13.2761 3 13 3H10.5H9.87868L9.43934 2.56066L9.02513 2.14645C8.93136 2.05268 8.80418 2 8.67157 2H8C7.72386 2 7.5 2.22386 7.5 2.5V4.25Z" fill="currentColor"/>
</svg>
