<svg width="16" height="16" viewBox="0 0 16 16" fill="none" xmlns="http://www.w3.org/2000/svg">
<path d="M8.87868 4H9.5H13C13.8284 4 14.5 4.67157 14.5 5.5V9C14.5 9.82843 13.8284 10.5 13 10.5H6C5.17157 10.5 4.5 9.82843 4.5 9V4C4.5 3.17157 5.17157 2.5 6 2.5H6.96447C7.22968 2.5 7.48404 2.60536 7.67157 2.79289L8.43934 3.56066L8.87868 4ZM6 1C4.34315 1 3 2.34315 3 4C1.34315 4 0 5.34315 0 7V12C0 13.6569 1.34315 15 3 15H10C11.6569 15 13 13.6569 13 12C14.6569 12 16 10.6569 16 9V5.5C16 3.84315 14.6569 2.5 13 2.5H9.5L8.73223 1.73223C8.26339 1.26339 7.62751 1 6.96447 1H6ZM1.5 7C1.5 6.17157 2.17157 5.5 3 5.5V9C3 10.6569 4.34315 12 6 12H11.5C11.5 12.8284 10.8284 13.5 10 13.5H3C2.17157 13.5 1.5 12.8284 1.5 12V7ZM12.25 7H6.75C6.33579 7 6 6.66421 6 6.25C6 5.83579 6.33579 5.5 6.75 5.5H12.25C12.6642 5.5 13 5.83579 13 6.25C13 6.66421 12.6642 7 12.25 7Z" fill="currentColor"/>
</svg>
