<svg width="16" height="16" viewBox="0 0 16 16" fill="none" xmlns="http://www.w3.org/2000/svg">
<path d="M12.0638 14.0779C12.4652 14.3427 13 14.0549 13 13.574V6.5C13 3.73858 10.7614 1.5 8 1.5C5.23858 1.5 3 3.73858 3 6.5V13.574C3 14.0549 3.53479 14.3427 3.93617 14.0779L4.94929 13.4095C5.28335 13.1891 5.71665 13.1891 6.05071 13.4095L7.44929 14.3322C7.78335 14.5526 8.21665 14.5526 8.55071 14.3322L9.94929 13.4095C10.2833 13.1891 10.7167 13.1891 11.0507 13.4095L12.0638 14.0779ZM9.94929 13.4095L9.12321 12.1574L8 12.8985L6.87679 12.1574L6.05071 13.4095L6.87678 12.1574C6.16252 11.6862 5.2668 11.618 4.5 11.9528V6.5C4.5 4.567 6.067 3 8 3C9.933 3 11.5 4.567 11.5 6.5V11.9528C10.7332 11.618 9.83748 11.6862 9.12322 12.1574L9.94929 13.4095ZM7.22777 6.25C7.22777 6.66421 6.89696 7 6.48888 7C6.08081 7 5.75 6.66421 5.75 6.25C5.75 5.83579 6.08081 5.5 6.48888 5.5C6.89696 5.5 7.22777 5.83579 7.22777 6.25ZM9.48888 7C9.89696 7 10.2278 6.66421 10.2278 6.25C10.2278 5.83579 9.89696 5.5 9.48888 5.5C9.08081 5.5 8.75 5.83579 8.75 6.25C8.75 6.66421 9.08081 7 9.48888 7Z" fill="currentColor"/>
</svg>
