<svg width="16" height="16" viewBox="0 0 16 16" fill="none" xmlns="http://www.w3.org/2000/svg">
<path d="M8.16278 2.62782C8.06913 2.54748 7.93087 2.54748 7.83722 2.62782C7.78186 2.67531 7.75 2.74462 7.75 2.81757V7.50509C7.75 7.91931 7.41421 8.25509 7 8.25509C6.58579 8.25509 6.25 7.91931 6.25 7.50509V3.67543C6.25 3.60249 6.21814 3.53318 6.16278 3.48569C6.06913 3.40535 5.93087 3.40535 5.83722 3.48569C5.78186 3.53318 5.75 3.60249 5.75 3.67543V9.15538L6.29565 9.38943C6.67632 9.55271 6.85255 9.99368 6.68927 10.3743C6.52599 10.755 6.08502 10.9312 5.70435 10.768L4.25 10.1441V7.34594C4.25 7.30199 4.23841 7.25888 4.21599 7.22042C4.11954 7.05494 3.88046 7.05494 3.78401 7.22042C3.76162 7.25883 3.75 7.30201 3.75 7.34602V11.7944C3.75 11.7937 3.74983 11.7934 3.75 11.7944C3.7514 11.8026 3.7631 11.8699 3.85659 12.0017C3.95529 12.1408 4.10423 12.2936 4.28213 12.4433C4.80097 12.8799 5.25 13.5517 5.25 14.368C5.25 14.7822 4.91421 15.118 4.5 15.118C4.08579 15.118 3.75 14.7822 3.75 14.368C3.75 14.1233 3.60939 13.8376 3.31637 13.5911C3.08163 13.3936 2.83094 13.1484 2.63318 12.8696C2.44174 12.5997 2.25 12.2282 2.25 11.7944V7.34602C2.25 7.03617 2.33226 6.73241 2.48806 6.46509C2.87368 5.80347 3.58502 5.51974 4.25 5.61391V3.67543C4.25 3.16482 4.47301 2.67968 4.86056 2.34721C5.31328 1.95884 5.91493 1.83867 6.4598 1.98673C6.56061 1.79983 6.6957 1.63077 6.86056 1.48934C7.5161 0.926973 8.4839 0.926974 9.13944 1.48934C9.3043 1.63077 9.43939 1.79983 9.5402 1.98673C10.0851 1.83867 10.6867 1.95884 11.1394 2.34721C11.5228 2.67612 11.7452 3.15447 11.7499 3.65907C12.2354 3.58923 12.7442 3.72385 13.1394 4.06295C13.527 4.39541 13.75 4.88056 13.75 5.39117V13.2132C13.75 13.5293 13.6143 13.81 13.4805 14.011C13.3356 14.2284 13.1386 14.4348 12.9061 14.6129C12.4393 14.9704 11.7819 15.25 11 15.25C10.5858 15.25 10.25 14.9142 10.25 14.5C10.25 14.0858 10.5858 13.75 11 13.75C11.4181 13.75 11.7607 13.6007 11.9939 13.4221C12.1114 13.3321 12.1894 13.2435 12.232 13.1795C12.2398 13.1679 12.2456 13.1582 12.25 13.1505V5.39117C12.25 5.31822 12.2181 5.24892 12.1628 5.20142C12.0691 5.12109 11.9309 5.12109 11.8372 5.20142L11.75 5.27625V7.93403C11.75 8.34824 11.4142 8.68403 11 8.68403C10.5858 8.68403 10.25 8.34824 10.25 7.93403V3.67543C10.25 3.60249 10.2181 3.53318 10.1628 3.48569C10.0691 3.40535 9.93087 3.40535 9.83722 3.48569L9.75 3.56051V7.93403C9.75 8.34824 9.41421 8.68403 9 8.68403C8.58579 8.68403 8.25 8.34824 8.25 7.93403V2.81757C8.25 2.74462 8.21814 2.67532 8.16278 2.62782Z" fill="currentColor"/>
</svg>
