<svg width="16" height="16" viewBox="0 0 16 16" fill="none" xmlns="http://www.w3.org/2000/svg">
<path d="M7.2379 2.63417C7.312 2.22664 7.0417 1.8362 6.63416 1.76211C6.22663 1.68801 5.83619 1.95831 5.7621 2.36584L5.28316 5.00001H3C2.58579 5.00001 2.25 5.33579 2.25 5.75001C2.25 6.16422 2.58579 6.50001 3 6.50001H5.01043L4.46498 9.50001H2C1.58579 9.50001 1.25 9.83579 1.25 10.25C1.25 10.6642 1.58579 11 2 11H4.19225L3.7621 13.3658C3.688 13.7734 3.9583 14.1638 4.36584 14.2379C4.77337 14.312 5.16381 14.0417 5.2379 13.6342L5.71684 11H9.19225L8.7621 13.3658C8.688 13.7734 8.9583 14.1638 9.36584 14.2379C9.77337 14.312 10.1638 14.0417 10.2379 13.6342L10.7168 11H13C13.4142 11 13.75 10.6642 13.75 10.25C13.75 9.83579 13.4142 9.50001 13 9.50001H10.9896L11.535 6.50001H14C14.4142 6.50001 14.75 6.16422 14.75 5.75001C14.75 5.33579 14.4142 5.00001 14 5.00001H11.8078L12.2379 2.63417C12.312 2.22664 12.0417 1.8362 11.6342 1.76211C11.2266 1.68801 10.8362 1.95831 10.7621 2.36584L10.2832 5.00001H6.80775L7.2379 2.63417ZM9.46498 9.50001H5.98957L6.53502 6.50001H10.0104L9.46498 9.50001Z" fill="currentColor"/>
</svg>
