<svg width="16" height="16" viewBox="0 0 16 16" fill="none" xmlns="http://www.w3.org/2000/svg">
<path fill-rule="evenodd" clip-rule="evenodd" d="M4 0.75C3.58579 0.75 3.25 1.08579 3.25 1.5C3.25 1.91421 3.58579 2.25 4 2.25H7.25V10.5H5.20711C4.76165 10.5 4.53857 11.0386 4.85355 11.3536L7.64645 14.1464C7.84171 14.3417 8.15829 14.3417 8.35355 14.1464L11.1464 11.3536C11.4614 11.0386 11.2383 10.5 10.7929 10.5H8.75V2C8.75 1.30964 8.19036 0.75 7.5 0.75H4Z" fill="currentColor"/>
<path d="M4 0.75C3.58579 0.75 3.25 1.08579 3.25 1.5C3.25 1.91421 3.58579 2.25 4 2.25H7.25V10.5H5.20711C4.76165 10.5 4.53857 11.0386 4.85355 11.3536L7.64645 14.1464C7.84171 14.3417 8.15829 14.3417 8.35355 14.1464L11.1464 11.3536C11.4614 11.0386 11.2383 10.5 10.7929 10.5H8.75V2C8.75 1.30964 8.19036 0.75 7.5 0.75H4Z" fill="currentColor"/>
</svg>
