<svg width="16" height="16" viewBox="0 0 16 16" fill="none" xmlns="http://www.w3.org/2000/svg">
<path d="M2.5 5.25C3.19036 5.25 3.75 4.69036 3.75 4C3.75 3.30964 3.19036 2.75 2.5 2.75C1.80964 2.75 1.25 3.30964 1.25 4C1.25 4.69036 1.80964 5.25 2.5 5.25ZM5.75 3.25C5.33579 3.25 5 3.58579 5 4C5 4.41421 5.33579 4.75 5.75 4.75H14.25C14.6642 4.75 15 4.41421 15 4C15 3.58579 14.6642 3.25 14.25 3.25H5.75ZM5.75 11.25C5.33579 11.25 5 11.5858 5 12C5 12.4142 5.33579 12.75 5.75 12.75H14.25C14.6642 12.75 15 12.4142 15 12C15 11.5858 14.6642 11.25 14.25 11.25H5.75ZM5 8C5 7.58579 5.33579 7.25 5.75 7.25H14.25C14.6642 7.25 15 7.58579 15 8C15 8.41421 14.6642 8.75 14.25 8.75H5.75C5.33579 8.75 5 8.41421 5 8ZM3.75 8C3.75 8.69036 3.19036 9.25 2.5 9.25C1.80964 9.25 1.25 8.69036 1.25 8C1.25 7.30964 1.80964 6.75 2.5 6.75C3.19036 6.75 3.75 7.30964 3.75 8ZM2.5 13.25C3.19036 13.25 3.75 12.6904 3.75 12C3.75 11.3096 3.19036 10.75 2.5 10.75C1.80964 10.75 1.25 11.3096 1.25 12C1.25 12.6904 1.80964 13.25 2.5 13.25Z" fill="currentColor"/>
</svg>
