<svg width="16" height="16" viewBox="0 0 16 16" fill="none" xmlns="http://www.w3.org/2000/svg">
<path fill-rule="evenodd" clip-rule="evenodd" d="M5 13.5L11 13.5C11.8284 13.5 12.5 12.8284 12.5 12L12.5 7.24264C12.5 6.84482 12.342 6.46328 12.0607 6.18198L8.81802 2.93934C8.53671 2.65804 8.15518 2.5 7.75736 2.5L5 2.5C4.17157 2.5 3.5 3.17157 3.5 4L3.5 12C3.5 12.8284 4.17157 13.5 5 13.5ZM14 7.24264C14 6.44699 13.6839 5.68393 13.1213 5.12132L9.87868 1.87868C9.31607 1.31607 8.55301 1 7.75736 1L5 1C3.34315 1 2 2.34315 2 4L2 12C2 13.6569 3.34315 15 5 15L11 15C12.6569 15 14 13.6569 14 12L14 7.24264Z" fill="currentColor"/>
<path d="M8.01994 8.4C8.01994 8.08421 8.2192 7.84919 8.59936 7.58006C9.10392 7.22287 9.26994 6.92682 9.26994 6.50526C9.26994 5.86167 8.73283 5.4 8.01994 5.4C7.41378 5.4 6.76994 5.86676 6.76994 6.50526" stroke="currentColor" stroke-width="1.5" stroke-linecap="round" stroke-linejoin="round"/>
<path d="M8.99989 10.7C8.99989 11.2523 8.55217 11.7 7.99989 11.7C7.4476 11.7 6.99989 11.2523 6.99989 10.7C6.99989 10.1477 7.4476 9.7 7.99989 9.7C8.55217 9.7 8.99989 10.1477 8.99989 10.7Z" fill="currentColor"/>
</svg>
