<svg width="16" height="16" viewBox="0 0 16 16" fill="none" xmlns="http://www.w3.org/2000/svg">
<path d="M8 13.5C4.96243 13.5 2.5 11.0376 2.5 8C2.5 4.96243 4.96243 2.5 8 2.5C11.0376 2.5 13.5 4.96243 13.5 8C13.5 11.0376 11.0376 13.5 8 13.5ZM8 15C11.866 15 15 11.866 15 8C15 4.13401 11.866 1 8 1C4.13401 1 1 4.13401 1 8C1 11.866 4.13401 15 8 15ZM9.75 5.25C10.3023 5.25 10.75 5.69772 10.75 6.25V9.75C10.75 10.3023 10.3023 10.75 9.75 10.75C9.19772 10.75 8.75 10.3023 8.75 9.75V6.25C8.75 5.69772 9.19771 5.25 9.75 5.25ZM7.25 6.25C7.25 5.69772 6.80228 5.25 6.25 5.25C5.69772 5.25 5.25 5.69772 5.25 6.25V9.75C5.25 10.3023 5.69772 10.75 6.25 10.75C6.80229 10.75 7.25 10.3023 7.25 9.75V6.25Z" fill="currentColor"/>
</svg>
