<svg width="16" height="16" viewBox="0 0 16 16" fill="none" xmlns="http://www.w3.org/2000/svg">
<path d="M11.4685 3.41019L10.6023 4.27634C10.3822 3.91934 10.0807 3.61784 9.72366 3.39766L10.5898 2.53151C11.0242 2.6339 11.3661 2.97581 11.4685 3.41019ZM10.7755 6.22448L12.7755 4.22448C12.9193 4.08075 13 3.8858 13 3.68253C13 2.20101 11.799 1 10.3175 1C10.1142 1 9.91925 1.08075 9.77552 1.22448L7.77577 3.22423C7.77569 3.22431 7.7756 3.2244 7.77552 3.22448L3.70711 7.29289C3.24812 7.75188 2.95038 8.34736 2.85858 8.98995L2.68856 10.1801C2.59428 10.84 3.15996 11.4057 3.81993 11.3114L5.01005 11.1414C5.65264 11.0496 6.24812 10.7519 6.70711 10.2929L10.7755 6.22448ZM9.46849 5.41019L5.64645 9.23223C5.43129 9.44739 5.15616 9.59167 4.85787 9.64669C4.83799 9.65036 4.818 9.65363 4.79792 9.6565L4.26777 9.73223L4.3435 9.20208C4.38366 8.92095 4.50266 8.65785 4.68553 8.44273C4.71165 8.41199 4.73908 8.38224 4.76777 8.35355L8.58981 4.53151C9.02419 4.6339 9.3661 4.97581 9.46849 5.41019ZM2 13.25C2 12.8358 2.33579 12.5 2.75 12.5H13.25C13.6642 12.5 14 12.8358 14 13.25C14 13.6642 13.6642 14 13.25 14H2.75C2.33579 14 2 13.6642 2 13.25Z" fill="currentColor"/>
</svg>
