<svg width="16" height="16" viewBox="0 0 16 16" fill="none" xmlns="http://www.w3.org/2000/svg">
<path d="M13.5 12C13.5 12.8284 12.8284 13.5 12 13.5H11.6775C11.7247 13.3416 11.75 13.1737 11.75 13V10C11.75 9.0335 10.9665 8.25 10 8.25H6C5.0335 8.25 4.25 9.0335 4.25 10V13C4.25 13.1737 4.27532 13.3416 4.32247 13.5H4C3.17157 13.5 2.5 12.8284 2.5 12V4C2.5 3.17157 3.17157 2.5 4 2.5H10.7253C11.1326 2.5 11.5223 2.66562 11.8051 2.9588L13.0798 4.28072C13.3494 4.56029 13.5 4.93354 13.5 5.32192V12ZM4 1C2.34315 1 1 2.34315 1 4V12C1 13.6569 2.34315 15 4 15H12C13.6569 15 15 13.6569 15 12V5.32192C15 4.54516 14.6987 3.79867 14.1595 3.23952L12.8848 1.91759C12.3194 1.33123 11.5399 1 10.7253 1H4ZM11.75 4.75C11.75 4.33579 11.4142 4 11 4H5C4.58579 4 4.25 4.33579 4.25 4.75C4.25 5.16421 4.58579 5.5 5 5.5H11C11.4142 5.5 11.75 5.16421 11.75 4.75ZM5.75 10C5.75 9.86193 5.86193 9.75 6 9.75H10C10.1381 9.75 10.25 9.86193 10.25 10V13C10.25 13.1381 10.1381 13.25 10 13.25H6C5.86193 13.25 5.75 13.1381 5.75 13V10Z" fill="currentColor"/>
</svg>
