<svg width="16" height="16" viewBox="0 0 16 16" fill="none" xmlns="http://www.w3.org/2000/svg">
<path d="M11.5 5.00064C12.0521 5.00064 12.5 4.55296 12.5 4.00032C12.5 3.44768 12.0521 3 11.5 3C10.9479 3 10.5 3.44768 10.5 4.00032C10.5 4.55296 10.9479 5.00064 11.5 5.00064ZM9.05498 4.52425C9.01896 4.3553 9 4.18002 9 4.00032C9 2.61943 10.1193 1.5 11.5 1.5C12.8807 1.5 14 2.61943 14 4.00032C14 5.38121 12.8807 6.50064 11.5 6.50064C10.8417 6.50064 10.2427 6.24613 9.79626 5.83012L6.93979 7.63056C6.97921 7.8069 7 7.99026 7 8.17848C7 8.35198 6.98233 8.52136 6.94869 8.6849L9.74016 10.2244C10.1919 9.77661 10.8137 9.5 11.5 9.5C12.8807 9.5 14 10.6194 14 12.0003C14 13.3812 12.8807 14.5006 11.5 14.5006C10.1193 14.5006 9 13.3812 9 12.0003C9 11.8471 9.01379 11.697 9.04019 11.5514L6.21799 9.99491C5.77004 10.4188 5.16538 10.6788 4.5 10.6788C3.11929 10.6788 2 9.55937 2 8.17848C2 6.79759 3.11929 5.67816 4.5 5.67816C5.14975 5.67816 5.74161 5.92607 6.18618 6.33247L9.05498 4.52425ZM11.5 13.0006C12.0521 13.0006 12.5 12.553 12.5 12.0003C12.5 11.4477 12.0521 11 11.5 11C10.9479 11 10.5 11.4477 10.5 12.0003C10.5 12.553 10.9479 13.0006 11.5 13.0006ZM3.5 8.17848C3.5 8.73112 3.9479 9.1788 4.5 9.1788C5.0521 9.1788 5.5 8.73112 5.5 8.17848C5.5 7.62584 5.0521 7.17816 4.5 7.17816C3.9479 7.17816 3.5 7.62584 3.5 8.17848Z" fill="currentColor"/>
</svg>
