<svg width="16" height="16" viewBox="0 0 16 16" fill="none" xmlns="http://www.w3.org/2000/svg">
<path d="M3.25 11.6893L2.28033 10.7197C1.98744 10.4268 1.51256 10.4268 1.21967 10.7197C0.926777 11.0126 0.926777 11.4874 1.21967 11.7803L3.46967 14.0303C3.61032 14.171 3.80109 14.25 4 14.25C4.19891 14.25 4.38968 14.171 4.53033 14.0303L6.78033 11.7803C7.07322 11.4874 7.07322 11.0126 6.78033 10.7197C6.48744 10.4268 6.01256 10.4268 5.71967 10.7197L4.75 11.6893L4.75 2.5C4.75 2.08579 4.41421 1.75 4 1.75C3.58579 1.75 3.25 2.08579 3.25 2.5L3.25 11.6893ZM8.25 13C8.25 12.5858 8.58579 12.25 9 12.25H15C15.4142 12.25 15.75 12.5858 15.75 13C15.75 13.4142 15.4142 13.75 15 13.75H9C8.58579 13.75 8.25 13.4142 8.25 13ZM9 8.75C8.58579 8.75 8.25 9.08579 8.25 9.5C8.25 9.91421 8.58579 10.25 9 10.25H13C13.4142 10.25 13.75 9.91421 13.75 9.5C13.75 9.08579 13.4142 8.75 13 8.75H9ZM8.25 6C8.25 5.58579 8.58579 5.25 9 5.25H11C11.4142 5.25 11.75 5.58579 11.75 6C11.75 6.41421 11.4142 6.75 11 6.75H9C8.58579 6.75 8.25 6.41421 8.25 6ZM9 1.75C8.58579 1.75 8.25 2.08579 8.25 2.5C8.25 2.91421 8.58579 3.25 9 3.25H10C10.4142 3.25 10.75 2.91421 10.75 2.5C10.75 2.08579 10.4142 1.75 10 1.75H9Z" fill="currentColor"/>
</svg>
