<svg width="16" height="16" viewBox="0 0 16 16" fill="none" xmlns="http://www.w3.org/2000/svg">
<path d="M8.75 3V7.25H13V4.5C13 3.67157 12.3284 3 11.5 3H8.75ZM7.25 3H4.5C3.67157 3 3 3.67157 3 4.5V7.25H7.25V3ZM3 8.75V11.5C3 12.3284 3.67157 13 4.5 13H7.25V8.75H3ZM8.75 13H11.5C12.3284 13 13 12.3284 13 11.5V8.75H8.75V13ZM1.5 4.5C1.5 2.84315 2.84315 1.5 4.5 1.5H11.5C13.1569 1.5 14.5 2.84315 14.5 4.5V11.5C14.5 13.1569 13.1569 14.5 11.5 14.5H4.5C2.84315 14.5 1.5 13.1569 1.5 11.5V4.5Z" fill="currentColor"/>
</svg>
