<svg width="16" height="16" viewBox="0 0 16 16" fill="none" xmlns="http://www.w3.org/2000/svg">
<path d="M6.25005 5.00001C6.25005 4.5858 6.58584 4.25001 7.00005 4.25001H13.75C14.1643 4.25001 14.5 4.5858 14.5 5.00001C14.5 5.41423 14.1643 5.75001 13.75 5.75001H7.00005C6.58584 5.75001 6.25005 5.41423 6.25005 5.00001Z" fill="currentColor"/>
<path d="M5.75005 12.2C5.75005 11.7858 6.08584 11.45 6.50005 11.45H13.75C14.1643 11.45 14.5 11.7858 14.5 12.2C14.5 12.6142 14.1643 12.95 13.75 12.95H6.50005C6.08584 12.95 5.75005 12.6142 5.75005 12.2Z" fill="currentColor"/>
<path d="M6.25005 8.50001C6.25005 8.0858 6.58584 7.75001 7.00005 7.75001H13.75C14.1643 7.75001 14.5 8.0858 14.5 8.50001C14.5 8.91423 14.1643 9.25001 13.75 9.25001H7.00005C6.58584 9.25001 6.25005 8.91423 6.25005 8.50001Z" fill="currentColor"/>
<path d="M4.50005 12.25C4.50005 12.9404 3.9404 13.5 3.25005 13.5C2.55969 13.5 2.00005 12.9404 2.00005 12.25C2.00005 11.5597 2.55969 11 3.25005 11C3.9404 11 4.50005 11.5597 4.50005 12.25Z" fill="currentColor"/>
<path d="M5.43734 2.45341C5.73922 2.69491 5.78816 3.13542 5.54666 3.4373L3.54666 5.9373C3.42227 6.09278 3.23756 6.18793 3.03876 6.19894C2.83995 6.20995 2.64587 6.13578 2.50507 5.99499L1.50507 4.99499C1.23171 4.72162 1.23171 4.27841 1.50507 4.00504C1.77844 3.73167 2.22166 3.73167 2.49502 4.00504L2.94201 4.45202L4.45344 2.56273C4.69495 2.26084 5.13545 2.2119 5.43734 2.45341Z" fill="currentColor"/>
<path d="M5.43734 6.45341C5.73922 6.69491 5.78816 7.13542 5.54666 7.4373L3.54666 9.9373C3.42227 10.0928 3.23756 10.1879 3.03876 10.1989C2.83995 10.21 2.64587 10.1358 2.50507 9.99499L1.50507 8.99499C1.23171 8.72162 1.23171 8.27841 1.50507 8.00504C1.77844 7.73167 2.22166 7.73167 2.49502 8.00504L2.94201 8.45202L4.45344 6.56273C4.69495 6.26084 5.13545 6.2119 5.43734 6.45341Z" fill="currentColor"/>
</svg>
