<svg width="16" height="16" viewBox="0 0 16 16" fill="none" xmlns="http://www.w3.org/2000/svg">
<path d="M11.6152 4.88752C10.7988 5.26346 9.53779 5.5 8 5.5C6.46221 5.5 5.20116 5.26346 4.38478 4.88752C3.57123 4.51289 3.5 4.17425 3.5 4C3.5 3.82575 3.57123 3.48711 4.38478 3.11248C5.20116 2.73654 6.46221 2.5 8 2.5C9.53779 2.5 10.7988 2.73654 11.6152 3.11248C12.4288 3.48711 12.5 3.82575 12.5 4C12.5 4.17425 12.4288 4.51289 11.6152 4.88752ZM8 7C9.68806 7 11.2133 6.74049 12.3036 6.22148C12.2779 6.36555 12.2497 6.50921 12.219 6.65241L11.0385 12.1615C11.0337 12.1762 11.0219 12.2097 11.0001 12.2563C10.9523 12.3587 10.8591 12.5196 10.6893 12.6893C10.3835 12.9952 9.65913 13.5 8 13.5C6.34087 13.5 5.61649 12.9952 5.31066 12.6893C5.14087 12.5196 5.04769 12.3587 4.9999 12.2563C4.97815 12.2097 4.96633 12.1762 4.96153 12.1615L3.781 6.65241C3.75031 6.50921 3.72213 6.36555 3.69645 6.22148C4.78669 6.74049 6.31194 7 8 7ZM14 4C14 2 11.3137 1 8 1C4.68629 1 2 2 2 4C2 4.99721 2.10535 5.99163 2.31429 6.9667L3.5 12.5C3.5 12.5 4 15 8 15C12 15 12.5 12.5 12.5 12.5L13.6857 6.9667C13.8947 5.99163 14 4.99721 14 4ZM7.03033 7.96967C6.73744 7.67678 6.26256 7.67678 5.96967 7.96967C5.67678 8.26256 5.67678 8.73744 5.96967 9.03033L6.93934 10L5.96967 10.9697C5.67678 11.2626 5.67678 11.7374 5.96967 12.0303C6.26256 12.3232 6.73744 12.3232 7.03033 12.0303L8 11.0607L8.96967 12.0303C9.26256 12.3232 9.73744 12.3232 10.0303 12.0303C10.3232 11.7374 10.3232 11.2626 10.0303 10.9697L9.06066 10L10.0303 9.03033C10.3232 8.73744 10.3232 8.26256 10.0303 7.96967C9.73744 7.67678 9.26256 7.67678 8.96967 7.96967L8 8.93934L7.03033 7.96967Z" fill="currentColor"/>
</svg>
