<svg width="16" height="16" viewBox="0 0 16 16" fill="none" xmlns="http://www.w3.org/2000/svg">
<path d="M9.00011 3.5C9.00011 4.05228 8.55239 4.5 8.00011 4.5C7.44782 4.5 7.00011 4.05228 7.00011 3.5C7.00011 2.94772 7.44782 2.5 8.00011 2.5C8.55239 2.5 9.00011 2.94772 9.00011 3.5ZM10.2921 4.5C10.4259 4.19377 10.5001 3.85555 10.5001 3.5C10.5001 2.11929 9.38082 1 8.00011 1C6.6194 1 5.50011 2.11929 5.50011 3.5C5.50011 3.85555 5.57433 4.19377 5.70813 4.5H3.82761C3.34748 4.5 2.93511 4.84124 2.84527 5.31289L1.22623 13.8129C1.10885 14.4291 1.58126 15 2.20856 15H13.7917C14.419 15 14.8914 14.4291 14.774 13.8129L13.1549 5.31289C13.0651 4.84123 12.6527 4.5 12.1726 4.5H10.2921ZM8.00011 6H11.7589L13.1874 13.5H2.81279L4.24136 6H8.00011Z" fill="currentColor"/>
</svg>
