<svg width="120" height="120" viewBox="0 0 120 120" fill="none" xmlns="http://www.w3.org/2000/svg">
<rect width="120" height="120" rx="60" fill="none"/>
<rect x="0.5" y="0.5" width="119" height="119" rx="59.5" stroke="white" stroke-opacity="0.15"/>
<rect x="0.5" y="0.5" width="119" height="119" rx="59.5" stroke="#92A1B2" stroke-opacity="0.2"/>
<path fill-rule="evenodd" clip-rule="evenodd" d="M45.7025 41.4369C53.3505 30.6823 65.5356 24.6764 71.3125 25.8311C75.0175 26.5717 72.7723 30.5846 70.0955 35.1261C69.3971 36.3111 68.7131 37.4034 68.098 38.3856C66.3559 41.1676 65.1674 43.0656 65.7732 43.6807C75.3754 34.4416 81.5494 33.4126 86.6944 33.4126C91.7888 33.4126 89.3927 37.0861 86.7723 41.1032L86.6944 41.2228C86.3146 41.805 85.9224 42.3814 85.5445 42.9366L85.5444 42.9368C84.0717 45.1005 82.8179 46.9427 83.3802 47.5567C88.917 43.6134 94.6494 42.6609 97.3429 43.2182C100.036 43.7755 100.828 44.9438 97.1107 50.6951L93.5576 56.0299C93.6106 56.1155 93.665 56.2031 93.7208 56.2928C94.9814 58.3207 96.9038 61.4131 96.9038 66.3402C96.9038 75.8697 89.8917 85.345 85.6019 89.9525C84.9426 90.6605 84.0128 91.0358 83.0454 91.0358H76.8006C75.7182 91.0358 74.8896 90.0963 74.8524 89.0145C74.5275 79.5448 64.0396 80.1377 56.8157 90.2264C56.4593 90.7241 55.8891 91.0358 55.277 91.0358H49.0311C48.0588 91.0358 47.1153 90.6588 46.4964 89.909C43.8061 86.6496 41.4213 81.6373 40.7948 79.4117C37.6399 84.286 28.9955 86.9666 22.8173 82.7956C15.481 77.8428 15.5289 69.4181 18.7011 64.2739L25.1475 67.9397C24.1989 71.6778 25.6041 74.2522 28.3024 74.2522C32.198 74.2524 33.7271 69.5273 35.9137 62.7705C37.892 56.6574 40.4085 48.8814 45.7025 41.4369ZM50.4245 68.284C52.5743 63.4246 52.5745 58.7145 50.4252 57.7636C48.2758 56.8128 44.7907 59.9812 42.641 64.8406C42.1053 66.0514 41.7031 67.2529 41.4344 68.3892H50.3776L50.4245 68.284ZM66.2619 57.7636C68.4113 58.7145 68.4111 63.4246 66.2613 68.284C66.2458 68.3191 66.2301 68.3542 66.2144 68.3892H57.2712C57.5399 67.2529 57.9421 66.0514 58.4777 64.8406C60.6275 59.9812 64.1126 56.8128 66.2619 57.7636Z" fill="#FFFFFF"/>
</svg>
