<svg width="40" height="40" viewBox="0 0 40 40" fill="none" xmlns="http://www.w3.org/2000/svg">
<circle cx="20" cy="20" r="20" fill="#CFD4E0"/>
<circle cx="20" cy="20" r="19.5" stroke="white" stroke-opacity="0.15"/>
<path fill-rule="evenodd" clip-rule="evenodd" d="M31.7447 36.1077C28.4269 38.5541 24.3261 40 19.8876 40C14.2388 40 9.13694 37.6581 5.5 33.8923C7.82744 33.2887 10.5921 32.5279 12.7311 31.9393C13.612 31.6969 14.3868 31.4837 14.9813 31.3227C15.3232 29.9477 15.52 28.2068 15.6949 26.6599C15.7256 26.3883 15.7556 26.1226 15.7856 25.866C15.6845 25.7139 15.5833 25.536 15.482 25.3582C15.3821 25.1825 15.2821 25.0069 15.1822 24.856C14.9813 24.3502 14.7803 23.4415 14.6798 22.4311C14.5793 22.3298 14.4788 22.2293 14.4788 22.3298C14.3783 22.8352 14.2778 23.1379 14.1773 23.2397C13.8754 23.4415 13.2724 22.6333 12.971 21.5216C12.7701 20.7818 12.5694 20.3109 12.3688 19.8401C12.2679 19.6034 12.167 19.3667 12.0661 19.0958C11.6641 17.9849 12.1666 17.1767 12.4681 17.1767C12.971 17.1767 13.3729 17.379 13.6744 17.7831C13.7749 17.8835 13.8754 17.7831 13.8754 17.7831L13.5739 16.1654C13.4734 16.065 13.4734 15.8627 13.4734 15.7614C13.3729 15.5591 13.3729 15.4586 13.3729 15.4586L13.2724 15.0545L13.3729 12.9328C13.3729 12.9328 13.8754 11.517 12.8705 10.1029C13.745 10.1029 13.9856 9.83704 14.7794 8.95955C15.0806 8.62667 15.4614 8.20577 15.9866 7.67797C17.3883 6.26821 18.1793 6.31766 19.8235 6.42044C20.0659 6.43559 20.3268 6.45191 20.611 6.46487C23.7271 6.46487 25.9388 5.55579 25.9388 5.55579C25.9388 5.55579 25.9388 7.27389 25.034 8.18255C26.0393 8.48614 28.1501 8.58664 28.1501 8.58664C28.1501 8.58664 27.0447 9.29431 26.3408 9.49657C27.1452 10.1029 28.7535 10.507 28.7535 10.507C28.7535 10.507 28.2506 11.0124 27.6477 11.1129L28.452 12.4269C28.452 12.4269 27.8486 12.4269 27.4467 12.2247C27.4467 12.2247 26.7428 13.9428 27.8486 14.9532C27.0447 15.5591 26.9438 16.6713 26.9438 17.379C26.9438 17.4795 27.0447 17.4795 27.1452 17.4795C27.3462 17.2772 27.5472 17.1767 27.8486 17.1767C28.1501 17.1767 28.5525 17.9849 28.2506 19.0958C28.1952 19.3191 28.155 19.5269 28.1154 19.732C28.0114 20.2704 27.911 20.7899 27.5472 21.5216C27.0447 22.6333 26.6423 23.4415 26.3408 23.2397C26.2403 23.2397 26.0393 22.6333 25.9388 22.1275C25.9388 22.0262 25.8384 22.1275 25.8384 22.2293C25.7374 23.3402 25.5365 24.3502 25.3355 24.9574C24.3301 27.5841 21.9178 29.7063 21.214 29.7063H19.4047C18.7062 29.7063 18.3111 29.2491 17.6925 28.5332C17.5988 28.4247 17.4998 28.3102 17.3939 28.1905C17.2935 28.09 17.0925 28.09 17.0925 28.1905C16.992 28.9986 16.992 29.9086 17.193 30.414C17.3939 31.1208 19.3042 31.929 20.2086 31.929H24.0286C25.1992 31.929 28.3408 33.9348 31.0634 35.6731C31.294 35.8204 31.5216 35.9657 31.7447 36.1077Z" fill="#92A1B2"/>
<path d="M39.5 20C39.5 30.7696 30.7696 39.5 20 39.5C9.23045 39.5 0.5 30.7696 0.5 20C0.5 9.23045 9.23045 0.5 20 0.5C30.7696 0.5 39.5 9.23045 39.5 20Z" stroke="#92A1B2" stroke-opacity="0.2"/>
</svg>
