<svg width="36" height="36" viewBox="0 0 36 36" fill="none" xmlns="http://www.w3.org/2000/svg">
    <rect width="36" height="36" rx="4" fill="none"/>
    <rect x="0.5" y="0.5" width="35" height="35" rx="3.5" stroke="white" stroke-opacity="0.15"/>
    <rect x="0.5" y="0.5" width="35" height="35" stroke="#92A1B2" stroke-opacity="0.2"/>
    <path fill-rule="evenodd" clip-rule="evenodd" d="M13.1108 12.731C15.4051 9.50469 19.0607 7.7029 20.7938 8.04934C21.9052 8.27152 21.2317 9.47537 20.4287 10.8378C20.2191 11.1933 20.0139 11.521 19.8294 11.8157C19.3068 12.6503 18.9502 13.2197 19.1319 13.4042C22.0126 10.6325 23.8648 10.3238 25.4083 10.3238C26.9366 10.3238 26.2178 11.4258 25.4317 12.631L25.4083 12.6668C25.2944 12.8415 25.1767 13.0144 25.0634 13.1809L25.0633 13.181C24.6215 13.8301 24.2454 14.3828 24.414 14.567C26.0751 13.384 27.7948 13.0983 28.6029 13.2655C29.4109 13.4326 29.6483 13.7831 28.5332 15.5085L27.4673 17.109L27.5162 17.1878C27.8944 17.7962 28.4711 18.7239 28.4711 20.202C28.4711 22.6939 26.8729 25.1735 25.6103 26.6843C25.0952 27.3007 24.3158 27.6107 23.5125 27.6107C22.6137 27.6107 22.0059 26.7798 21.6346 25.9613C20.9259 24.3992 18.6693 24.716 16.8671 26.8273C16.4697 27.2929 15.9093 27.6107 15.2972 27.6107H15.1725C14.2002 27.6107 13.249 27.2307 12.7328 26.4068C12.1987 25.5544 11.7764 24.6137 11.6384 24.1235C10.692 25.5858 8.09864 26.39 6.24519 25.1387C4.0443 23.6528 4.05868 21.1254 5.01033 19.5822L6.94424 20.6819C6.65966 21.8033 7.08122 22.5757 7.89072 22.5757C9.0594 22.5757 9.51813 21.1582 10.1741 19.1311C10.7676 17.2972 11.5225 14.9644 13.1108 12.731ZM14.5274 20.7852C15.1723 19.3274 15.1724 17.9144 14.5276 17.6291C13.8827 17.3439 12.8372 18.2944 12.1923 19.7522C12.0316 20.1155 11.911 20.4759 11.8303 20.8168H14.5133L14.5274 20.7852ZM19.2786 17.6291C19.9234 17.9144 19.9233 19.3274 19.2784 20.7852L19.2643 20.8168H16.5813C16.662 20.4759 16.7826 20.1155 16.9433 19.7522C17.5882 18.2944 18.6338 17.3439 19.2786 17.6291Z" fill="#FFFFFF"/>
</svg>
