<svg width="16" height="16" viewBox="0 0 16 16" fill="none" xmlns="http://www.w3.org/2000/svg">
<mask id="path-1-outside-1_198_7823" maskUnits="userSpaceOnUse" x="0.5" y="1.90002" width="15" height="13" fill="black">
<rect fill="white" x="0.5" y="1.90002" width="15" height="13"/>
<path fill-rule="evenodd" clip-rule="evenodd" d="M6.0495 5.35797C7.24782 3.67926 9.15706 2.74177 10.0622 2.92203C10.6427 3.03763 10.291 3.66401 9.87154 4.3729C9.76211 4.55786 9.65493 4.72837 9.55857 4.88167L9.55856 4.88169C9.2856 5.31594 9.09937 5.61221 9.19428 5.70823C10.6988 4.26606 11.6662 4.10544 12.4723 4.10544C13.2706 4.10544 12.8951 4.67884 12.4846 5.30589L12.4723 5.32456C12.4128 5.41544 12.3514 5.50541 12.2922 5.59207L12.2922 5.59209C12.0614 5.92984 11.865 6.21739 11.9531 6.31324C12.8206 5.69772 13.7188 5.54904 14.1408 5.63602C14.5629 5.72301 14.6868 5.90539 14.1044 6.80312L13.5477 7.63585L13.5733 7.67688C13.7708 7.99342 14.072 8.47612 14.072 9.2452C14.072 10.6576 13.0815 12.0624 12.406 12.8163C12.2389 13.0028 11.9968 13.1 11.7463 13.1H11.1302C10.8493 13.1 10.6406 12.853 10.5977 12.5753C10.4071 11.3423 8.92228 11.472 7.85046 12.8926C7.75497 13.0192 7.60802 13.1 7.44948 13.1H6.72615C6.47446 13.1 6.22906 13.0028 6.0774 12.802C5.6964 12.2974 5.37112 11.6062 5.28053 11.2856C4.7862 12.0464 3.43174 12.4648 2.46371 11.8138C1.31421 11.0407 1.32172 9.72564 1.81875 8.92267L2.82881 9.49487C2.68018 10.0784 2.90035 10.4802 3.32314 10.4802C3.93353 10.4802 4.17312 9.7427 4.51573 8.688C4.8257 7.7338 5.21999 6.52001 6.0495 5.35797ZM6.78895 9.54857C7.12578 8.79006 7.12582 8.05484 6.78904 7.90642C6.45227 7.758 5.9062 8.25257 5.56937 9.01109C5.48549 9.19998 5.42249 9.38743 5.38039 9.56472H6.78173L6.78895 9.54857ZM9.27097 7.90679C9.60775 8.05521 9.60771 8.79042 9.27088 9.54894L9.26366 9.56509H7.86232C7.90442 9.38779 7.96742 9.20035 8.0513 9.01145C8.38813 8.25294 8.9342 7.75836 9.27097 7.90679Z"/>
</mask>
<path fill-rule="evenodd" clip-rule="evenodd" d="M6.0495 5.35797C7.24782 3.67926 9.15706 2.74177 10.0622 2.92203C10.6427 3.03763 10.291 3.66401 9.87154 4.3729C9.76211 4.55786 9.65493 4.72837 9.55857 4.88167L9.55856 4.88169C9.2856 5.31594 9.09937 5.61221 9.19428 5.70823C10.6988 4.26606 11.6662 4.10544 12.4723 4.10544C13.2706 4.10544 12.8951 4.67884 12.4846 5.30589L12.4723 5.32456C12.4128 5.41544 12.3514 5.50541 12.2922 5.59207L12.2922 5.59209C12.0614 5.92984 11.865 6.21739 11.9531 6.31324C12.8206 5.69772 13.7188 5.54904 14.1408 5.63602C14.5629 5.72301 14.6868 5.90539 14.1044 6.80312L13.5477 7.63585L13.5733 7.67688C13.7708 7.99342 14.072 8.47612 14.072 9.2452C14.072 10.6576 13.0815 12.0624 12.406 12.8163C12.2389 13.0028 11.9968 13.1 11.7463 13.1H11.1302C10.8493 13.1 10.6406 12.853 10.5977 12.5753C10.4071 11.3423 8.92228 11.472 7.85046 12.8926C7.75497 13.0192 7.60802 13.1 7.44948 13.1H6.72615C6.47446 13.1 6.22906 13.0028 6.0774 12.802C5.6964 12.2974 5.37112 11.6062 5.28053 11.2856C4.7862 12.0464 3.43174 12.4648 2.46371 11.8138C1.31421 11.0407 1.32172 9.72564 1.81875 8.92267L2.82881 9.49487C2.68018 10.0784 2.90035 10.4802 3.32314 10.4802C3.93353 10.4802 4.17312 9.7427 4.51573 8.688C4.8257 7.7338 5.21999 6.52001 6.0495 5.35797ZM6.78895 9.54857C7.12578 8.79006 7.12582 8.05484 6.78904 7.90642C6.45227 7.758 5.9062 8.25257 5.56937 9.01109C5.48549 9.19998 5.42249 9.38743 5.38039 9.56472H6.78173L6.78895 9.54857ZM9.27097 7.90679C9.60775 8.05521 9.60771 8.79042 9.27088 9.54894L9.26366 9.56509H7.86232C7.90442 9.38779 7.96742 9.20035 8.0513 9.01145C8.38813 8.25294 8.9342 7.75836 9.27097 7.90679Z" fill="#2E2E2C"/>
<path d="M10.0622 2.92203L9.86693 3.90277L9.86693 3.90277L10.0622 2.92203ZM6.0495 5.35797L5.23559 4.77697L5.23559 4.77697L6.0495 5.35797ZM9.87154 4.3729L10.7322 4.8821L10.7322 4.8821L9.87154 4.3729ZM9.55857 4.88167L10.3755 5.45836L10.391 5.4365L10.4052 5.41385L9.55857 4.88167ZM9.55856 4.88169L8.74159 4.305L8.72617 4.32686L8.71193 4.34951L9.55856 4.88169ZM9.19428 5.70823L8.48311 6.41124L9.17539 7.11155L9.88627 6.43014L9.19428 5.70823ZM12.4846 5.30589L11.6479 4.75811L11.6479 4.75811L12.4846 5.30589ZM12.4723 5.32456L11.6357 4.77677L11.6357 4.77685L12.4723 5.32456ZM12.2922 5.59207L13.1091 6.16875L13.1136 6.1625L13.1179 6.15617L12.2922 5.59207ZM12.2922 5.59209L11.4752 5.01541L11.4708 5.02166L11.4665 5.02798L12.2922 5.59209ZM11.9531 6.31324L11.2168 6.98992L11.8131 7.6387L12.5317 7.12881L11.9531 6.31324ZM14.1044 6.80312L14.9358 7.35896L14.9434 7.34735L14.1044 6.80312ZM13.5477 7.63585L12.7164 7.08007L12.3576 7.61672L12.699 8.16462L13.5477 7.63585ZM13.5733 7.67688L12.7245 8.20565L12.7249 8.20628L13.5733 7.67688ZM12.406 12.8163L11.6612 12.149L11.6612 12.149L12.406 12.8163ZM10.5977 12.5753L11.5859 12.4226L11.5859 12.4226L10.5977 12.5753ZM7.85046 12.8926L8.64874 13.4949L8.64874 13.4949L7.85046 12.8926ZM6.0774 12.802L6.87546 12.1994L6.87546 12.1994L6.0774 12.802ZM5.28053 11.2856L6.24286 11.0137L5.64331 8.89174L4.44198 10.7408L5.28053 11.2856ZM2.46371 11.8138L1.90563 12.6436L1.90563 12.6436L2.46371 11.8138ZM1.81875 8.92267L2.31166 8.05259L1.47473 7.57847L0.968468 8.39635L1.81875 8.92267ZM2.82881 9.49487L3.79786 9.74172L3.98645 9.00137L3.32171 8.62479L2.82881 9.49487ZM3.32314 10.4802L3.32319 9.48022H3.32314V10.4802ZM4.51573 8.688L3.56465 8.37905L3.56465 8.37905L4.51573 8.688ZM6.78904 7.90642L7.19233 6.99134L7.19233 6.99134L6.78904 7.90642ZM6.78895 9.54857L7.70185 9.95677L7.70289 9.95442L6.78895 9.54857ZM5.56937 9.01109L6.48331 9.41694L6.48331 9.41694L5.56937 9.01109ZM5.38039 9.56472L4.40745 9.33365L4.11507 10.5647H5.38039V9.56472ZM6.78173 9.56472V10.5647H7.43L7.69462 9.97292L6.78173 9.56472ZM9.27088 9.54894L10.1838 9.95713L10.1848 9.95479L9.27088 9.54894ZM9.27097 7.90679L9.67426 6.99171L9.67426 6.99171L9.27097 7.90679ZM9.26366 9.56509V10.5651H9.91193L10.1766 9.97329L9.26366 9.56509ZM7.86232 9.56509L6.88938 9.33402L6.597 10.5651H7.86232V9.56509ZM8.0513 9.01145L7.13736 8.6056L7.13736 8.60561L8.0513 9.01145ZM10.2575 1.94128C9.82188 1.85453 9.36413 1.91505 8.9584 2.02587C8.53846 2.14057 8.09993 2.32954 7.67083 2.57398C6.81455 3.06175 5.92532 3.81075 5.23559 4.77697L6.8634 5.93897C7.372 5.22648 8.03655 4.66738 8.66077 4.3118C8.97191 4.13456 9.2553 4.01803 9.48537 3.95519C9.59962 3.92399 9.69189 3.90844 9.7614 3.9027C9.79564 3.89987 9.82172 3.89964 9.84017 3.9004C9.85873 3.90116 9.86715 3.90282 9.86693 3.90277L10.2575 1.94128ZM10.7322 4.8821C10.9161 4.57127 11.1983 4.1032 11.3094 3.67765C11.3661 3.46041 11.4327 3.06333 11.2346 2.65835C11.0096 2.1985 10.5894 2.00737 10.2575 1.94128L9.86693 3.90277C9.82534 3.89449 9.57882 3.82501 9.43805 3.53726C9.32413 3.30439 9.38538 3.12989 9.3743 3.1723C9.36844 3.19478 9.34324 3.26567 9.27173 3.40389C9.20362 3.53555 9.11673 3.68482 9.01089 3.86371L10.7322 4.8821ZM10.4052 5.41385C10.5009 5.26159 10.6149 5.08027 10.7322 4.8821L9.01089 3.86371C8.90927 4.03546 8.80896 4.19515 8.71193 4.3495L10.4052 5.41385ZM10.3755 5.45837L10.3755 5.45836L8.7416 4.30499L8.74159 4.305L10.3755 5.45837ZM9.90546 5.00521C10.2168 5.32015 10.1722 5.68942 10.1579 5.77133C10.1416 5.86484 10.1143 5.907 10.1364 5.86202C10.152 5.83017 10.1807 5.77803 10.23 5.69611C10.2783 5.61578 10.3356 5.52466 10.4052 5.41386L8.71193 4.34951C8.58775 4.54707 8.43821 4.78244 8.34058 4.98157C8.29382 5.07694 8.22067 5.23831 8.18762 5.42795C8.1566 5.60598 8.12432 6.04829 8.48311 6.41124L9.90546 5.00521ZM12.4723 3.10544C11.9864 3.10544 11.402 3.15575 10.7116 3.44252C10.0359 3.7232 9.3164 4.20596 8.5023 4.98631L9.88627 6.43014C10.5767 5.76832 11.0932 5.4497 11.4788 5.28953C11.8498 5.13544 12.1522 5.10544 12.4723 5.10544V3.10544ZM13.3212 5.85368C13.4193 5.70384 13.5387 5.52216 13.6381 5.34694C13.7294 5.18573 13.8558 4.94255 13.9114 4.67112C13.9708 4.38095 13.9786 3.85817 13.5376 3.46143C13.1812 3.14078 12.7339 3.10544 12.4723 3.10544V5.10544C12.5179 5.10544 12.5098 5.11013 12.4684 5.09942C12.4265 5.08857 12.3162 5.05285 12.1999 4.94823C12.072 4.83319 11.9911 4.68325 11.9583 4.53363C11.9293 4.40073 11.9453 4.30293 11.9521 4.26992C11.9623 4.22022 11.9677 4.23797 11.8982 4.36063C11.8366 4.46927 11.7551 4.59442 11.6479 4.75811L13.3212 5.85368ZM13.309 5.87234L13.3212 5.85367L11.6479 4.75811L11.6357 4.77677L13.309 5.87234ZM13.1179 6.15617C13.1762 6.07081 13.2432 5.97275 13.309 5.87226L11.6357 4.77685C11.5825 4.85812 11.5266 4.94 11.4665 5.02797L13.1179 6.15617ZM13.1091 6.16878L13.1091 6.16875L11.4752 5.01539L11.4752 5.01541L13.1091 6.16878ZM12.6893 5.63655C12.9944 5.96843 12.93 6.34214 12.9149 6.41385C12.8955 6.5062 12.8668 6.54902 12.8863 6.51232C12.9211 6.44674 12.9903 6.34297 13.1179 6.1562L11.4665 5.02798C11.3633 5.17896 11.2189 5.38783 11.1198 5.57443C11.0724 5.66381 10.9967 5.8176 10.9579 6.00138C10.9235 6.16453 10.8677 6.61012 11.2168 6.98992L12.6893 5.63655ZM14.3427 4.65661C13.927 4.57093 13.4297 4.61826 12.9555 4.74519C12.4593 4.87798 11.9087 5.11857 11.3744 5.49766L12.5317 7.12881C12.8649 6.89239 13.1972 6.75088 13.4725 6.67719C13.61 6.64039 13.7264 6.62237 13.8148 6.616C13.9088 6.60922 13.9477 6.61724 13.939 6.61544L14.3427 4.65661ZM14.9434 7.34735C15.102 7.10285 15.2358 6.87215 15.3304 6.65707C15.4176 6.45907 15.5181 6.17325 15.4972 5.85079C15.4712 5.45062 15.2683 5.11964 14.969 4.90991C14.7323 4.74405 14.477 4.68429 14.3427 4.65661L13.939 6.61544C14.0157 6.63126 13.9341 6.62691 13.8212 6.54777C13.7518 6.49913 13.6677 6.42067 13.6011 6.30471C13.5339 6.18771 13.5073 6.07207 13.5014 5.9803C13.4914 5.82652 13.5401 5.76006 13.4999 5.85146C13.4672 5.92578 13.3981 6.05453 13.2655 6.2589L14.9434 7.34735ZM14.3791 8.19163L14.9358 7.35891L13.2731 6.24734L12.7164 7.08007L14.3791 8.19163ZM14.422 7.14811L14.3965 7.10708L12.699 8.16462L12.7245 8.20565L14.422 7.14811ZM15.072 9.2452C15.072 8.18113 14.6391 7.4959 14.4217 7.14748L12.7249 8.20628C12.9025 8.49094 13.072 8.77111 13.072 9.2452H15.072ZM13.1508 13.4835C13.5272 13.0635 13.9954 12.4586 14.3745 11.7486C14.7496 11.046 15.072 10.1757 15.072 9.2452H13.072C13.072 9.72707 12.8992 10.2653 12.6102 10.8067C12.3251 11.3407 11.9603 11.8151 11.6612 12.149L13.1508 13.4835ZM11.7463 14.1C12.2505 14.1 12.7746 13.9035 13.1508 13.4835L11.6612 12.149C11.7033 12.1021 11.743 12.1 11.7463 12.1V14.1ZM11.1302 14.1H11.7463V12.1H11.1302V14.1ZM9.60942 12.7281C9.70029 13.316 10.1958 14.1 11.1302 14.1V12.1C11.3019 12.1 11.4296 12.1801 11.4959 12.2491C11.5553 12.3109 11.5782 12.3724 11.5859 12.4226L9.60942 12.7281ZM8.64874 13.4949C9.08098 12.922 9.49529 12.7507 9.65958 12.7333C9.72587 12.7263 9.69369 12.7468 9.63327 12.7008C9.56916 12.652 9.59272 12.62 9.60942 12.7281L11.5859 12.4226C11.5074 11.9141 11.2739 11.4359 10.8442 11.1091C10.4183 10.7851 9.91222 10.6955 9.4495 10.7444C8.55578 10.8388 7.69177 11.4426 7.05218 12.2903L8.64874 13.4949ZM7.44948 14.1C7.95389 14.1 8.38451 13.8451 8.64874 13.4949L7.05218 12.2903C7.12544 12.1932 7.26215 12.1 7.44948 12.1V14.1ZM6.72615 14.1H7.44948V12.1H6.72615V14.1ZM5.27934 13.4046C5.65923 13.9077 6.23224 14.1 6.72615 14.1V12.1C6.72673 12.1 6.74174 12.0998 6.76854 12.1117C6.7977 12.1246 6.83943 12.1517 6.87546 12.1994L5.27934 13.4046ZM4.31821 11.5575C4.44587 12.0093 4.83127 12.8111 5.27934 13.4046L6.87546 12.1994C6.72995 12.0067 6.58338 11.7614 6.46151 11.5217C6.33524 11.2733 6.26313 11.0854 6.24286 11.0137L4.31821 11.5575ZM1.90563 12.6436C2.66013 13.151 3.53438 13.2215 4.27107 13.0544C4.99131 12.8909 5.70199 12.4724 6.11908 11.8304L4.44198 10.7408C4.36474 10.8596 4.15102 11.0307 3.82844 11.1039C3.52231 11.1734 3.23531 11.1276 3.02179 10.984L1.90563 12.6436ZM0.968468 8.39635C0.250615 9.55605 0.218204 11.5087 1.90563 12.6436L3.02179 10.984C2.41021 10.5727 2.39282 9.89523 2.66904 9.449L0.968468 8.39635ZM3.32171 8.62479L2.31166 8.05259L1.32585 9.79276L2.3359 10.365L3.32171 8.62479ZM3.32314 9.48022C3.37916 9.48022 3.46804 9.49481 3.56215 9.55143C3.65668 9.6083 3.71765 9.68429 3.75069 9.74845C3.80942 9.86246 3.76103 9.88632 3.79786 9.74172L1.85975 9.24803C1.74795 9.68692 1.73534 10.2035 1.97269 10.6643C2.23772 11.1788 2.74666 11.4802 3.32314 11.4802V9.48022ZM3.56465 8.37905C3.38095 8.94458 3.26744 9.27888 3.14963 9.48697C3.09759 9.5789 3.08114 9.57689 3.11709 9.5498C3.1727 9.50791 3.25352 9.48021 3.32319 9.48022L3.3231 11.4802C4.1517 11.4803 4.63199 10.9282 4.89008 10.4723C5.13031 10.0479 5.30791 9.48612 5.46681 8.99696L3.56465 8.37905ZM5.23559 4.77697C4.30624 6.07889 3.87297 7.42993 3.56465 8.37905L5.46681 8.99696C5.77843 8.03767 6.13375 6.96113 6.8634 5.93897L5.23559 4.77697ZM6.38576 8.82149C6.17125 8.72696 6.081 8.56541 6.05455 8.50154C6.0309 8.44442 6.0416 8.43362 6.0416 8.49865C6.04159 8.62587 6.00036 8.86044 5.87501 9.14272L7.70289 9.95442C7.91437 9.47819 8.04157 8.96589 8.0416 8.49877C8.04161 8.26663 8.01023 7.99679 7.90239 7.73637C7.79176 7.4692 7.57523 7.16009 7.19233 6.99134L6.38576 8.82149ZM6.48331 9.41694C6.60862 9.13475 6.75529 8.94609 6.85053 8.85984C6.89918 8.81577 6.89923 8.83022 6.84226 8.85071C6.77888 8.87351 6.59978 8.91581 6.38576 8.82149L7.19233 6.99134C6.80992 6.82281 6.43627 6.87128 6.16526 6.96878C5.90066 7.06396 5.67999 7.22163 5.50793 7.37747C5.16172 7.69103 4.86695 8.12892 4.65543 8.60524L6.48331 9.41694ZM6.35332 9.79579C6.38052 9.68129 6.42322 9.55224 6.48331 9.41694L4.65543 8.60524C4.54775 8.84772 4.46447 9.09356 4.40745 9.33365L6.35332 9.79579ZM6.78173 8.56472H5.38039V10.5647H6.78173V8.56472ZM5.87605 9.14038L5.86883 9.15653L7.69462 9.97292L7.70184 9.95677L5.87605 9.14038ZM10.1848 9.95479C10.3963 9.47856 10.5235 8.96626 10.5235 8.49914C10.5235 8.267 10.4922 7.99716 10.3843 7.73673C10.2737 7.46956 10.0572 7.16046 9.67426 6.99171L8.86769 8.82186C8.65318 8.72732 8.56293 8.56578 8.53648 8.50191C8.51283 8.44478 8.52353 8.43399 8.52353 8.49902C8.52352 8.62624 8.48229 8.86081 8.35694 9.14309L10.1848 9.95479ZM10.1766 9.97329L10.1838 9.95713L8.35798 9.14074L8.35076 9.1569L10.1766 9.97329ZM7.86232 10.5651H9.26366V8.56509H7.86232V10.5651ZM7.13736 8.60561C7.02968 8.84808 6.9464 9.09393 6.88938 9.33402L8.83525 9.79616C8.86245 9.68166 8.90515 9.55261 8.96524 9.4173L7.13736 8.60561ZM9.67426 6.99171C9.29185 6.82318 8.9182 6.87165 8.64719 6.96914C8.38259 7.06433 8.16192 7.222 7.98986 7.37783C7.64365 7.69139 7.34888 8.12928 7.13736 8.6056L8.96524 9.4173C9.09055 9.13511 9.23722 8.94646 9.33245 8.86021C9.38111 8.81614 9.38116 8.83058 9.32419 8.85107C9.26081 8.87387 9.08171 8.91618 8.86769 8.82186L9.67426 6.99171Z" fill="white" mask="url(#path-1-outside-1_198_7823)"/>
</svg>
