<svg width="16" height="16" viewBox="0 0 16 16" fill="none" xmlns="http://www.w3.org/2000/svg">
<path fill-rule="evenodd" clip-rule="evenodd" d="M5.82143 9.49522V9.70951H4.25V9.49522C4.25 9.06128 4.60178 8.7095 5.03571 8.7095C5.46965 8.7095 5.82143 9.06128 5.82143 9.49522ZM2.75 9.49522C2.75 8.23285 3.77335 7.2095 5.03571 7.2095C6.29808 7.2095 7.32143 8.23285 7.32143 9.49522V9.7595H7.5C8.32843 9.7595 9 10.4311 9 11.2595V13.4024C9 14.2308 8.32843 14.9024 7.5 14.9024H2.5C1.67157 14.9024 1 14.2308 1 13.4024V11.2595C1 10.4311 1.67157 9.7595 2.5 9.7595H2.75V9.49522ZM2.5 11.2595H7.5V13.4024H2.5V11.2595Z" fill="currentColor"/>
<path fill-rule="evenodd" clip-rule="evenodd" d="M8 3.39047C7.58579 3.39047 7.25 3.72625 7.25 4.14046C7.25 4.55467 7.58579 4.89046 8 4.89046H14C14.4142 4.89046 14.75 4.55467 14.75 4.14046C14.75 3.72625 14.4142 3.39047 14 3.39047H8ZM11.75 11.0096C11.3358 11.0096 11 11.3453 11 11.7596V11.7596C11 12.1738 11.3358 12.5096 11.75 12.5096H14C14.4142 12.5096 14.75 12.1738 14.75 11.7596C14.75 11.3453 14.4142 11.0096 14 11.0096H11.75ZM10.2526 8.71278C9.83736 8.71421 9.5 8.37801 9.5 7.96279V7.96279C9.5 7.54959 9.83421 7.21423 10.2474 7.2128L14 7.19989C14.4142 7.19989 14.75 7.53568 14.75 7.94989C14.75 8.3641 14.4142 8.69988 14 8.69988L10.2526 8.71278Z" fill="currentColor"/>
<path fill-rule="evenodd" clip-rule="evenodd" d="M6.28033 2.41967C6.57322 2.71256 6.57322 3.18743 6.28033 3.48033L4.28033 5.48033C3.98744 5.77322 3.51256 5.77322 3.21967 5.48033L2.21967 4.48033C1.92678 4.18743 1.92678 3.71256 2.21967 3.41967C2.51256 3.12677 2.98744 3.12677 3.28033 3.41967L3.75 3.88934L5.21967 2.41967C5.51256 2.12677 5.98744 2.12677 6.28033 2.41967Z" fill="currentColor"/>
</svg>
