<svg width="16" height="16" viewBox="0 0 16 16" fill="none" xmlns="http://www.w3.org/2000/svg">
<path fill-rule="evenodd" clip-rule="evenodd" d="M2.75 9.48566C2.75 8.2233 3.77335 7.19995 5.03571 7.19995C6.29808 7.19995 7.32143 8.2233 7.32143 9.48566V9.74995H7.5C8.32843 9.74995 9 10.4215 9 11.25V13.3928C9 14.2212 8.32843 14.8928 7.5 14.8928H2.5C1.67157 14.8928 1 14.2212 1 13.3928V11.25C1 10.4215 1.67157 9.74995 2.5 9.74995H2.75V9.48566ZM5.82143 9.48566V9.69995H4.25V9.48566C4.25 9.05173 4.60178 8.69995 5.03571 8.69995C5.46965 8.69995 5.82143 9.05173 5.82143 9.48566ZM2.5 11.25H7.5V13.3928H2.5V11.25Z" fill="currentColor"/>
<path d="M1.05012 2.6C1.05012 1.99249 1.54398 1.5 2.15319 1.5H3.78233C4.14786 1.5 4.44417 1.79549 4.44417 2.16C4.44417 2.52451 4.14786 2.82 3.78233 2.82H2.3738L2.82095 6.04289H1.44229L1.5 6L1.05012 2.6Z" fill="currentColor"/>
<path d="M13.7771 11.4C13.7771 12.0075 13.2833 12.5 12.6741 12.5H11.0449C10.6794 12.5 10.3831 12.2045 10.3831 11.84C10.3831 11.4755 10.6794 11.18 11.0449 11.18L12.4535 11.18L12.2344 8.48172C12.2344 8.16327 12.5884 7.86057 12.8326 7.65175L13.5581 7.03121L12.8326 6.41066C12.5884 6.20184 12.2344 5.89914 12.2344 5.58069L12.4535 2.82L11.0449 2.82C10.6794 2.82 10.3831 2.52451 10.3831 2.16C10.3831 1.79549 10.6794 1.5 11.0449 1.5H12.6741C13.2833 1.5 13.7771 1.99249 13.7771 2.6L13.5581 5.47954L14.6151 6.19624C15.1284 6.63522 15.1284 7.42719 14.6151 7.86617L13.5581 8.58287L13.7771 11.4Z" fill="currentColor"/>
<path d="M1.05012 2.6C1.05012 1.99249 1.54398 1.5 2.15319 1.5H3.78233C4.14786 1.5 4.44417 1.79549 4.44417 2.16C4.44417 2.52451 4.14786 2.82 3.78233 2.82H2.3738L2.82095 6.04289H1.44229L1.5 6L1.05012 2.6Z" fill="currentColor"/>
</svg>
