<svg width="16" height="16" viewBox="0 0 16 16" fill="none" xmlns="http://www.w3.org/2000/svg">
<path fill-rule="evenodd" clip-rule="evenodd" d="M5.82143 9.49522V9.70951H4.25V9.49522C4.25 9.06128 4.60178 8.7095 5.03571 8.7095C5.46965 8.7095 5.82143 9.06128 5.82143 9.49522ZM2.75 9.49522C2.75 8.23285 3.77335 7.2095 5.03571 7.2095C6.29808 7.2095 7.32143 8.23285 7.32143 9.49522V9.7595H7.5C8.32843 9.7595 9 10.4311 9 11.2595V13.4024C9 14.2308 8.32843 14.9024 7.5 14.9024H2.5C1.67157 14.9024 1 14.2308 1 13.4024V11.2595C1 10.4311 1.67157 9.7595 2.5 9.7595H2.75V9.49522ZM2.5 11.2595H7.5V13.4024H2.5V11.2595Z" fill="currentColor"/>
<path d="M7.37868 5H13C13.8284 5 14.5 5.67157 14.5 6.5V11.5C14.5 12.3284 13.8284 13 13 13H11V14.5H13C14.6569 14.5 16 13.1569 16 11.5V6.5C16 4.84315 14.6569 3.5 13 3.5H8L7.37868 2.87868C6.81607 2.31607 6.05301 2 5.25736 2H4C2.34315 2 1 3.34315 1 5V6H2.5V5C2.5 4.17157 3.17157 3.5 4 3.5H5.25736C5.65518 3.5 6.03672 3.65804 6.31802 3.93934L7.37868 5Z" fill="currentColor"/>
</svg>
