<svg width="16" height="16" viewBox="0 0 16 16" fill="none" xmlns="http://www.w3.org/2000/svg">
<path d="M7.42508 1.24286C7.39562 1.17133 7.34397 1.10986 7.27689 1.06652C7.20981 1.02319 7.13044 1 7.04916 1C6.96789 1 6.88852 1.02319 6.82144 1.06652C6.75436 1.10986 6.70271 1.17133 6.67325 1.24286L5.72136 3.57724C5.48742 4.15474 5.39223 4.38026 5.25186 4.56768C5.11974 4.74019 4.95903 4.89146 4.77592 5.01566C4.57909 5.14823 4.34031 5.23813 3.72884 5.45907L1.25715 6.35808C1.1814 6.3859 1.11632 6.43468 1.07044 6.49804C1.02455 6.56139 1 6.63636 1 6.71311C1 6.78987 1.02455 6.86484 1.07044 6.92819C1.11632 6.99154 1.1814 7.04032 1.25715 7.06815L3.72884 7.96716C4.34031 8.1881 4.57909 8.278 4.77753 8.41057C4.96146 8.5345 5.11957 8.68433 5.25186 8.86007C5.39223 9.04597 5.48742 9.27148 5.72136 9.84898L6.67325 12.1834C6.70271 12.2549 6.75436 12.3164 6.82144 12.3597C6.88852 12.403 6.96789 12.4262 7.04916 12.4262C7.13044 12.4262 7.20981 12.403 7.27689 12.3597C7.34397 12.3164 7.39562 12.2549 7.42508 12.1834L8.37697 9.84898C8.61091 9.27148 8.7061 9.04597 8.84646 8.85855C8.97859 8.68603 9.1393 8.53477 9.32241 8.41057C9.51924 8.278 9.75802 8.1881 10.3695 7.96716L12.8412 7.06815C12.9169 7.04032 12.982 6.99154 13.0279 6.92819C13.0738 6.86484 13.0983 6.78987 13.0983 6.71311C13.0983 6.63636 13.0738 6.56139 13.0279 6.49804C12.982 6.43468 12.9169 6.3859 12.8412 6.35808L10.3695 5.45907C9.75802 5.23813 9.51924 5.14823 9.3208 5.01566C9.13813 4.89087 8.97797 4.73909 8.84646 4.56615C8.7061 4.38026 8.61091 4.15474 8.37697 3.57724L7.42508 1.24286ZM12.654 10.3518C12.6207 10.2882 12.5691 10.2347 12.5053 10.1973C12.4414 10.1599 12.3678 10.14 12.2926 10.14C12.2175 10.14 12.1438 10.1599 12.08 10.1973C12.0161 10.2347 11.9646 10.2882 11.9312 10.3518L11.5811 11.0162C11.5201 11.1459 11.4472 11.2703 11.3633 11.388C11.3137 11.4483 11.2562 11.5026 11.1923 11.5495C11.1278 11.5967 11.0503 11.6348 10.7986 11.7552L10.0952 12.0858C10.0279 12.1174 9.97121 12.166 9.93159 12.2263C9.89197 12.2866 9.87098 12.3562 9.87098 12.4272C9.87098 12.4981 9.89197 12.5677 9.93159 12.628C9.97121 12.6883 10.0279 12.737 10.0952 12.7685L10.7986 13.0991C11.0503 13.2195 11.1278 13.2576 11.1923 13.3048C11.2568 13.3506 11.3139 13.4044 11.3633 13.4664C11.4133 13.5273 11.4537 13.6004 11.5811 13.8382L11.9312 14.5025C11.9646 14.5661 12.0161 14.6196 12.08 14.657C12.1438 14.6945 12.2175 14.7143 12.2926 14.7143C12.3678 14.7143 12.4414 14.6945 12.5053 14.657C12.5691 14.6196 12.6207 14.5661 12.654 14.5025L13.0041 13.8382C13.1316 13.6004 13.1719 13.5273 13.2219 13.4664C13.2716 13.406 13.329 13.3517 13.393 13.3048C13.4575 13.2576 13.5349 13.2195 13.7866 13.0991L14.49 12.7685C14.5574 12.737 14.6141 12.6883 14.6537 12.628C14.6933 12.5677 14.7143 12.4981 14.7143 12.4272C14.7143 12.3562 14.6933 12.2866 14.6537 12.2263C14.6141 12.166 14.5574 12.1174 14.49 12.0858L13.7866 11.7552C13.6493 11.6976 13.5176 11.6287 13.393 11.5495C13.329 11.5026 13.2716 11.4483 13.2219 11.388C13.138 11.2703 13.0651 11.1459 13.0041 11.0162L12.654 10.3518Z" fill="currentColor" fill-opacity="0.85"/>
</svg>
