<svg width="18" height="18" viewBox="0 0 18 18" fill="none" xmlns="http://www.w3.org/2000/svg">
<g clip-path="url(#clip0_12801_60867)">
<path d="M14.625 11.25C15.0068 11.25 15.3413 11.5063 15.4402 11.8751C15.7013 12.8496 16.4004 13.5487 17.3749 13.8098C17.7436 13.9087 18 14.2432 18 14.625C18 15.0068 17.7436 15.3413 17.3749 15.4402C16.4004 15.7013 15.7013 16.4004 15.4402 17.3749C15.3413 17.7436 15.0068 18 14.625 18C14.2432 18 13.9087 17.7436 13.8098 17.3749C13.5487 16.4004 12.8496 15.7013 11.8751 15.4402C11.5063 15.3413 11.25 15.0068 11.25 14.625C11.25 14.2432 11.5063 13.9087 11.8751 13.8098C12.8496 13.5487 13.5487 12.8496 13.8098 11.8751L13.8582 11.7422C13.9937 11.4462 14.291 11.25 14.625 11.25ZM7.875 0C8.42494 -4.97298e-10 8.89421 0.397968 8.98462 0.940429C9.29775 2.81894 9.90075 4.09118 10.7798 4.97021C11.6588 5.84924 12.9311 6.45225 14.8096 6.76538C15.352 6.85579 15.75 7.32505 15.75 7.875C15.75 8.42494 15.352 8.89421 14.8096 8.98462C12.9311 9.29775 11.6588 9.90075 10.7798 10.7798C9.90075 11.6588 9.29775 12.9311 8.98462 14.8096C8.89421 15.352 8.42494 15.75 7.875 15.75C7.32505 15.75 6.85579 15.352 6.76538 14.8096C6.45225 12.9311 5.84924 11.6588 4.97021 10.7798C4.09118 9.90075 2.81894 9.29775 0.940429 8.98462C0.397968 8.89421 -4.97502e-10 8.42494 0 7.875C3.5437e-08 7.32505 0.397968 6.85579 0.940429 6.76538C2.81894 6.45225 4.09118 5.84924 4.97021 4.97021C5.84924 4.09118 6.45225 2.81894 6.76538 0.940429L6.78625 0.840454C6.91418 0.349577 7.35928 3.32317e-08 7.875 0Z" fill="url(#paint0_linear_12801_60867)"/>
</g>
<defs>
<linearGradient id="paint0_linear_12801_60867" x1="4.53" y1="10.1416" x2="16.2937" y2="5.66138" gradientUnits="userSpaceOnUse">
<stop stop-color="#5B82F6"/>
<stop offset="0.88123" stop-color="#DD68F7"/>
</linearGradient>
<clipPath id="clip0_12801_60867">
<rect width="18" height="18" fill="white"/>
</clipPath>
</defs>
</svg>
