<svg width="16" height="16" viewBox="0 0 16 16" fill="none" xmlns="http://www.w3.org/2000/svg">
<path d="M12.5303 5.03033C12.8232 4.73744 12.8232 4.26256 12.5303 3.96967C12.2374 3.67678 11.7626 3.67678 11.4697 3.96967L7.96967 7.46967C7.67678 7.76256 7.67678 8.23744 7.96967 8.53033L11.4697 12.0303C11.7626 12.3232 12.2374 12.3232 12.5303 12.0303C12.8232 11.7374 12.8232 11.2626 12.5303 10.9697L9.56066 8L12.5303 5.03033ZM7.53033 5.03033C7.82322 4.73744 7.82322 4.26256 7.53033 3.96967C7.23744 3.67678 6.76256 3.67678 6.46967 3.96967L2.96967 7.46967C2.67678 7.76256 2.67678 8.23744 2.96967 8.53033L6.46967 12.0303C6.76256 12.3232 7.23744 12.3232 7.53033 12.0303C7.82322 11.7374 7.82322 11.2626 7.53033 10.9697L4.56066 8L7.53033 5.03033Z" fill="currentColor"/>
</svg>
