<svg width="16" height="16" viewBox="0 0 16 16" fill="none" xmlns="http://www.w3.org/2000/svg">
<path d="M8 13.75C7.58579 13.75 7.25 13.4142 7.25 13L7.25 7.81066L6.03033 9.03033C5.73744 9.32322 5.26256 9.32322 4.96967 9.03033C4.67678 8.73744 4.67678 8.26256 4.96967 7.96967L7.46967 5.46967C7.54158 5.39776 7.62445 5.34351 7.71291 5.30691C7.80134 5.27024 7.89831 5.25 8 5.25C8.1025 5.25 8.2002 5.27056 8.2892 5.30779C8.3735 5.34297 8.45268 5.39422 8.52207 5.46153L8.53137 5.47071L11.0303 7.96967C11.3232 8.26256 11.3232 8.73744 11.0303 9.03033C10.7374 9.32322 10.2626 9.32322 9.96967 9.03033L8.75 7.81066L8.75 13C8.75 13.4142 8.41421 13.75 8 13.75ZM11.25 3.75C11.6642 3.75 12 3.41421 12 3C12 2.58579 11.6642 2.25 11.25 2.25H4.75C4.33579 2.25 4 2.58578 4 3C4 3.41421 4.33579 3.75 4.75 3.75H11.25Z" fill="currentColor"/>
</svg>
