<svg width="16" height="16" viewBox="0 0 16 16" fill="none" xmlns="http://www.w3.org/2000/svg">
<path fill-rule="evenodd" clip-rule="evenodd" d="M8 2.25C8.41421 2.25 8.75 2.58579 8.75 3L8.75 8.18934L9.96967 6.96967C10.2626 6.67678 10.7374 6.67678 11.0303 6.96967C11.3232 7.26256 11.3232 7.73744 11.0303 8.03033L8.53033 10.5303C8.45842 10.6022 8.37555 10.6565 8.28709 10.6931C8.19866 10.7298 8.10169 10.75 8 10.75C7.8975 10.75 7.7998 10.7294 7.7108 10.6922C7.6265 10.657 7.54732 10.6058 7.47793 10.5385L7.46863 10.5293L4.96967 8.03033C4.67678 7.73744 4.67678 7.26256 4.96967 6.96967C5.26256 6.67678 5.73744 6.67678 6.03033 6.96967L7.25 8.18934L7.25 3C7.25 2.58579 7.58579 2.25 8 2.25ZM4.75 12.25C4.33579 12.25 4 12.5858 4 13C4 13.4142 4.33579 13.75 4.75 13.75H11.25C11.6642 13.75 12 13.4142 12 13C12 12.5858 11.6642 12.25 11.25 12.25H4.75Z" fill="currentColor"/>
</svg>
