<svg width="16" height="16" viewBox="0 0 16 16" fill="none" xmlns="http://www.w3.org/2000/svg">
<path d="M8.75 6L8.75 11.1893L9.96967 9.96967C10.2626 9.67678 10.7374 9.67678 11.0303 9.96967C11.3232 10.2626 11.3232 10.7374 11.0303 11.0303L8.53033 13.5303C8.45842 13.6022 8.37555 13.6565 8.28709 13.6931C8.19866 13.7298 8.10169 13.75 8 13.75C7.8975 13.75 7.7998 13.7294 7.7108 13.6922C7.62719 13.6573 7.54861 13.6066 7.47963 13.5401L7.4685 13.5292L4.96967 11.0303C4.67678 10.7374 4.67678 10.2626 4.96967 9.96967C5.26256 9.67678 5.73744 9.67678 6.03033 9.96967L7.25 11.1893L7.25 6C7.25 5.58579 7.58579 5.25 8 5.25C8.41421 5.25 8.75 5.58579 8.75 6ZM11.25 3.75C11.6642 3.75 12 3.41421 12 3C12 2.58579 11.6642 2.25 11.25 2.25H4.75C4.33579 2.25 4 2.58579 4 3C4 3.41421 4.33579 3.75 4.75 3.75H11.25Z" fill="currentColor"/>
</svg>
