<svg width="16" height="16" viewBox="0 0 16 16" fill="none" xmlns="http://www.w3.org/2000/svg">
<path d="M11.3226 12.3833L7.71967 8.78033L3.6167 4.67736C2.9159 5.60043 2.5 6.75165 2.5 8C2.5 11.0376 4.96243 13.5 8 13.5C9.24835 13.5 10.3996 13.0841 11.3226 12.3833ZM12.3833 11.3226C13.0841 10.3996 13.5 9.24835 13.5 8C13.5 4.96243 11.0376 2.5 8 2.5C6.75165 2.5 5.60043 2.9159 4.67736 3.6167L8.78033 7.71967L12.3833 11.3226ZM15 8C15 11.866 11.866 15 8 15C4.13401 15 1 11.866 1 8C1 4.13401 4.13401 1 8 1C11.866 1 15 4.13401 15 8Z" fill="currentColor"/>
</svg>
