<svg width="16" height="16" viewBox="0 0 16 16" fill="none" xmlns="http://www.w3.org/2000/svg">
<path d="M5.25 5.49674C5.66421 5.49674 6 5.16095 6 4.74674V4.00001H10V4.75003C10 5.16425 10.3358 5.50003 10.75 5.50003C11.1642 5.50003 11.5 5.16425 11.5 4.75003V4.00001C12.3284 4.00001 13 4.67159 13 5.50001V6.50001H3V5.50001C3 4.67159 3.67157 4.00001 4.5 4.00001V4.74674C4.5 5.16095 4.83579 5.49674 5.25 5.49674ZM10 2.50001H6V1.74756C6 1.33334 5.66421 0.997559 5.25 0.997559C4.83579 0.997559 4.5 1.33334 4.5 1.74756V2.50001C2.84315 2.50001 1.5 3.84316 1.5 5.50001V11.5C1.5 13.1569 2.84315 14.5 4.5 14.5H11.5C13.1569 14.5 14.5 13.1569 14.5 11.5V5.50001C14.5 3.84316 13.1569 2.50001 11.5 2.50001V1.75001C11.5 1.3358 11.1642 1.00001 10.75 1.00001C10.3358 1.00001 10 1.3358 10 1.75001V2.50001ZM3 8.00001H13V11.5C13 12.3284 12.3284 13 11.5 13H4.5C3.67157 13 3 12.3284 3 11.5V8.00001Z" fill="currentColor"/>
</svg>
