<svg width="16" height="16" viewBox="0 0 16 16" fill="none" xmlns="http://www.w3.org/2000/svg">
<path d="M15.0303 1.46961C15.3232 1.7625 15.3232 2.23738 15.0303 2.53028L12.1105 5.45012C11.2336 6.32702 9.8783 6.50852 8.80157 5.89325L8.063 5.4712C7.54243 5.17373 6.88396 5.28779 6.49376 5.74302L4.56944 7.98806C4.29988 8.30256 3.8264 8.33898 3.51191 8.06941C3.19741 7.79985 3.16099 7.32637 3.43056 7.01187L5.35487 4.76683C6.21331 3.76532 7.66195 3.51439 8.80721 4.16883L9.54578 4.59087C10.0352 4.87054 10.6513 4.78804 11.0498 4.38945L13.9697 1.46961C14.2626 1.17672 14.7374 1.17672 15.0303 1.46961ZM15.1708 7.66456C15.3561 8.03505 15.2059 8.48555 14.8354 8.67079L11.6651 10.256C10.9416 10.6177 10.0955 10.6426 9.35196 10.3239L7.70036 9.61611C7.3121 9.44971 6.86606 9.49066 6.51458 9.72498L4.41603 11.124C4.07138 11.3538 3.60573 11.2607 3.37596 10.916C3.1462 10.5714 3.23933 10.1057 3.58397 9.87594L5.68253 8.4769C6.45578 7.9614 7.43706 7.87131 8.29124 8.23738L9.94284 8.94522C10.2808 9.09006 10.6654 9.07876 10.9943 8.91432L14.1646 7.32915C14.5351 7.1439 14.9856 7.29407 15.1708 7.66456ZM1.25 1.99992C1.66421 1.99992 2 2.3357 2 2.74992V12C2 12.2761 2.22386 12.5 2.5 12.5H14.75C15.1642 12.5 15.5 12.8358 15.5 13.25C15.5 13.6642 15.1642 14 14.75 14H2.5C1.39543 14 0.5 13.1045 0.5 12V2.74992C0.5 2.3357 0.835786 1.99992 1.25 1.99992Z" fill="currentColor"/>
</svg>
