<svg width="16" height="16" viewBox="0 0 16 16" fill="none" xmlns="http://www.w3.org/2000/svg">
<path d="M6.26756 2C6.61337 1.4022 7.25972 1 8 1C8.74028 1 9.38663 1.4022 9.73244 2H10C10.5523 2 11 2.44772 11 3H12C12.5523 3 13 3.44772 13 4V14C13 14.5523 12.5523 15 12 15H4C3.44772 15 3 14.5523 3 14V4C3 3.44772 3.44772 3 4 3H5C5 2.44772 5.44772 2 6 2H6.26756ZM8 5H6C5.62986 5 5.30669 4.7989 5.13378 4.5H4.5V13.5H11.5V4.5H10.8662C10.6933 4.7989 10.3701 5 10 5H8ZM10.75 8.23936C10.75 8.65358 10.4142 8.98936 10 8.98936H6C5.58579 8.98936 5.25 8.65358 5.25 8.23936C5.25 7.82515 5.58579 7.48936 6 7.48936H10C10.4142 7.48936 10.75 7.82515 10.75 8.23936ZM10 11.9894C10.4142 11.9894 10.75 11.6536 10.75 11.2394C10.75 10.8252 10.4142 10.4894 10 10.4894H6C5.58579 10.4894 5.25 10.8252 5.25 11.2394C5.25 11.6536 5.58579 11.9894 6 11.9894H10Z" fill="currentColor"/>
</svg>
