<svg width="16" height="16" viewBox="0 0 16 16" fill="none" xmlns="http://www.w3.org/2000/svg">
<path d="M12 2.5C12.8284 2.5 13.5 3.17157 13.5 4V8C13.5 8.82843 12.8284 9.5 12 9.5H11V8C11 6.34315 9.65685 5 8 5H6.5V4C6.5 3.17157 7.17157 2.5 8 2.5H12ZM11 11H12C13.6569 11 15 9.65685 15 8V4C15 2.34315 13.6569 1 12 1H8C6.34315 1 5 2.34315 5 4V5H4C2.34315 5 1 6.34315 1 8V12C1 13.6569 2.34315 15 4 15H8C9.65685 15 11 13.6569 11 12V11ZM4 6.5H8C8.82843 6.5 9.5 7.17157 9.5 8V12C9.5 12.8284 8.82843 13.5 8 13.5H4C3.17157 13.5 2.5 12.8284 2.5 12V8C2.5 7.17157 3.17157 6.5 4 6.5Z" fill="currentColor"/>
</svg>
