<svg width="16" height="16" viewBox="0 0 16 16" fill="none" xmlns="http://www.w3.org/2000/svg">
<path d="M4.5 6.25C4.5 4.45507 5.95507 3 7.75 3C8.94219 3 9.98551 3.64235 10.5511 4.60037C9.63146 4.79794 8.81601 5.27649 8.2001 5.94058C7.91843 6.24428 7.93629 6.71882 8.23999 7.00049C8.54369 7.28216 9.01823 7.2643 9.2999 6.9606C9.8488 6.36876 10.6308 6 11.5001 6C11.5169 6 11.5336 5.99945 11.5502 5.99835C11.5667 5.99999 11.5833 6.00109 11.6001 6.00163C13.2103 6.05416 14.5 7.37662 14.5 9C14.5 10.6568 13.1569 12 11.5 12H11.5H11.5H3.75242L3.75077 12H3.75C2.50736 12 1.5 10.9926 1.5 9.75C1.5 8.50795 2.50641 7.50095 3.74823 7.5L3.77718 7.50015C3.99293 7.50124 4.19869 7.40936 4.34191 7.248C4.48512 7.08664 4.5519 6.87141 4.5252 6.65732C4.50859 6.5242 4.5 6.38827 4.5 6.25ZM7.75 1.5C5.18545 1.5 3.09558 3.53238 3.00319 6.07437C1.28992 6.42059 0 7.93466 0 9.75C0 11.8211 1.67893 13.5 3.75 13.5L3.75165 13.5H3.75242H11.5H11.5H11.5H11.5C13.9853 13.5 16 11.4853 16 9C16 6.74841 14.3466 4.88327 12.1874 4.55221C11.5041 2.76768 9.77587 1.5 7.75 1.5Z" fill="currentColor"/>
</svg>
