<svg width="16" height="16" viewBox="0 0 16 16" fill="none" xmlns="http://www.w3.org/2000/svg">
<path d="M4.78778 3.12128C4.62489 3.04353 4.44253 3 4.25 3C3.55964 3 3 3.55964 3 4.25C3 4.49185 3.06868 4.71766 3.18761 4.90898C3.40816 5.26379 3.80149 5.5 4.25 5.5C4.94035 5.5 5.5 4.94036 5.5 4.25C5.5 3.75217 5.20898 3.32232 4.78778 3.12128ZM3.5 6.89648C3.47729 6.89006 3.4547 6.88335 3.43223 6.87637C2.3128 6.52818 1.5 5.48401 1.5 4.25C1.5 2.73122 2.73122 1.5 4.25 1.5C4.89934 1.5 5.49613 1.72506 5.96659 2.10143C6.36615 2.42107 6.6746 2.84984 6.84677 3.34257L8.21945 1.96989C8.51234 1.677 8.98744 1.67678 9.28033 1.96967C9.29024 1.97958 9.29981 1.98969 9.30904 2C9.57289 2.29448 9.56332 2.74734 9.28033 3.03033L8.81066 3.5H9.50001C9.58802 3.5 9.67513 3.50379 9.76121 3.51121C10.0694 3.53779 10.3643 3.61097 10.6387 3.72366C11.7309 4.17208 12.5 5.24622 12.5 6.5V9.10351C12.5227 9.10993 12.5453 9.11665 12.5678 9.12363C13.6872 9.47182 14.5 10.516 14.5 11.75C14.5 13.2688 13.2688 14.5 11.75 14.5C10.2312 14.5 9 13.2688 9 11.75C9 11.7441 9.00002 11.7381 9.00006 11.7322C9.00798 10.4812 9.85119 9.42844 11 9.10352V6.5C11 6.4235 10.9943 6.34835 10.9832 6.27493C10.8861 5.62905 10.377 5.11804 9.73215 5.01785C9.65649 5.0061 9.57896 5 9.50001 5L8.81066 5L9.28033 5.46967C9.56332 5.75266 9.57289 6.20552 9.30904 6.5C9.29981 6.51031 9.29024 6.52042 9.28033 6.53033C8.98744 6.82322 8.51256 6.82322 8.21967 6.53033L6.84677 5.15743C6.82749 5.21258 6.80651 5.26694 6.78389 5.32042C6.6044 5.74478 6.32142 6.11471 5.96659 6.39857C5.68451 6.62424 5.35701 6.79551 5 6.89648V9.10352C5.02271 9.10994 5.0453 9.11665 5.06777 9.12363C6.18721 9.47182 7 10.516 7 11.75C7 13.2688 5.76878 14.5 4.25 14.5C2.73122 14.5 1.5 13.2688 1.5 11.75C1.5 10.4912 2.34575 9.42998 3.5 9.10352V6.89648ZM3.18761 11.091C3.07347 11.2749 3.00568 11.4903 3.00034 11.7205C3.00011 11.7303 3 11.7402 3 11.75C3 11.7931 3.00219 11.8358 3.00645 11.8778C3.07047 12.5081 3.60279 13 4.25 13C4.94036 13 5.5 12.4404 5.5 11.75C5.5 11.5082 5.43132 11.2823 5.31239 11.091C5.09184 10.7362 4.69851 10.5 4.25 10.5C3.80149 10.5 3.40816 10.7362 3.18761 11.091ZM10.6876 11.091C10.5735 11.2749 10.5057 11.4903 10.5003 11.7205C10.5001 11.7303 10.5 11.7402 10.5 11.75C10.5 11.7931 10.5022 11.8358 10.5065 11.8778C10.5705 12.5081 11.1028 13 11.75 13C12.4404 13 13 12.4404 13 11.75C13 11.5082 12.9313 11.2823 12.8124 11.091C12.5918 10.7362 12.1985 10.5 11.75 10.5C11.3015 10.5 10.9082 10.7362 10.6876 11.091Z" fill="currentColor"/>
</svg>
