<svg width="16" height="16" viewBox="0 0 16 16" fill="none" xmlns="http://www.w3.org/2000/svg">
<path d="M5.31239 4.90898C5.09184 5.26379 4.69851 5.5 4.25 5.5C3.80149 5.5 3.40816 5.26379 3.18761 4.90898C3.07111 4.72155 3.00282 4.50103 3.00009 4.26475C3.00003 4.25984 3 4.25492 3 4.25C3 3.60279 3.49188 3.07047 4.1222 3.00645C4.16422 3.00219 4.20685 3 4.25 3C4.94036 3 5.5 3.55964 5.5 4.25C5.5 4.49185 5.43132 4.71766 5.31239 4.90898ZM3.18761 11.091C3.40816 10.7362 3.80149 10.5 4.25 10.5C4.94036 10.5 5.5 11.0596 5.5 11.75C5.5 12.1985 5.26379 12.5918 4.90898 12.8124C4.72513 12.9265 4.50971 12.9943 4.27946 12.9997C4.26967 12.9999 4.25985 13 4.25 13C3.55964 13 3 12.4404 3 11.75C3 11.5081 3.06868 11.2823 3.18761 11.091ZM5 9.10352V6.89648C6.15425 6.57002 7 5.50878 7 4.25C7 2.73122 5.76878 1.5 4.25 1.5C2.73122 1.5 1.5 2.73122 1.5 4.25C1.5 5.48401 2.3128 6.52818 3.43223 6.87637C3.4547 6.88335 3.47729 6.89006 3.5 6.89648V9.10352C2.34575 9.42998 1.5 10.4912 1.5 11.75C1.5 13.1739 2.58212 14.345 3.96883 14.4858C4.06128 14.4952 4.15508 14.5 4.25 14.5C5.48401 14.5 6.52818 13.6872 6.87637 12.5678C6.88335 12.5453 6.89006 12.5227 6.89648 12.5H9.5C11.1504 12.5 12.4895 11.1673 12.4999 9.5194C12.5 9.51294 12.5 9.50647 12.5 9.5V6.89648C13.6543 6.57002 14.5 5.50878 14.5 4.25C14.5 2.73122 13.2688 1.5 11.75 1.5C10.2312 1.5 9 2.73122 9 4.25C9 5.48401 9.8128 6.52818 10.9322 6.87636C10.9547 6.88335 10.9773 6.89006 11 6.89648V9.5C11 10.3284 10.3284 11 9.5 11H6.89648C6.64388 10.1069 5.95134 9.39845 5.06777 9.12363C5.0453 9.11665 5.02271 9.10994 5 9.10352ZM12.8124 4.90898C12.5918 5.26379 12.1985 5.5 11.75 5.5C11.3015 5.5 10.9082 5.26379 10.6876 4.90898C10.5687 4.71766 10.5 4.49185 10.5 4.25C10.5 3.55964 11.0596 3 11.75 3C12.4404 3 13 3.55964 13 4.25C13 4.49185 12.9313 4.71766 12.8124 4.90898Z" fill="currentColor"/>
</svg>
