<svg width="16" height="16" viewBox="0 0 16 16" fill="none" xmlns="http://www.w3.org/2000/svg">
<g clip-path="url(#clip0_3486_121974)">
<path d="M7.19875 2.00012C7.08898 2.00012 6.99999 2.08911 6.99999 2.19889C6.99999 4.00745 5.04216 5.13778 3.47591 4.23351C3.38084 4.17862 3.25926 4.2112 3.20438 4.30626L2.40313 5.69407C2.34825 5.78912 2.38082 5.91066 2.47587 5.96554C4.04211 6.86981 4.04211 9.13048 2.47587 10.0348C2.38082 10.0896 2.34825 10.2112 2.40313 10.3062L3.20438 11.694C3.25926 11.7891 3.38083 11.8217 3.47592 11.7668C5.04213 10.8625 6.99999 11.9928 6.99999 13.8014C6.99999 13.9111 7.08897 14.0001 7.19873 14.0001H8.8013C8.91103 14.0001 8.99999 13.9112 8.99999 13.8014C8.99999 11.9929 10.9578 10.8626 12.524 11.7668C12.619 11.8217 12.7405 11.7891 12.7954 11.6941L13.5967 10.3062C13.6516 10.2112 13.619 10.0896 13.524 10.0348C11.9577 9.13048 11.9577 6.86981 13.524 5.96554C13.619 5.91066 13.6516 5.78912 13.5967 5.69407L12.7954 4.30619C12.7405 4.21116 12.619 4.1786 12.524 4.23346C10.9577 5.13775 8.99999 4.00734 8.99999 2.19886C8.99999 2.08909 8.911 2.00012 8.80127 2.00012H7.19875ZM5.49999 2.19889C5.49999 1.26069 6.26055 0.500122 7.19875 0.500122H8.80127C9.73945 0.500122 10.5 1.26068 10.5 2.19886C10.5 2.85268 11.2078 3.26134 11.774 2.93443C12.5865 2.46535 13.6254 2.74372 14.0944 3.55619L14.8957 4.94407C15.3648 5.75656 15.0865 6.79548 14.274 7.26458C13.7077 7.5915 13.7077 8.4088 14.274 8.73572C15.0865 9.20481 15.3648 10.2437 14.8957 11.0562L14.0944 12.4441C13.6254 13.2566 12.5865 13.5349 11.774 13.0659C11.2078 12.739 10.5 13.1476 10.5 13.8014C10.5 14.7396 9.73946 15.5001 8.8013 15.5001H7.19873C6.26054 15.5001 5.49999 14.7396 5.49999 13.8014C5.49999 13.1475 4.79217 12.7389 4.22592 13.0658C3.41341 13.5349 2.37444 13.2565 1.90534 12.444L1.10409 11.0562C0.635 10.2437 0.913379 9.20481 1.72587 8.73572C2.29211 8.4088 2.29211 7.5915 1.72587 7.26457C0.91338 6.79548 0.635 5.75656 1.10409 4.94407L1.90534 3.55626C2.37444 2.74375 3.4134 2.46537 4.22591 2.93447C4.79217 3.2614 5.49999 2.85274 5.49999 2.19889ZM9.49996 8.00012C9.49996 8.82855 8.82839 9.50012 7.99996 9.50012C7.17154 9.50012 6.49996 8.82855 6.49996 8.00012C6.49996 7.17169 7.17154 6.50012 7.99996 6.50012C8.82839 6.50012 9.49996 7.17169 9.49996 8.00012ZM11 8.00012C11 6.34327 9.65682 5.00012 7.99996 5.00012C6.34311 5.00012 4.99996 6.34327 4.99996 8.00012C4.99996 9.65698 6.34311 11.0001 7.99996 11.0001C9.65682 11.0001 11 9.65698 11 8.00012Z" fill="currentColor"/>
</g>
<defs>
<clipPath id="clip0_3486_121974">
<rect width="16" height="16" fill="white"/>
</clipPath>
</defs>
</svg>
