<svg width="16" height="16" viewBox="0 0 16 16" fill="none" xmlns="http://www.w3.org/2000/svg">
<path d="M9.99996 2.5C9.99996 2.08579 9.66418 1.75 9.24997 1.75C8.83575 1.75 8.49997 2.08579 8.49997 2.5V6.74264C8.49997 7.15685 8.83575 7.49264 9.24997 7.49264L13.4926 7.49264C13.9068 7.49264 14.2426 7.15685 14.2426 6.74264C14.2426 6.32843 13.9068 5.99264 13.4926 5.99264H9.99997L9.99996 2.5ZM5.99997 13.5C5.99997 13.9142 6.33575 14.25 6.74997 14.25C7.16418 14.25 7.49997 13.9142 7.49997 13.5V9.25736C7.49997 9.05845 7.42095 8.86768 7.2803 8.72703C7.13964 8.58638 6.94888 8.50736 6.74996 8.50736L2.50732 8.50736C2.09311 8.50736 1.75732 8.84315 1.75732 9.25736C1.75732 9.67157 2.09311 10.0074 2.50732 10.0074H5.99997V13.5Z" fill="currentColor"/>
</svg>
