<svg width="16" height="16" viewBox="0 0 16 16" fill="none" xmlns="http://www.w3.org/2000/svg">
<path d="M8.75 2C8.75 1.58579 8.41421 1.25 8 1.25C7.58579 1.25 7.25 1.58579 7.25 2L7.25 9.18934L6.03033 7.96967C5.73744 7.67678 5.26256 7.67678 4.96967 7.96967C4.67678 8.26256 4.67678 8.73744 4.96967 9.03033L7.46967 11.5303C7.76256 11.8232 8.23744 11.8232 8.53033 11.5303L11.0303 9.03033C11.3232 8.73744 11.3232 8.26256 11.0303 7.96967C10.7374 7.67678 10.2626 7.67678 9.96967 7.96967L8.75 9.18934L8.75 2ZM5 4.75C5 4.33579 4.66421 4 4.25 4H4C2.34315 4 1 5.34315 1 7V12C1 13.6569 2.34315 15 4 15H12C13.6569 15 15 13.6569 15 12V7C15 5.34315 13.6569 4 12 4H11.75C11.3358 4 11 4.33579 11 4.75C11 5.16421 11.3358 5.5 11.75 5.5H12C12.8284 5.5 13.5 6.17157 13.5 7V12C13.5 12.8284 12.8284 13.5 12 13.5H4C3.17157 13.5 2.5 12.8284 2.5 12V7C2.5 6.17157 3.17157 5.5 4 5.5H4.25C4.66421 5.5 5 5.16421 5 4.75Z" fill="currentColor"/>
</svg>
