<svg width="16" height="14" viewBox="0 0 16 14" fill="none" xmlns="http://www.w3.org/2000/svg">
<path d="M9.29905 2.25C8.7217 1.25 7.27832 1.25 6.70097 2.25L2.37084 9.75C1.79349 10.75 2.51518 12 3.66988 12H12.3301C13.4848 12 14.2065 10.75 13.6292 9.75L9.29905 2.25ZM5.40193 1.5C6.55663 -0.499999 9.44338 -0.5 10.5981 1.5L14.9282 9C16.0829 11 14.6395 13.5 12.3301 13.5H3.66988C1.36048 13.5 -0.0828959 11 1.0718 9L5.40193 1.5ZM8.00001 3.75C8.41422 3.75 8.75001 4.08579 8.75001 4.5V6.5C8.75001 6.91421 8.41422 7.25 8.00001 7.25C7.58579 7.25 7.25001 6.91421 7.25001 6.5V4.5C7.25001 4.08579 7.58579 3.75 8.00001 3.75ZM9.00001 9.5C9.00001 10.0523 8.55229 10.5 8.00001 10.5C7.44772 10.5 7.00001 10.0523 7.00001 9.5C7.00001 8.94771 7.44772 8.5 8.00001 8.5C8.55229 8.5 9.00001 8.94771 9.00001 9.5Z" fill="currentColor"/>
</svg>
