<svg width="16" height="16" viewBox="0 0 16 16" fill="none" xmlns="http://www.w3.org/2000/svg">
<path d="M8.00369 2.50366C7.58947 2.50366 7.25369 2.83945 7.25369 3.25366C7.25369 3.66788 7.58947 4.00366 8.00369 4.00366L12.0037 4.00366L12.0037 7.99634C12.0037 8.41055 12.3395 8.74634 12.7537 8.74634C13.1679 8.74633 13.5037 8.41055 13.5037 7.99633L13.5037 3.25366C13.5037 2.83945 13.1679 2.50366 12.7537 2.50366H8.00369ZM7.99638 13.4963C8.41059 13.4963 8.74638 13.1605 8.74637 12.7463C8.74637 12.3321 8.41059 11.9963 7.99637 11.9963L3.99634 11.9963L3.99634 8.00371C3.99634 7.5895 3.66055 7.25371 3.24634 7.25371C2.83212 7.25371 2.49634 7.5895 2.49634 8.00371V12.7463C2.49634 12.9452 2.57536 13.136 2.71601 13.2766C2.85666 13.4173 3.04743 13.4963 3.24634 13.4963L7.99638 13.4963Z" fill="currentColor"/>
</svg>
