<svg width="16" height="16" viewBox="0 0 16 16" fill="none" xmlns="http://www.w3.org/2000/svg">
<path d="M1.87013 8.51519L1.64121 8.00013L1.86998 7.48539C2.64981 5.73078 4.14416 4.39447 5.97467 3.81481C7.29247 3.39751 8.707 3.39751 10.0248 3.81481C11.8553 4.39447 13.3497 5.73078 14.1295 7.48539L14.3583 8.00012L14.1293 8.51519C13.3496 10.2696 11.8554 11.6059 10.0251 12.1856C8.70713 12.603 7.29234 12.603 5.97434 12.1856C4.14404 11.6059 2.64988 10.2696 1.87013 8.51519ZM0.499263 6.87618L0.23947 7.46072C0.0868431 7.80413 0.0868434 8.19612 0.23947 8.53954L0.499411 9.1244C1.45353 11.2712 3.28182 12.9062 5.52142 13.6156C7.13415 14.1264 8.86532 14.1264 10.478 13.6156C12.7176 12.9062 14.5459 11.2712 15.5001 9.1244L15.76 8.53953C15.9126 8.19612 15.9126 7.80413 15.76 7.46072L15.5002 6.87618C14.546 4.72921 12.7175 3.09408 10.4776 2.38479C8.86516 1.87418 7.13431 1.87418 5.52184 2.38479C3.28199 3.09408 1.45347 4.72921 0.499263 6.87618ZM9.49973 8.00003C9.49973 7.1716 8.82816 6.50003 7.99973 6.50003C7.17131 6.50003 6.49973 7.1716 6.49973 8.00003C6.49973 8.82846 7.17131 9.50003 7.99973 9.50003C8.82816 9.50003 9.49973 8.82846 9.49973 8.00003ZM10.9997 8.00003C10.9997 9.65688 9.65659 11 7.99973 11C6.34288 11 4.99973 9.65688 4.99973 8.00003C4.99973 6.34317 6.34288 5.00003 7.99973 5.00003C9.65659 5.00003 10.9997 6.34317 10.9997 8.00003Z" fill="currentColor"/>
</svg>
