<svg width="16" height="16" viewBox="0 0 16 16" fill="none" xmlns="http://www.w3.org/2000/svg">
<path fill-rule="evenodd" clip-rule="evenodd" d="M14.2858 9.0748C14.5714 8.78321 14.5714 8.31678 14.2858 8.0252L11.9841 5.6752C11.6942 5.37928 11.2194 5.37436 10.9235 5.66419C10.6275 5.95403 10.6226 6.42888 10.9125 6.7248L11.9166 7.75L5.99884 7.75C5.58462 7.75 5.24884 8.08579 5.24884 8.5C5.24884 8.91421 5.58462 9.25 5.99884 9.25L12.0145 9.25L10.9125 10.3752C10.6226 10.6711 10.6275 11.146 10.9235 11.4358C11.2194 11.7256 11.6942 11.7207 11.9841 11.4248L14.2858 9.0748ZM9.25 5C9.66421 5 10 4.66421 10 4.25L10 4C10 2.34315 8.65685 1 7 1L4.5 1C2.84315 0.999999 1.5 2.34315 1.5 4L1.5 12C1.5 13.6569 2.84315 15 4.5 15L7 15C8.65685 15 10 13.6569 10 12L10 11.75C10 11.3358 9.66421 11 9.25 11C8.83579 11 8.5 11.3358 8.5 11.75L8.5 12C8.5 12.8284 7.82843 13.5 7 13.5L4.5 13.5C3.67157 13.5 3 12.8284 3 12L3 4C3 3.17157 3.67157 2.5 4.5 2.5L7 2.5C7.82843 2.5 8.5 3.17157 8.5 4L8.5 4.25C8.5 4.66421 8.83579 5 9.25 5Z" fill="currentColor"/>
</svg>
