<svg width="16" height="16" viewBox="0 0 16 16" fill="none" xmlns="http://www.w3.org/2000/svg">
<path d="M12.5 4C12.5 3.82575 12.4288 3.48711 11.6152 3.11248C10.7988 2.73654 9.53779 2.5 8 2.5C6.46221 2.5 5.20116 2.73654 4.38478 3.11248C3.57123 3.48711 3.5 3.82575 3.5 4C3.5 4.17425 3.57123 4.51289 4.38478 4.88752C5.20116 5.26346 6.46221 5.5 8 5.5C9.53779 5.5 10.7988 5.26346 11.6152 4.88752C12.4288 4.51289 12.5 4.17425 12.5 4ZM11.0523 6.66064C10.158 6.88688 9.1145 7 8 7C6.8855 7 5.84197 6.88688 4.94774 6.66064L6.92787 9.56483C7.13774 9.87265 7.25 10.2366 7.25 10.6091V13.9791C7.30971 13.9909 7.3912 14 7.5 14C7.92245 14 8.24896 13.8593 8.44974 13.6836C8.63491 13.5216 8.75 13.3034 8.75 13V10.6091C8.75 10.2366 8.86226 9.87265 9.07213 9.56483L11.0523 6.66064ZM8 1C11.3137 1 14 2 14 4C14 4.65152 13.8037 5.28792 13.4367 5.82623L10.3115 10.4098C10.2714 10.4686 10.25 10.538 10.25 10.6091V13C10.25 14.5 9 15.5 7.5 15.5C6 15.5 5.75 14.5 5.75 14.5V10.6091C5.75 10.538 5.72858 10.4686 5.68852 10.4098L2.56334 5.82623C2.19631 5.28792 2 4.65152 2 4C2 2 4.68629 1 8 1ZM7.12017 13.9364C7.11048 13.9308 7.10649 13.927 7.10691 13.9265C7.10733 13.926 7.11217 13.9289 7.12017 13.9364Z" fill="currentColor"/>
</svg>
