<svg width="16" height="16" viewBox="0 0 16 16" fill="none" xmlns="http://www.w3.org/2000/svg">
<path d="M3.46967 6.53033C3.76256 6.23744 4.23743 6.23744 4.53033 6.53033C4.82322 6.82323 4.82322 7.2981 4.53033 7.59099L3.8033 8.31802C3.28896 8.83236 3 9.52997 3 10.2574C3 11.7721 4.22792 13 5.74264 13C6.47004 13 7.16764 12.711 7.68198 12.1967L8.409 11.4697C8.70189 11.1768 9.17677 11.1768 9.46966 11.4697C9.76255 11.7626 9.76255 12.2374 9.46966 12.5303L8.74264 13.2574C7.94699 14.053 6.86786 14.5 5.74264 14.5C3.3995 14.5 1.5 12.6005 1.5 10.2574C1.5 9.13214 1.94699 8.05301 2.74264 7.25736L3.46967 6.53033ZM11.4697 8.40901C11.1768 8.7019 11.1768 9.17678 11.4697 9.46967C11.7626 9.76256 12.2374 9.76256 12.5303 9.46967L13.2574 8.74264C14.053 7.94699 14.5 6.86786 14.5 5.74264C14.5 3.3995 12.6005 1.5 10.2574 1.5C9.13214 1.5 8.05301 1.94699 7.25736 2.74264L6.53033 3.46967C6.23744 3.76256 6.23744 4.23744 6.53033 4.53033C6.82322 4.82322 7.2981 4.82322 7.59099 4.53033L8.31802 3.8033C8.83236 3.28896 9.52996 3 10.2574 3C11.7721 3 13 4.22792 13 5.74264C13 6.47003 12.711 7.16764 12.1967 7.68198L11.4697 8.40901ZM10.5303 6.53033C10.8232 6.23744 10.8232 5.76256 10.5303 5.46967C10.2374 5.17678 9.76256 5.17678 9.46967 5.46967L5.46967 9.46967C5.17678 9.76256 5.17678 10.2374 5.46967 10.5303C5.76256 10.8232 6.23744 10.8232 6.53033 10.5303L10.5303 6.53033Z" fill="currentColor"/>
</svg>
