<svg width="16" height="16" viewBox="0 0 16 16" fill="none" xmlns="http://www.w3.org/2000/svg">
<g clip-path="url(#clip0_4095_23948)">
<path fill-rule="evenodd" clip-rule="evenodd" d="M3 2.75C3 3.16421 2.66421 3.5 2.25 3.5C1.83579 3.5 1.5 3.16421 1.5 2.75C1.5 2.33579 1.83579 2 2.25 2C2.66421 2 3 2.33579 3 2.75ZM2.25 0.5C3.49264 0.5 4.5 1.50736 4.5 2.75C4.5 3.99264 3.49264 5 2.25 5C1.00736 5 0 3.99264 0 2.75C0 1.50736 1.00736 0.5 2.25 0.5ZM3 13.25C3 13.6642 2.66421 14 2.25 14C1.83579 14 1.5 13.6642 1.5 13.25C1.5 12.8358 1.83579 12.5 2.25 12.5C2.66421 12.5 3 12.8358 3 13.25ZM2.25 11C3.49264 11 4.5 12.0074 4.5 13.25C4.5 14.4926 3.49264 15.5 2.25 15.5C1.00736 15.5 0 14.4926 0 13.25C0 12.0074 1.00736 11 2.25 11ZM2.25 8.75C2.66421 8.75 3 8.41421 3 8C3 7.58579 2.66421 7.25 2.25 7.25C1.83579 7.25 1.5 7.58579 1.5 8C1.5 8.41421 1.83579 8.75 2.25 8.75ZM4.5 8C4.5 6.75736 3.49264 5.75 2.25 5.75C1.00736 5.75 0 6.75736 0 8C0 9.24264 1.00736 10.25 2.25 10.25C3.49264 10.25 4.5 9.24264 4.5 8Z" fill="currentColor"/>
<path d="M4 8H12" stroke="currentColor" stroke-width="1.5" stroke-linecap="round" stroke-linejoin="round"/>
<path d="M7 5.5L9.5 8L7 10.5" stroke="currentColor" stroke-width="1.5" stroke-linecap="round" stroke-linejoin="round"/>
<path d="M4 13.2998H12" stroke="currentColor" stroke-width="1.5" stroke-linecap="round" stroke-linejoin="round"/>
<path d="M4 2.7998H12" stroke="currentColor" stroke-width="1.5" stroke-linecap="round" stroke-linejoin="round"/>
<path fill-rule="evenodd" clip-rule="evenodd" d="M13 13.25C13 12.8358 13.3358 12.5 13.75 12.5C14.1642 12.5 14.5 12.8358 14.5 13.25C14.5 13.6642 14.1642 14 13.75 14C13.3358 14 13 13.6642 13 13.25ZM13.75 15.5C12.5074 15.5 11.5 14.4926 11.5 13.25C11.5 12.0074 12.5074 11 13.75 11C14.9926 11 16 12.0074 16 13.25C16 14.4926 14.9926 15.5 13.75 15.5ZM13 2.75C13 2.33579 13.3358 2 13.75 2C14.1642 2 14.5 2.33579 14.5 2.75C14.5 3.16421 14.1642 3.5 13.75 3.5C13.3358 3.5 13 3.16421 13 2.75ZM13.75 5C12.5074 5 11.5 3.99264 11.5 2.75C11.5 1.50736 12.5074 0.5 13.75 0.5C14.9926 0.500001 16 1.50736 16 2.75C16 3.99264 14.9926 5 13.75 5ZM13.75 7.25C13.3358 7.25 13 7.58579 13 8C13 8.41421 13.3358 8.75 13.75 8.75C14.1642 8.75 14.5 8.41421 14.5 8C14.5 7.58579 14.1642 7.25 13.75 7.25ZM11.5 8C11.5 9.24264 12.5074 10.25 13.75 10.25C14.9926 10.25 16 9.24264 16 8C16 6.75736 14.9926 5.75 13.75 5.75C12.5074 5.75 11.5 6.75736 11.5 8Z" fill="currentColor"/>
</g>
<defs>
<clipPath id="clip0_4095_23948">
<rect width="16" height="16" fill="white" transform="matrix(-1 0 0 1 16 0)"/>
</clipPath>
</defs>
</svg>
