<svg width="16" height="16" viewBox="0 0 16 16" fill="none" xmlns="http://www.w3.org/2000/svg">
<path fill-rule="evenodd" clip-rule="evenodd" d="M3 2.75C3 3.16421 2.66421 3.5 2.25 3.5C1.83579 3.5 1.5 3.16421 1.5 2.75C1.5 2.33579 1.83579 2 2.25 2C2.66421 2 3 2.33579 3 2.75ZM4.37197 3.5C4.0631 4.37389 3.22966 5 2.25 5C1.00736 5 9.53674e-07 3.99264 9.53674e-07 2.75C9.53674e-07 1.50736 1.00736 0.5 2.25 0.5C3.22966 0.5 4.0631 1.12611 4.37197 2H6.25002C7.90688 2 9.25002 3.34315 9.25002 5V5.89631C9.86579 6.13056 10.3521 6.62739 10.5722 7.25H14C14.4142 7.25 14.75 7.58579 14.75 8C14.75 8.41421 14.4142 8.75 14 8.75H10.5722C10.3521 9.37261 9.86579 9.86944 9.25002 10.1037V11C9.25002 12.6569 7.90688 14 6.25002 14H4.37197C4.0631 14.8739 3.22966 15.5 2.25 15.5C1.00736 15.5 9.53674e-07 14.4926 9.53674e-07 13.25C9.53674e-07 12.0074 1.00736 11 2.25 11C3.22966 11 4.0631 11.6261 4.37197 12.5H6.25002C7.07845 12.5 7.75002 11.8284 7.75002 11V10.1389C7.08595 9.92168 6.55794 9.40379 6.32685 8.74611C6.30159 8.74868 6.27595 8.75 6.25001 8.75H4.37197C4.0631 9.62389 3.22966 10.25 2.25 10.25C1.00736 10.25 9.53674e-07 9.24264 9.53674e-07 8C9.53674e-07 6.75736 1.00736 5.75 2.25 5.75C3.22966 5.75 4.0631 6.37611 4.37197 7.25H6.25001C6.27595 7.25 6.30159 7.25132 6.32685 7.25389C6.55794 6.59621 7.08595 6.07832 7.75002 5.86108V5C7.75002 4.17157 7.07845 3.5 6.25002 3.5H4.37197ZM3 13.25C3 13.6642 2.66421 14 2.25 14C1.83579 14 1.5 13.6642 1.5 13.25C1.5 12.8358 1.83579 12.5 2.25 12.5C2.66421 12.5 3 12.8358 3 13.25ZM2.25 8.75C2.66422 8.75 3 8.41421 3 8C3 7.58579 2.66421 7.25 2.25 7.25C1.83579 7.25 1.5 7.58579 1.5 8C1.5 8.41421 1.83579 8.75 2.25 8.75ZM9.2002 8C9.2002 8.41421 8.86441 8.75 8.4502 8.75C8.03598 8.75 7.7002 8.41421 7.7002 8C7.7002 7.58579 8.03598 7.25 8.4502 7.25C8.86441 7.25 9.2002 7.58579 9.2002 8Z" fill="currentColor"/>
<path d="M12.5 5.5L15 8L12.5 10.5" stroke="currentColor" stroke-width="1.5" stroke-linecap="round" stroke-linejoin="round"/>
</svg>
