<svg xmlns="http://www.w3.org/2000/svg" width="16" height="16" viewBox="0 0 14 14" fill="none">
<path d="M1.52888 9.0005C2.67876 7.96378 3.96115 7.82013 5.04213 8.00117C6.09659 8.17785 6.98476 8.66598 7.43129 8.91505C7.95248 9.20577 8.60687 9.54613 9.33381 9.65205C10.0281 9.75315 10.8055 9.64303 11.6153 8.98042C11.8958 8.7509 12.3095 8.79188 12.539 9.07228C12.7685 9.35275 12.7272 9.76643 12.4467 9.99598C11.3216 10.9167 10.1637 11.0993 9.14454 10.9509C8.15801 10.8071 7.31965 10.3558 6.7917 10.0614C6.35235 9.81629 5.63664 9.43167 4.82509 9.29573C4.03989 9.16423 3.19322 9.26773 2.40815 9.97547C2.13897 10.218 1.72369 10.1967 1.48103 9.92762C1.23844 9.65849 1.25986 9.24319 1.52888 9.0005Z" fill="currentColor" fill-opacity="0.85"/>
<path d="M1.52888 4.04872C2.67876 3.012 3.96116 2.86835 5.04213 3.04939C6.09656 3.22606 6.98475 3.71419 7.43129 3.96327C7.95247 4.25398 8.60687 4.59434 9.33381 4.70027C10.0282 4.80137 10.8055 4.69128 11.6153 4.02864C11.8957 3.79913 12.3094 3.84014 12.539 4.12049C12.7685 4.40097 12.7272 4.81465 12.4467 5.0442C11.3216 5.96492 10.1637 6.14753 9.14454 5.99909C8.15802 5.85536 7.31964 5.40406 6.7917 5.10957C6.35235 4.8645 5.63662 4.47989 4.82509 4.34394C4.03989 4.21245 3.19322 4.31595 2.40815 5.02369C2.13898 5.2663 1.7237 5.24497 1.48103 4.97584C1.23847 4.70669 1.25984 4.29139 1.52888 4.04872Z" fill="currentColor" fill-opacity="0.85"/>
</svg>