<svg width="16" height="16" viewBox="0 0 16 16" fill="none" xmlns="http://www.w3.org/2000/svg">
<path d="M11.1411 3.51723L10.0016 4.6568C10.5831 4.95441 11.0586 5.42987 11.3562 6.01144L12.4958 4.87187C12.3928 4.17284 11.8401 3.62015 11.1411 3.51723ZM3.76998 11.3126L3.61491 12.398L4.70035 12.243C5.02164 12.1971 5.31938 12.0482 5.54887 11.8187L10.1785 7.18914C10.0755 6.49012 9.52286 5.93743 8.82384 5.83451L4.19424 10.4641C3.96474 10.6936 3.81587 10.9913 3.76998 11.3126ZM7.9641 4.57293L10.2769 2.2601C10.4435 2.09356 10.6693 2 10.9049 2C12.6214 2 14.013 3.39155 14.013 5.10812C14.013 5.34364 13.9194 5.56951 13.7529 5.73605L6.60953 12.8794C6.15054 13.3384 5.55506 13.6361 4.91248 13.7279L3.16708 13.9773C2.5548 14.0647 2.02367 13.5842 2.02539 12.9873C2.02553 12.9408 2.02889 12.8936 2.03571 12.8459L2.28505 11.1005V11.1005C2.29079 11.0603 2.29733 11.0204 2.30467 10.9806C2.31562 10.9212 2.32835 10.8623 2.3428 10.8039C2.47356 10.2756 2.74611 9.79089 3.13358 9.40342L7.95963 4.57737C7.96112 4.57588 7.96261 4.5744 7.9641 4.57293Z" fill="currentColor"/>
</svg>
