<svg width="16" height="16" viewBox="0 0 16 16" fill="none" xmlns="http://www.w3.org/2000/svg">
<path d="M1.48843 2.49345C1.2946 2.62917 1.17619 2.84841 1.16897 3.08493C1.16175 3.32144 1.26657 3.5475 1.45176 3.69479L5.25557 6.72019L4.80205 7.03775L3.72628 6.41989C3.30591 6.17845 2.78385 6.20184 2.38675 6.47989L1.46077 7.12827C0.776993 7.60705 0.745645 8.6087 1.39815 9.12931L3.78719 11.0354C4.11991 11.3009 4.56957 11.3821 4.97945 11.236C5.43962 11.072 6.46138 10.6972 7.15471 10.3565C7.52646 10.1739 7.67974 9.7244 7.49706 9.35264C7.31438 8.98089 6.86492 8.82761 6.49317 9.01029C5.94125 9.2815 5.10802 9.59506 4.61167 9.77433L2.59496 8.16526L3.11698 7.79974L4.19275 8.4176C4.61311 8.65904 5.13517 8.63565 5.53227 8.3576L8.24027 6.46144C8.24969 6.45485 8.25895 6.44804 8.26806 6.44101L12.0791 3.50242L13.4198 3.30852L12.8873 4.5222L10.0976 6.47562C9.75825 6.7132 9.67579 7.18086 9.91337 7.52017C10.151 7.85947 10.6186 7.94193 10.9579 7.70435L13.8051 5.71074C13.9928 5.57931 14.1407 5.39882 14.2328 5.18899L14.9743 3.49884C15.3684 2.60056 14.6215 1.61912 13.6507 1.75952L11.7994 2.02726C11.5866 2.05804 11.3854 2.14319 11.2151 2.27449L9.12974 3.88245L3.86453 1.30281C3.61928 1.18265 3.32809 1.20531 3.10437 1.36196L1.48843 2.49345ZM6.35501 5.67805L3.17157 3.14607L3.60211 2.8446L7.6025 4.80455L6.35501 5.67805Z" fill="currentColor"/>
<path d="M8.87971 12.8829L7.78253 9.35218C7.65961 8.95662 7.23931 8.73561 6.84375 8.85853C6.4482 8.98145 6.22718 9.40176 6.3501 9.79731L7.75214 14.3091C7.82321 14.5377 7.99921 14.7187 8.22581 14.7962C8.45241 14.8736 8.70237 14.8382 8.89854 14.7009L10.4738 13.5978C10.6611 13.4667 10.7784 13.2572 10.7923 13.029L11.1412 7.29118C11.1664 6.87773 10.8516 6.52218 10.4381 6.49704C10.0247 6.47189 9.66914 6.78667 9.64399 7.20013L9.31701 12.5767L8.87971 12.8829Z" fill="currentColor"/>
</svg>
