<svg width="16" height="16" viewBox="0 0 16 16" fill="none" xmlns="http://www.w3.org/2000/svg">
<path d="M13.5 8C13.5 4.96243 11.0376 2.5 8 2.5C4.96243 2.5 2.5 4.96243 2.5 8C2.5 11.0376 4.96243 13.5 8 13.5C11.0376 13.5 13.5 11.0376 13.5 8ZM15 8C15 11.866 11.866 15 8 15C4.13401 15 1 11.866 1 8C1 4.13401 4.13401 1 8 1C11.866 1 15 4.13401 15 8ZM7.25 11.0311L11 8.86603C11.6667 8.48113 11.6667 7.51888 11 7.13398L7.25 4.96891C6.58333 4.58401 5.75 5.06513 5.75 5.83493L5.75 10.1651C5.75 10.9349 6.58333 11.416 7.25 11.0311Z" fill="currentColor"/>
</svg>
