<svg width="16" height="16" viewBox="0 0 16 16" fill="currentColor" xmlns="http://www.w3.org/2000/svg">
<path d="M12.1543 2.00391C13.7394 2.08421 15 3.39489 15 5V7H6.25V9H8.75V10.5H6.25V12.5H8.75V14H4L3.8457 13.9961C2.31166 13.9184 1.08163 12.6883 1.00391 11.1543L1 11V5C1 3.39489 2.26055 2.08421 3.8457 2.00391L4 2H12L12.1543 2.00391ZM2.5 11C2.5 11.8284 3.17157 12.5 4 12.5H4.75V10.5H2.5V11ZM2.5 9H4.75V7H2.5V9ZM4 3.5C3.17157 3.5 2.5 4.17157 2.5 5V5.5H4.75V3.5H4ZM6.25 5.5H13.5V5C13.5 4.17157 12.8284 3.5 12 3.5H6.25V5.5Z" fill="currentColor"/>
<path d="M11 12L12.6 14L15 10" stroke="currentColor" stroke-width="1.5" stroke-linecap="round" stroke-linejoin="round"/>
</svg>