<svg width="16" height="16" viewBox="0 0 16 16" fill="none" xmlns="http://www.w3.org/2000/svg">
<path fill-rule="evenodd" clip-rule="evenodd" d="M4 3.5H5.25V5.5H2.5V5C2.5 4.17157 3.17157 3.5 4 3.5ZM6.75 5.5V3.5H12C12.8284 3.5 13.5 4.17157 13.5 5V5.5L6.75 5.5ZM2.5 7H5.25V9H2.5V7ZM2.5 10.5V11C2.5 11.8284 3.17157 12.5 4 12.5H5.25V10.5H2.5ZM6.75 10.5V12.5H8V14H4C2.34315 14 1 12.6569 1 11V5C1 3.34315 2.34315 2 4 2H12C13.6569 2 15 3.34315 15 5V8H13.5V7L6.75 7V9H8V10.5H6.75ZM13 10C13 9.58579 12.6642 9.25 12.25 9.25C11.8358 9.25 11.5 9.58579 11.5 10V12.6893L11.0303 12.2197C10.7374 11.9268 10.2626 11.9268 9.96967 12.2197C9.67678 12.5126 9.67678 12.9874 9.96967 13.2803L11.7197 15.0303C12.0126 15.3232 12.4874 15.3232 12.7803 15.0303L14.5303 13.2803C14.8232 12.9874 14.8232 12.5126 14.5303 12.2197C14.2374 11.9268 13.7626 11.9268 13.4697 12.2197L13 12.6893V10Z" fill="currentColor"/>
</svg>
