<svg width="16" height="16" viewBox="0 0 16 16" fill="none" xmlns="http://www.w3.org/2000/svg">
<path fill-rule="evenodd" clip-rule="evenodd" d="M4 2.75C4 3.16421 3.66421 3.5 3.25 3.5C2.83579 3.5 2.5 3.16421 2.5 2.75C2.5 2.33579 2.83579 2 3.25 2C3.66421 2 4 2.33579 4 2.75ZM3.25 0.5C4.22966 0.5 5.06309 1.12611 5.37197 2H5.75C7.40685 2 8.75 3.34315 8.75 5V7.25H12.6893L11.4697 6.03033C11.1768 5.73744 11.1768 5.26256 11.4697 4.96967C11.7626 4.67678 12.2374 4.67678 12.5303 4.96967L15.0303 7.46967C15.3232 7.76256 15.3232 8.23744 15.0303 8.53033L12.5303 11.0303C12.2374 11.3232 11.7626 11.3232 11.4697 11.0303C11.1768 10.7374 11.1768 10.2626 11.4697 9.96967L12.6893 8.75H8.75V11C8.75 12.6569 7.40685 14 5.75 14H5.37197C5.06309 14.8739 4.22966 15.5 3.25 15.5C2.00736 15.5 1 14.4926 1 13.25C1 12.0074 2.00736 11 3.25 11C4.22966 11 5.06309 11.6261 5.37197 12.5H5.75C6.57843 12.5 7.25 11.8284 7.25 11V8.75H5.37197C5.06309 9.62389 4.22966 10.25 3.25 10.25C2.00736 10.25 1 9.24264 1 8C1 6.75736 2.00736 5.75 3.25 5.75C4.22966 5.75 5.06309 6.37611 5.37197 7.25H7.25V5C7.25 4.17157 6.57843 3.5 5.75 3.5H5.37197C5.06309 4.37389 4.22966 5 3.25 5C2.00736 5 1 3.99264 1 2.75C1 1.50736 2.00736 0.5 3.25 0.5ZM4 13.25C4 13.6642 3.66421 14 3.25 14C2.83579 14 2.5 13.6642 2.5 13.25C2.5 12.8358 2.83579 12.5 3.25 12.5C3.66421 12.5 4 12.8358 4 13.25ZM3.25 8.75C3.66421 8.75 4 8.41421 4 8C4 7.58579 3.66421 7.25 3.25 7.25C2.83579 7.25 2.5 7.58579 2.5 8C2.5 8.41421 2.83579 8.75 3.25 8.75Z" fill="currentColor"/>
</svg>
