<svg width="16" height="16" viewBox="0 0 16 16" fill="none" xmlns="http://www.w3.org/2000/svg">
<path fill-rule="evenodd" clip-rule="evenodd" d="M4 3.5H12C12.8284 3.5 13.5 4.17157 13.5 5V5.5L2.5 5.5V5C2.5 4.17157 3.17157 3.5 4 3.5ZM2.5 10.5V11C2.5 11.8284 3.17157 12.5 4 12.5H7.25V10.5H2.5ZM2.5 9H7.25V7H2.5V9ZM8.75 10.5V12.5L8.75 14H4C2.34315 14 1 12.6569 1 11V5C1 3.34315 2.34315 2 4 2H12C13.6569 2 15 3.34315 15 5V7L13.5 7H8.75V9L8.75 10.5ZM12.8 12.85V12.4562C12.8 12.0182 12.2768 11.7919 11.9576 12.0919L10.6876 13.2857C10.4776 13.4832 10.4776 13.8169 10.6876 14.0143L11.9576 15.2081C12.2768 15.5081 12.8 15.2818 12.8 14.8438V14.35H14.8C14.999 14.35 15.1897 14.271 15.3304 14.1303C15.471 13.9897 15.55 13.7989 15.55 13.6V12.1C15.55 11.6858 15.2143 11.35 14.8 11.35C14.3858 11.35 14.05 11.6858 14.05 12.1V12.85L12.8 12.85ZM12.7 8.64993H10.7C10.2857 8.64993 9.94995 8.98571 9.94995 9.39993V10.8999C9.94995 11.3141 10.2857 11.6499 10.7 11.6499C11.1142 11.6499 11.45 11.3141 11.45 10.8999V10.1499H12.7V10.6437C12.7 11.0818 13.2232 11.3081 13.5424 11.008L14.8124 9.81426C15.0224 9.6168 15.0224 9.28309 14.8124 9.08563L13.5424 7.89185C13.2232 7.59184 12.7 7.81813 12.7 8.25617V8.64993Z" fill="black"/>
<path d="M12.8 12.4562V12.85L14.05 12.85V12.1C14.05 11.6858 14.3858 11.35 14.8 11.35C15.2143 11.35 15.55 11.6858 15.55 12.1V13.6C15.55 13.7989 15.471 13.9897 15.3304 14.1303C15.1897 14.271 14.999 14.35 14.8 14.35H12.8V14.8438C12.8 15.2818 12.2768 15.5081 11.9576 15.2081L10.6876 14.0143C10.4776 13.8169 10.4776 13.4832 10.6876 13.2857L11.9576 12.0919C12.2768 11.7919 12.8 12.0182 12.8 12.4562Z" fill="black"/>
<path d="M10.7 8.64993H12.7V8.25617C12.7 7.81813 13.2232 7.59184 13.5424 7.89185L14.8124 9.08563C15.0224 9.28309 15.0224 9.6168 14.8124 9.81426L13.5424 11.008C13.2232 11.3081 12.7 11.0818 12.7 10.6437V10.1499H11.45V10.8999C11.45 11.3141 11.1142 11.6499 10.7 11.6499C10.2857 11.6499 9.94995 11.3141 9.94995 10.8999V9.39993C9.94995 8.98571 10.2857 8.64993 10.7 8.64993Z" fill="black"/>
<path fill-rule="evenodd" clip-rule="evenodd" d="M4 3.5H12C12.8284 3.5 13.5 4.17157 13.5 5V5.5L2.5 5.5V5C2.5 4.17157 3.17157 3.5 4 3.5ZM2.5 10.5V11C2.5 11.8284 3.17157 12.5 4 12.5H7.25V10.5H2.5ZM2.5 9H7.25V7H2.5V9ZM8.75 14H4C2.34315 14 1 12.6569 1 11V5C1 3.34315 2.34315 2 4 2H12C13.6569 2 15 3.34315 15 5V7L8.75 7V14Z" fill="black"/>
</svg>
