<svg width="16" height="16" viewBox="0 0 16 16" fill="none" xmlns="http://www.w3.org/2000/svg">
<path d="M14.9526 2.56048C15.2104 1.60876 14.2911 0.755749 13.3401 1.06417L11.7619 1.57597C9.80891 2.20932 8.08493 3.37408 6.78555 4.92757C6.69457 4.88943 6.59444 4.86833 6.48929 4.86833H4.46084C4.26028 4.86833 4.06793 4.94669 3.92611 5.08616L1.22151 7.74613C1.00524 7.95884 0.940538 8.27873 1.05759 8.55665C1.17463 8.83456 1.45038 9.01577 1.75624 9.01577H4.82333L7.08532 11.2404V14.257C7.08532 14.5578 7.26957 14.829 7.55214 14.9441C7.83472 15.0592 8.15998 14.9956 8.37626 14.7829L11.0809 12.1229C11.2227 11.9834 11.3024 11.7942 11.3024 11.597V9.60201C11.3024 9.48753 11.276 9.37909 11.2291 9.28221C12.8406 7.8938 14.0047 6.06018 14.5606 4.00775L14.9526 2.56048ZM8.59775 12.4614V11.1763L9.78992 10.3515V11.2889L8.59775 12.4614ZM4.88784 7.5283H3.5819L4.77407 6.3558H5.72644L4.88784 7.5283ZM12.2355 2.98862L13.3713 2.62031L13.0992 3.62484C12.5353 5.70652 11.2444 7.5266 9.45287 8.76605L7.84168 9.88071L6.20543 8.27147L7.52781 6.42256C8.68107 4.81011 10.3319 3.60598 12.2355 2.98862ZM10.2204 5.8943C10.5035 6.17602 10.9625 6.17602 11.2457 5.8943C11.5288 5.61259 11.5288 5.15583 11.2457 4.87412C10.9625 4.5924 10.5035 4.5924 10.2204 4.87412C9.93728 5.15583 9.93728 5.61259 10.2204 5.8943Z" fill="currentColor"/>
</svg>
