<svg width="16" height="16" viewBox="0 0 16 16" fill="none" xmlns="http://www.w3.org/2000/svg">
<path d="M8 14.75C8.41421 14.75 8.75 14.4142 8.75 14V12.8107L9.71967 13.7803C10.0126 14.0732 10.4874 14.0732 10.7803 13.7803C11.0732 13.4874 11.0732 13.0126 10.7803 12.7197L8.75 10.6893L8.75 8.75H9.93934L11.9697 10.7803C12.2626 11.0732 12.7374 11.0732 13.0303 10.7803C13.3232 10.4874 13.3232 10.0126 13.0303 9.71967L12.0607 8.75L14 8.75C14.4142 8.75 14.75 8.41421 14.75 8C14.75 7.58579 14.4142 7.25 14 7.25L12.0607 7.25L13.0303 6.28033C13.3232 5.98744 13.3232 5.51256 13.0303 5.21967C12.7374 4.92678 12.2626 4.92678 11.9697 5.21967L9.93934 7.25H8.75L8.75 5.81066L10.7803 3.78033C11.0732 3.48744 11.0732 3.01256 10.7803 2.71967C10.4874 2.42678 10.0126 2.42678 9.71967 2.71967L8.75 3.68934L8.75 2C8.75 1.58579 8.41421 1.25 8 1.25C7.58579 1.25 7.25 1.58579 7.25 2L7.25 3.68934L6.28033 2.71967C5.98744 2.42678 5.51256 2.42678 5.21967 2.71967C4.92678 3.01256 4.92678 3.48744 5.21967 3.78033L7.25 5.81066L7.25 7.25L5.56066 7.25L3.53033 5.21967C3.23744 4.92678 2.76256 4.92678 2.46967 5.21967C2.17678 5.51256 2.17678 5.98744 2.46967 6.28033L3.43934 7.25L2 7.25C1.58579 7.25 1.25 7.58578 1.25 8C1.25 8.41421 1.58579 8.75 2 8.75L3.43934 8.75L2.46967 9.71967C2.17678 10.0126 2.17678 10.4874 2.46967 10.7803C2.76256 11.0732 3.23744 11.0732 3.53033 10.7803L5.56066 8.75L7.25 8.75L7.25 10.6893L5.21967 12.7197C4.92678 13.0126 4.92678 13.4874 5.21967 13.7803C5.51256 14.0732 5.98744 14.0732 6.28033 13.7803L7.25 12.8107V14C7.25 14.4142 7.58578 14.75 8 14.75Z" fill="currentColor"/>
</svg>
