<svg width="16" height="16" viewBox="0 0 16 16" fill="none" xmlns="http://www.w3.org/2000/svg">
<path d="M3.25 4.31066L2.28033 5.28033C1.98744 5.57322 1.51256 5.57322 1.21967 5.28033C0.926777 4.98744 0.926777 4.51256 1.21967 4.21967L3.46967 1.96967C3.61032 1.82902 3.80109 1.75 4 1.75C4.19891 1.75 4.38968 1.82902 4.53033 1.96967L6.78033 4.21967C7.07322 4.51256 7.07322 4.98744 6.78033 5.28033C6.48744 5.57322 6.01256 5.57322 5.71967 5.28033L4.75 4.31066L4.75 13.5C4.75 13.9142 4.41421 14.25 4 14.25C3.58579 14.25 3.25 13.9142 3.25 13.5L3.25 4.31066ZM8.25 3C8.25 3.41421 8.58579 3.75 9 3.75H15C15.4142 3.75 15.75 3.41421 15.75 3C15.75 2.58579 15.4142 2.25 15 2.25H9C8.58579 2.25 8.25 2.58579 8.25 3ZM9 7.25C8.58579 7.25 8.25 6.91421 8.25 6.5C8.25 6.08579 8.58579 5.75 9 5.75H13C13.4142 5.75 13.75 6.08579 13.75 6.5C13.75 6.91421 13.4142 7.25 13 7.25H9ZM8.25 10C8.25 10.4142 8.58579 10.75 9 10.75H11C11.4142 10.75 11.75 10.4142 11.75 10C11.75 9.58579 11.4142 9.25 11 9.25H9C8.58579 9.25 8.25 9.58579 8.25 10ZM9 14.25C8.58579 14.25 8.25 13.9142 8.25 13.5C8.25 13.0858 8.58579 12.75 9 12.75H10C10.4142 12.75 10.75 13.0858 10.75 13.5C10.75 13.9142 10.4142 14.25 10 14.25H9Z" fill="currentColor"/>
</svg>
