<svg width="16" height="16" viewBox="0 0 16 16" fill="none" xmlns="http://www.w3.org/2000/svg">
<path d="M7.81419 2.82763C7.9135 2.71729 8.08653 2.71729 8.18584 2.82763L10.4405 5.33278C10.5853 5.49367 10.4711 5.75003 10.2547 5.75003H5.74538C5.52894 5.75003 5.41476 5.49367 5.55955 5.33278L7.81419 2.82763ZM9.30078 1.82419C8.60561 1.05177 7.39442 1.05177 6.69925 1.82418L4.44461 4.32934C3.43107 5.4555 4.23027 7.25003 5.74538 7.25003H10.2547C11.7698 7.25003 12.569 5.4555 11.5554 4.32934L9.30078 1.82419ZM5.55955 10.6673C5.41476 10.5064 5.52894 10.25 5.74538 10.25H10.2547C10.4711 10.25 10.5853 10.5064 10.4405 10.6673L8.18584 13.1724C8.08653 13.2828 7.9135 13.2828 7.81419 13.1724L5.55955 10.6673ZM5.74538 8.75003C4.23027 8.75003 3.43107 10.5446 4.44461 11.6707L6.69925 14.1759C7.39442 14.9483 8.60561 14.9483 9.30078 14.1759L11.5554 11.6707C12.569 10.5446 11.7698 8.75003 10.2547 8.75003H5.74538Z" fill="currentColor"/>
</svg>
