<svg width="16" height="16" viewBox="0 0 16 16" fill="none" xmlns="http://www.w3.org/2000/svg">
<path d="M11.7803 13.7803C11.6397 13.921 11.4489 14 11.25 14C11.0511 14 10.8603 13.921 10.7197 13.7803L8.46967 11.5303C8.17678 11.2374 8.17678 10.7626 8.46967 10.4697C8.76256 10.1768 9.23744 10.1768 9.53033 10.4697L10.5 11.4393L10.5 2.75C10.5 2.33579 10.8358 2 11.25 2C11.6642 2 12 2.33579 12 2.75L12 11.4393L12.9697 10.4697C13.2626 10.1768 13.7374 10.1768 14.0303 10.4697C14.3232 10.7626 14.3232 11.2374 14.0303 11.5303L11.7803 13.7803ZM4 4.56066L3.03033 5.53033C2.73744 5.82322 2.26256 5.82322 1.96967 5.53033C1.67678 5.23744 1.67678 4.76256 1.96967 4.46967L4.21967 2.21967C4.36032 2.07902 4.55109 2 4.75 2C4.94891 2 5.13968 2.07902 5.28033 2.21967L7.53033 4.46967C7.82322 4.76256 7.82322 5.23744 7.53033 5.53033C7.23744 5.82322 6.76256 5.82322 6.46967 5.53033L5.5 4.56066L5.5 13.25C5.5 13.6642 5.16421 14 4.75 14C4.33578 14 4 13.6642 4 13.25L4 4.56066Z" fill="currentColor"/>
</svg>
