<svg width="16" height="15" viewBox="0 0 16 15" fill="none" xmlns="http://www.w3.org/2000/svg">
<path d="M9.19427 4.9993L9.5452 5.87319L10.4848 5.9369L13.6823 6.15371L11.2229 8.20858L10.5002 8.81238L10.73 9.72564L11.5118 12.8337L8.79754 11.1296L7.99998 10.6289L7.20241 11.1296L4.48811 12.8337L5.27 9.72564L5.49975 8.81238L4.77708 8.20858L2.31765 6.15371L5.5152 5.9369L6.45475 5.87319L6.80568 4.9993L7.99998 2.02525L9.19427 4.9993ZM1.47082 4.70768L5.41372 4.44033L6.88641 0.773024C7.2895 -0.23074 8.71046 -0.230737 9.11355 0.773027L10.5862 4.44033L14.5291 4.70768C15.6083 4.78086 16.0474 6.13228 15.2174 6.82581L12.1846 9.35968L13.1488 13.1922C13.4127 14.2412 12.2631 15.0764 11.347 14.5013L7.99998 12.4L4.65296 14.5013C3.73686 15.0764 2.58728 14.2412 2.85117 13.1922L3.81533 9.35968L0.782599 6.82581C-0.0474776 6.13228 0.391628 4.78086 1.47082 4.70768Z" fill="currentColor"/>
</svg>
