<svg width="16" height="16" viewBox="0 0 16 16" fill="none" xmlns="http://www.w3.org/2000/svg">
<path d="M13.5 8C13.5 4.96243 11.0376 2.5 8 2.5C4.96243 2.5 2.5 4.96243 2.5 8C2.5 11.0376 4.96243 13.5 8 13.5C11.0376 13.5 13.5 11.0376 13.5 8ZM15 8C15 11.866 11.866 15 8 15C4.13401 15 1 11.866 1 8C1 4.13401 4.13401 1 8 1C11.866 1 15 4.13401 15 8ZM5.25 6.25C5.25 5.69772 5.69772 5.25 6.25 5.25H9.75C10.3023 5.25 10.75 5.69772 10.75 6.25V9.75C10.75 10.3023 10.3023 10.75 9.75 10.75H6.25C5.69772 10.75 5.25 10.3023 5.25 9.75V6.25Z" fill="currentColor"/>
</svg>
