<svg width="16" height="16" viewBox="0 0 16 16" fill="none" xmlns="http://www.w3.org/2000/svg">
<path d="M8.00003 1.5C4.69852 1.5 1.97295 3.96074 1.55539 7.14851C1.50159 7.55921 1.79092 7.93577 2.20162 7.98957C2.61233 8.04337 2.98888 7.75404 3.04268 7.34333C3.36371 4.89253 5.46146 3 8.00003 3C9.39841 3 10.6626 3.57344 11.5708 4.5H10.25C9.83581 4.5 9.50002 4.83579 9.50002 5.25C9.50002 5.66421 9.83581 6 10.25 6H13.25C13.6642 6 14 5.66421 14 5.25V2.25C14 1.83579 13.6642 1.5 13.25 1.5C12.8358 1.5 12.5 1.83579 12.5 2.25V3.30963C11.3327 2.1896 9.74681 1.5 8.00003 1.5ZM2.75002 14.5C2.33581 14.5 2.00002 14.1642 2.00002 13.75L2.00002 10.75C2.00002 10.3358 2.33581 10 2.75002 10H5.75002C6.16424 10 6.50002 10.3358 6.50002 10.75C6.50002 11.1642 6.16424 11.5 5.75002 11.5H4.42925C5.33744 12.4266 6.60164 13 8.00002 13C10.5386 13 12.6363 11.1075 12.9574 8.65667C13.0112 8.24596 13.3877 7.95663 13.7984 8.01043C14.2091 8.06423 14.4985 8.44079 14.4447 8.85149C14.0271 12.0393 11.3015 14.5 8.00002 14.5C6.25323 14.5 4.6673 13.8104 3.50002 12.6904L3.50002 13.75C3.50002 14.1642 3.16424 14.5 2.75002 14.5Z" fill="currentColor"/>
</svg>
