<svg width="16" height="16" viewBox="0 0 16 16" fill="none" xmlns="http://www.w3.org/2000/svg">
<g clip-path="url(#clip0_3753_258458)">
<path d="M8.56184 2.31921L14.2478 8.0052C14.5407 8.2981 14.5407 8.77297 14.2478 9.06587L9.29809 14.0156C9.0052 14.3085 8.53033 14.3085 8.23743 14.0156L2.55144 8.32962C2.40744 8.18562 2.32819 7.98926 2.33189 7.78565L2.42028 2.92429C2.42762 2.52075 2.75298 2.19539 3.15652 2.18805L8.01788 2.09966C8.22149 2.09596 8.41785 2.17521 8.56184 2.31921Z" stroke="currentColor" stroke-width="1.5" stroke-linejoin="round"/>
<path d="M6.4467 5.21447C6.4467 5.76675 5.99899 6.21447 5.4467 6.21447C4.89442 6.21447 4.4467 5.76675 4.4467 5.21447C4.4467 4.66218 4.89442 4.21447 5.4467 4.21447C5.99899 4.21447 6.4467 4.66218 6.4467 5.21447Z" fill="currentColor"/>
</g>
<defs>
<clipPath id="clip0_3753_258458">
<rect width="16" height="16" fill="currentColor"/>
</clipPath>
</defs>
</svg>
