<svg width="16" height="16" viewBox="0 0 16 16" fill="none" xmlns="http://www.w3.org/2000/svg">
<path fill-rule="evenodd" clip-rule="evenodd" d="M4 3.5H5.25V5.5H2.5V5C2.5 4.17157 3.17157 3.5 4 3.5ZM6.75 5.5V3.5H12C12.8284 3.5 13.5 4.17157 13.5 5V5.5L6.75 5.5ZM2.5 7H5.25V9H2.5V7ZM2.5 10.5V11C2.5 11.8284 3.17157 12.5 4 12.5H5.25V10.5H2.5ZM6.75 10.5V12.5H12C12.8284 12.5 13.5 11.8284 13.5 11V10.5H6.75ZM13.5 9V7L6.75 7V9L13.5 9ZM1 5C1 3.34315 2.34315 2 4 2H12C13.6569 2 15 3.34315 15 5V11C15 12.6569 13.6569 14 12 14H4C2.34315 14 1 12.6569 1 11V5Z" fill="currentColor"/>
</svg>
