<svg width="16" height="16" viewBox="0 0 16 16" fill="none" xmlns="http://www.w3.org/2000/svg">
<path d="M9.0002 2C9.27634 2 9.5002 2.22386 9.5002 2.5V3H6.5002V2.5C6.5002 2.22386 6.72406 2 7.0002 2H9.0002ZM11.0002 3V2.5C11.0002 1.39543 10.1048 0.5 9.0002 0.5H7.0002C5.89563 0.5 5.0002 1.39543 5.0002 2.5V3H4.00141H2.50011H2.25024C1.83603 3 1.50024 3.33579 1.50024 3.75C1.50024 4.16421 1.83603 4.5 2.25024 4.5H2.56261L2.88032 12.1249C2.94727 13.7318 4.26944 15 5.87772 15H10.1225C11.7308 15 13.053 13.7318 13.1199 12.1249L13.4376 4.5H13.7502C14.1644 4.5 14.5002 4.16421 14.5002 3.75C14.5002 3.33579 14.1644 3 13.7502 3H13.5001H11.9988H11.0002ZM11.9363 4.5L11.6212 12.0624C11.5877 12.8659 10.9266 13.5 10.1225 13.5H5.87772C5.07358 13.5 4.41249 12.8659 4.37902 12.0624L4.06391 4.5H5.0002H6.5002H9.5002H11.0002H11.9363ZM5.75 6.5C5.75 6.08579 6.08579 5.75 6.5 5.75C6.91421 5.75 7.25 6.08579 7.25 6.5V11.5C7.25 11.9142 6.91421 12.25 6.5 12.25C6.08579 12.25 5.75 11.9142 5.75 11.5V6.5ZM9.5 5.75C9.08579 5.75 8.75 6.08579 8.75 6.5V11.5C8.75 11.9142 9.08579 12.25 9.5 12.25C9.91421 12.25 10.25 11.9142 10.25 11.5V6.5C10.25 6.08579 9.91421 5.75 9.5 5.75Z" fill="currentColor"/>
</svg>
