<svg width="16" height="16" viewBox="0 0 16 16" fill="none" xmlns="http://www.w3.org/2000/svg">
<path d="M3.47862 6.21377C3.77151 5.92087 4.24638 5.92087 4.53928 6.21377C4.83217 6.50666 4.83217 6.98154 4.53928 7.27443L3.99568 7.81802C3.48134 8.33237 3.19238 9.02997 3.19238 9.75736C3.19238 11.2721 4.42031 12.5 5.93502 12.5C6.66242 12.5 7.36002 12.211 7.87436 11.6967L8.41795 11.1531C8.71084 10.8602 9.18572 10.8602 9.47861 11.1531C9.7715 11.446 9.7715 11.9209 9.47861 12.2138L8.93502 12.7574C8.13937 13.553 7.06024 14 5.93502 14C3.59188 14 1.69238 12.1005 1.69238 9.75736C1.69238 8.63214 2.13937 7.55301 2.93502 6.75736L3.47862 6.21377ZM12.3358 7.2353C12.0429 7.52819 12.0429 8.00306 12.3358 8.29596C12.6287 8.58885 13.1035 8.58885 13.3964 8.29596L13.4497 8.24264C14.2454 7.44699 14.6924 6.36786 14.6924 5.24264C14.6924 2.89949 12.7929 1 10.4497 1C9.32452 1 8.24539 1.44699 7.44974 2.24264L7.39642 2.29596C7.10353 2.58885 7.10353 3.06373 7.39642 3.35662C7.68932 3.64951 8.16419 3.64951 8.45709 3.35662L8.5104 3.3033C9.02475 2.78896 9.72235 2.5 10.4497 2.5C11.9645 2.5 13.1924 3.72792 13.1924 5.24264C13.1924 5.97003 12.9034 6.66764 12.3891 7.18198L12.3358 7.2353ZM7.26197 9.49095C7.55485 9.19804 7.55482 8.72316 7.26191 8.43029C6.969 8.13741 6.49412 8.13744 6.20125 8.43035L5.37031 9.26139C5.07743 9.5543 5.07746 10.0292 5.37037 10.322C5.66328 10.6149 6.13816 10.6149 6.43103 10.322L7.26197 9.49095ZM11.151 4.5412C11.4439 4.83408 11.4439 5.30895 11.1511 5.60186L10.3201 6.4329C10.0272 6.72581 9.55237 6.72584 9.25946 6.43296C8.96655 6.14008 8.96652 5.66521 9.2594 5.3723L10.0903 4.54126C10.3832 4.24835 10.8581 4.24832 11.151 4.5412ZM12.5942 12.764C12.8871 13.0569 13.362 13.0569 13.6548 12.764C13.9477 12.4711 13.9477 11.9962 13.6548 11.7033L4.22578 2.27453C3.93288 1.98164 3.45801 1.98165 3.16512 2.27454C2.87223 2.56744 2.87224 3.04231 3.16513 3.3352L12.5942 12.764Z" fill="currentColor"/>
</svg>
