<svg width="16" height="16" viewBox="0 0 16 16" fill="none" xmlns="http://www.w3.org/2000/svg">
<path d="M8.53033 0.96967C8.23744 0.676777 7.76256 0.676777 7.46967 0.96967L4.96967 3.46967C4.67678 3.76256 4.67678 4.23744 4.96967 4.53033C5.26256 4.82322 5.73744 4.82322 6.03033 4.53033L7.25 3.31066V11C7.25 11.4142 7.58579 11.75 8 11.75C8.41421 11.75 8.75 11.4142 8.75 11V3.31066L9.96967 4.53033C10.2626 4.82322 10.7374 4.82322 11.0303 4.53033C11.3232 4.23744 11.3232 3.76256 11.0303 3.46967L8.53033 0.96967ZM5 7.25C5 6.83579 4.66421 6.5 4.25 6.5H4C2.34315 6.5 1 7.84315 1 9.5V12C1 13.6569 2.34315 15 4 15H12C13.6569 15 15 13.6569 15 12V9.5C15 7.84315 13.6569 6.5 12 6.5H11.75C11.3358 6.5 11 6.83579 11 7.25C11 7.66421 11.3358 8 11.75 8H12C12.8284 8 13.5 8.67157 13.5 9.5V12C13.5 12.8284 12.8284 13.5 12 13.5H4C3.17157 13.5 2.5 12.8284 2.5 12V9.5C2.5 8.67157 3.17157 8 4 8H4.25C4.66421 8 5 7.66421 5 7.25Z" fill="currentColor"/>
</svg>
