<svg width="152" height="150" viewBox="0 0 152 150" fill="none" xmlns="http://www.w3.org/2000/svg">
<rect x="0.5" y="6.10352e-05" width="150" height="150" fill="white" fill-opacity="0"/>
<path d="M76.4558 18.4362C76.4558 15.1227 73.7795 12.4039 70.4235 12.4039H6.53228C3.21878 12.4039 0.5 15.0802 0.5 18.4362V115.208C0.5 118.521 3.17629 121.24 6.53228 121.24H130.152C133.465 121.24 136.184 118.564 136.184 115.208V30.5008C136.184 27.1873 133.508 24.4685 130.152 24.4685H82.4456C79.1746 24.4685 76.4558 21.7922 76.4558 18.4362Z" fill="#ECF2F9"/>
<path fill-rule="evenodd" clip-rule="evenodd" d="M138.35 20.3479C142.761 20.3479 146.337 16.7722 146.337 12.3615C146.337 7.95069 142.761 4.37506 138.35 4.37506C133.94 4.37506 130.364 7.95069 130.364 12.3615C130.364 16.7722 133.94 20.3479 138.35 20.3479Z" stroke="#2EE5C0" stroke-width="2.66869" stroke-linecap="round" stroke-linejoin="round"/>
<path d="M145.029 17.4078C144.508 16.8867 143.663 16.8867 143.142 17.4078C142.621 17.9289 142.621 18.7737 143.142 19.2948L145.029 17.4078ZM149.556 25.7094C150.078 26.2305 150.922 26.2305 151.444 25.7094C151.965 25.1884 151.965 24.3435 151.444 23.8224L149.556 25.7094ZM33.1429 43.9247C33.1429 43.1878 32.5455 42.5904 31.8085 42.5904C31.0716 42.5904 30.4742 43.1878 30.4742 43.9247H33.1429ZM30.4742 47.6206C30.4742 48.3575 31.0716 48.9549 31.8085 48.9549C32.5455 48.9549 33.1429 48.3575 33.1429 47.6206H30.4742ZM33.1429 55.9468C33.1429 55.2099 32.5455 54.6125 31.8085 54.6125C31.0716 54.6125 30.4742 55.2099 30.4742 55.9468H33.1429ZM30.4742 60.5773C30.4742 61.3142 31.0716 61.9116 31.8085 61.9116C32.5455 61.9116 33.1429 61.3142 33.1429 60.5773H30.4742ZM40.1347 53.5854C40.8716 53.5854 41.469 52.988 41.469 52.251C41.469 51.5141 40.8716 50.9167 40.1347 50.9167V53.5854ZM36.3963 50.9167C35.6594 50.9167 35.062 51.5141 35.062 52.251C35.062 52.988 35.6594 53.5854 36.3963 53.5854V50.9167ZM27.1781 53.5854C27.915 53.5854 28.5124 52.988 28.5124 52.251C28.5124 51.5141 27.915 50.9167 27.1781 50.9167V53.5854ZM23.4822 50.9167C22.7453 50.9167 22.1479 51.5141 22.1479 52.251C22.1479 52.988 22.7453 53.5854 23.4822 53.5854V50.9167ZM143.142 19.2948L149.556 25.7094L151.444 23.8224L145.029 17.4078L143.142 19.2948ZM30.4742 43.9247V47.6206H33.1429V43.9247H30.4742ZM30.4742 55.9468V60.5773H33.1429V55.9468H30.4742ZM40.1347 50.9167H36.3963V53.5854H40.1347V50.9167ZM27.1781 50.9167H23.4822V53.5854H27.1781V50.9167Z" fill="#2EE5C0"/>
<path fill-rule="evenodd" clip-rule="evenodd" d="M105.385 145.624H23.2272C18.9791 145.624 15.4957 142.14 15.4957 137.892V84.6214C15.4957 80.3733 18.9791 76.8898 23.2272 76.8898H105.385C109.633 76.8898 113.117 80.3733 113.117 84.6214V137.892C113.117 142.14 109.633 145.624 105.385 145.624Z" stroke="#2EE5C0" stroke-width="2.66869" stroke-linecap="round" stroke-linejoin="round"/>
<path d="M23.4396 86.8729C24.6596 86.8729 25.6486 85.8839 25.6486 84.6639C25.6486 83.4439 24.6596 82.4549 23.4396 82.4549C22.2196 82.4549 21.2306 83.4439 21.2306 84.6639C21.2306 85.8839 22.2196 86.8729 23.4396 86.8729Z" fill="#2EE5C0"/>
<path d="M30.6188 86.8729C31.8388 86.8729 32.8278 85.8839 32.8278 84.6639C32.8278 83.4439 31.8388 82.4549 30.6188 82.4549C29.3988 82.4549 28.4098 83.4439 28.4098 84.6639C28.4098 85.8839 29.3988 86.8729 30.6188 86.8729Z" fill="#2EE5C0"/>
<path d="M37.7982 86.8729C39.0182 86.8729 40.0072 85.8839 40.0072 84.6639C40.0072 83.4439 39.0182 82.4549 37.7982 82.4549C36.5782 82.4549 35.5892 83.4439 35.5892 84.6639C35.5892 85.8839 36.5782 86.8729 37.7982 86.8729Z" fill="#2EE5C0"/>
<path d="M15.5806 92.5229H112.819" stroke="#2EE5C0" stroke-width="2.66869" stroke-linecap="round" stroke-linejoin="round"/>
<path d="M57.9769 45.2416V112.659C57.9769 129.651 65.7084 130.968 69.1919 130.968C72.6753 130.968 137.629 129.184 137.629 129.184C137.629 129.184 127.561 122.514 127.561 106.924V34.0692L70.4663 32.2L57.9769 45.2416Z" fill="#027BF3"/>
<path d="M103.446 63.7901L95.7027 72.1655L87.8378 63.75L80.5 71.5644L88.446 79.9799L80.5 88.5958L87.8378 96.25L95.7027 87.6341L103.446 95.8492L110.5 88.0348L102.838 79.8196L110.5 71.4442L103.446 63.7901Z" fill="white"/>
<path fill-rule="evenodd" clip-rule="evenodd" d="M69.4039 45.4965L57.9765 45.2416L70.5933 32.2425V44.2646C70.5933 44.9443 70.0411 45.4965 69.4039 45.4965ZM79.5991 120.857C79.5991 120.857 79.939 129.311 69.1913 130.968C74.7552 130.968 91.0416 130.47 106.412 130.001C120.146 129.581 133.149 129.184 137.118 129.184C145.529 129.184 147.186 118.946 147.186 118.946L79.5991 120.857Z" fill="#00236B"/>
</svg>
