<svg width="150" height="150" viewBox="0 0 150 150" fill="none" xmlns="http://www.w3.org/2000/svg">
<rect y="6.10352e-05" width="150" height="150" fill="white" fill-opacity="0"/>
<path d="M75.9558 18.4363C75.9558 15.1228 73.2795 12.404 69.9235 12.404H6.03228C2.71878 12.404 0 15.0803 0 18.4363V115.208C0 118.521 2.67629 121.24 6.03228 121.24H129.652C132.965 121.24 135.684 118.564 135.684 115.208V30.5008C135.684 27.1873 133.008 24.4686 129.652 24.4686H81.9456C78.6746 24.4686 75.9558 21.7923 75.9558 18.4363Z" fill="#ECF2F9"/>
<path d="M32.6429 43.9248C32.6429 43.1879 32.0455 42.5905 31.3085 42.5905C30.5716 42.5905 29.9742 43.1879 29.9742 43.9248H32.6429ZM29.9742 47.6206C29.9742 48.3576 30.5716 48.955 31.3085 48.955C32.0455 48.955 32.6429 48.3576 32.6429 47.6206H29.9742ZM32.6429 55.947C32.6429 55.21 32.0455 54.6126 31.3085 54.6126C30.5716 54.6126 29.9742 55.21 29.9742 55.947H32.6429ZM29.9742 60.5774C29.9742 61.3143 30.5716 61.9117 31.3085 61.9117C32.0455 61.9117 32.6429 61.3143 32.6429 60.5774H29.9742ZM39.6347 53.5855C40.3716 53.5855 40.969 52.9881 40.969 52.2511C40.969 51.5142 40.3716 50.9168 39.6347 50.9168V53.5855ZM35.8964 50.9168C35.1594 50.9168 34.562 51.5142 34.562 52.2511C34.562 52.9881 35.1594 53.5855 35.8964 53.5855V50.9168ZM26.6781 53.5855C27.415 53.5855 28.0124 52.9881 28.0124 52.2511C28.0124 51.5142 27.415 50.9168 26.6781 50.9168V53.5855ZM22.9822 50.9168C22.2453 50.9168 21.6479 51.5142 21.6479 52.2511C21.6479 52.9881 22.2453 53.5855 22.9822 53.5855V50.9168ZM29.9742 43.9248V47.6206H32.6429V43.9248H29.9742ZM29.9742 55.947V60.5774H32.6429V55.947H29.9742ZM39.6347 50.9168H35.8964V53.5855H39.6347V50.9168ZM26.6781 50.9168H22.9822V53.5855H26.6781V50.9168Z" fill="#2EE5C0"/>
<path d="M134.661 3.52765C134.661 2.79071 134.063 2.1933 133.326 2.1933C132.589 2.1933 131.992 2.79071 131.992 3.52765H134.661ZM131.992 6.76742C131.992 7.50436 132.589 8.10177 133.326 8.10177C134.063 8.10177 134.661 7.50436 134.661 6.76742H131.992ZM134.661 14.0663C134.661 13.3293 134.063 12.7319 133.326 12.7319C132.589 12.7319 131.992 13.3293 131.992 14.0663H134.661ZM131.992 18.1253C131.992 18.8622 132.589 19.4596 133.326 19.4596C134.063 19.4596 134.661 18.8622 134.661 18.1253H131.992ZM140.625 12.1609C141.362 12.1609 141.959 11.5634 141.959 10.8265C141.959 10.0896 141.362 9.49216 140.625 9.49216V12.1609ZM137.348 9.49216C136.611 9.49216 136.014 10.0896 136.014 10.8265C136.014 11.5634 136.611 12.1609 137.348 12.1609V9.49216ZM129.267 12.1609C130.004 12.1609 130.602 11.5634 130.602 10.8265C130.602 10.0896 130.004 9.49216 129.267 9.49216V12.1609ZM126.027 9.49216C125.291 9.49216 124.693 10.0896 124.693 10.8265C124.693 11.5634 125.291 12.1609 126.027 12.1609V9.49216ZM131.992 3.52765V6.76742H134.661V3.52765H131.992ZM131.992 14.0663V18.1253H134.661V14.0663H131.992ZM140.625 9.49216H137.348V12.1609H140.625V9.49216ZM129.267 9.49216H126.027V12.1609H129.267V9.49216Z" fill="#2EE5C0"/>
<path fill-rule="evenodd" clip-rule="evenodd" d="M104.885 145.624H22.7272C18.4791 145.624 14.9957 142.141 14.9957 137.892V84.6215C14.9957 80.3734 18.4791 76.89 22.7272 76.89H104.885C109.133 76.89 112.617 80.3734 112.617 84.6215V137.892C112.617 142.141 109.133 145.624 104.885 145.624Z" stroke="#2EE5C0" stroke-width="2.66869" stroke-linecap="round" stroke-linejoin="round"/>
<path d="M22.9396 86.873C24.1596 86.873 25.1486 85.884 25.1486 84.664C25.1486 83.444 24.1596 82.455 22.9396 82.455C21.7196 82.455 20.7306 83.444 20.7306 84.664C20.7306 85.884 21.7196 86.873 22.9396 86.873Z" fill="#2EE5C0"/>
<path d="M30.1188 86.873C31.3388 86.873 32.3278 85.884 32.3278 84.664C32.3278 83.444 31.3388 82.455 30.1188 82.455C28.8988 82.455 27.9098 83.444 27.9098 84.664C27.9098 85.884 28.8988 86.873 30.1188 86.873Z" fill="#2EE5C0"/>
<path d="M37.2982 86.873C38.5182 86.873 39.5072 85.884 39.5072 84.664C39.5072 83.444 38.5182 82.455 37.2982 82.455C36.0782 82.455 35.0892 83.444 35.0892 84.664C35.0892 85.884 36.0782 86.873 37.2982 86.873Z" fill="#2EE5C0"/>
<path d="M15.0806 92.5231H112.319" stroke="#2EE5C0" stroke-width="2.66869" stroke-linecap="round" stroke-linejoin="round"/>
<path fill-rule="evenodd" clip-rule="evenodd" d="M88.3029 36.461L115.78 52.2649C119.011 54.1155 120.125 58.2238 118.231 61.0737L102.896 87.537C101.002 91.0901 96.9175 92.2004 93.687 90.3498L90.3452 88.4252L88.5629 91.4602C88.3401 91.7933 87.9316 91.9043 87.6346 91.7193L85.7037 90.6089L82.956 95.3464C82.8446 95.5685 82.6218 95.7165 82.399 95.7905L75.8267 97.7521C75.344 97.9002 75.0469 98.4554 75.1583 98.9365L76.6064 104.71C76.7178 105.191 76.4208 105.71 75.9381 105.858L70.1084 107.634C69.6257 107.819 69.3286 108.337 69.44 108.819L70.9253 114.555C71.0738 115.037 70.7396 115.555 70.2569 115.703L64.3901 117.516C63.9074 117.701 63.6103 118.22 63.7217 118.701L65.2813 124.66C65.4298 125.141 65.0956 125.659 64.6129 125.807C64.6129 125.807 60.417 127.102 57.1494 128.176C53.8818 129.249 52.248 127.62 51.6539 125.696C51.0598 123.734 49.3889 117.553 49.3889 117.553C49.3518 117.331 49.3889 117.072 49.5003 116.85L69.9599 81.5411L67.9176 80.3567C67.5834 80.1717 67.472 79.7275 67.6577 79.3944L69.44 76.3595L66.2467 74.5459C63.0534 72.6583 61.9394 68.587 63.796 65.367L79.0943 38.9038C80.988 35.7208 85.0725 34.6104 88.3029 36.461ZM91.4963 51.8948C90.011 54.4486 90.9022 57.7057 93.4642 59.1861C96.0263 60.6666 99.2939 59.7783 100.779 57.2245C102.264 54.6707 101.373 51.4137 98.8112 49.9332C96.2491 48.4528 92.9815 49.341 91.4963 51.8948Z" fill="#00236B"/>
<path fill-rule="evenodd" clip-rule="evenodd" d="M83.2529 40.9765L113.552 43.3823C116.931 43.5673 119.679 46.5652 119.642 50.1554V78.0991C119.642 81.6152 116.894 84.4281 113.478 84.4281H109.876V87.7961C109.876 88.1662 109.616 88.4623 109.282 88.4623H107.203V94.1251C107.203 94.3842 107.091 94.6062 106.943 94.7913L102.524 99.6398C102.19 100.01 102.19 100.565 102.524 100.935L106.423 105.007C106.757 105.34 106.757 105.932 106.423 106.302L102.524 110.706C102.19 111.076 102.19 111.669 102.524 112.002L106.423 115.962C106.757 116.295 106.757 116.887 106.423 117.257L102.524 121.773C102.19 122.143 102.19 122.735 102.524 123.068L106.609 127.139C106.943 127.473 106.943 128.065 106.609 128.435C106.609 128.435 103.824 131.729 101.633 134.283C99.4423 136.836 97.3258 136.429 95.9148 135.134C94.5038 133.839 90.0851 129.619 90.0851 129.619C89.9366 129.434 89.8252 129.212 89.8252 128.953V88.7954H87.523C87.1517 88.7954 86.8547 88.4623 86.8547 88.0922V84.6131H83.2529C79.5397 84.6131 76.532 81.5782 76.532 77.877V47.3055C76.532 43.6043 79.5768 40.7544 83.2529 40.9765ZM93.5012 53.0793C93.5012 55.9662 95.8405 58.3719 98.6625 58.483C101.485 58.594 103.75 56.3363 103.75 53.4864C103.75 50.6365 101.485 48.2308 98.6625 48.0827C95.8034 47.9717 93.5012 50.1924 93.5012 53.0793Z" fill="#007CE9"/>
<path d="M94.8751 7.7771C81.6562 7.7771 70.9251 18.4734 70.9251 31.6496C70.9251 37.0162 72.6703 42.1238 75.9379 46.2691L77.5346 43.5673C75.121 40.0882 73.8214 35.9799 73.8214 31.6496C73.8214 20.0649 83.2529 10.664 94.8751 10.664C106.497 10.664 115.929 20.0649 115.929 31.6496C115.929 43.2342 106.46 52.5981 94.8751 52.5981C94.4295 52.5981 93.9097 52.5611 93.5383 52.5611C93.5012 52.8942 93.4269 53.3013 93.5012 54.1156C93.5755 54.8558 93.8354 55.448 93.8354 55.448C94.3552 55.485 94.3181 55.485 94.838 55.485C108.057 55.485 118.788 44.7887 118.788 31.6125C118.788 18.4364 108.057 7.7771 94.8751 7.7771Z" fill="#00236B"/>
<path opacity="0.2" d="M101.67 134.246C103.861 131.692 106.646 128.398 106.646 128.398C106.98 128.028 106.98 127.435 106.646 127.102L102.561 123.031C102.227 122.698 102.227 122.106 102.561 121.736L106.46 117.22C106.794 116.85 106.794 116.258 106.46 115.925L102.561 111.965C102.227 111.631 102.227 111.039 102.561 110.669L106.46 106.265C106.794 105.895 106.794 105.303 106.46 104.969L102.561 100.898C102.227 100.528 102.227 99.9728 102.561 99.6027L106.98 94.7542C107.128 94.5692 107.24 94.3471 107.24 94.088V89.6096C107.24 88.9434 106.72 88.4252 106.052 88.4252L102.19 88.7953C100.222 88.7953 98.6624 90.3868 98.6624 92.3114V134.357C98.6624 135.319 99.7764 135.911 100.556 135.319C100.927 135.06 101.299 134.69 101.67 134.246Z" fill="#00236B"/>
</svg>
