<svg width="16" height="16" viewBox="0 0 16 16" fill="none" xmlns="http://www.w3.org/2000/svg">
    <path fill-rule="evenodd" clip-rule="evenodd"
        d="M12.25 2.5H3.75C3.33579 2.5 3 2.83579 3 3.25V4.75C3 5.16421 3.33579 5.5 3.75 5.5H4.25H12.25C12.6642 5.5 13 5.16421 13 4.75V3.25C13 2.83579 12.6642 2.5 12.25 2.5ZM12.25 7H5V10.13C5 10.8204 5.55964 11.38 6.25 11.38H7V11.25C7 10.0074 8.00736 9 9.25 9H12.25C13.4926 9 14.5 10.0074 14.5 11.25V12.75C14.5 13.9926 13.4926 15 12.25 15H9.25C8.05099 15 7.07104 14.0621 7.00369 12.88H6.25C4.73122 12.88 3.5 11.6488 3.5 10.13V6.98627C2.37501 6.86191 1.5 5.90814 1.5 4.75V3.25C1.5 2.00736 2.50736 1 3.75 1H12.25C13.4926 1 14.5 2.00736 14.5 3.25V4.75C14.5 5.99264 13.4926 7 12.25 7ZM9.25 10.5H12.25C12.6642 10.5 13 10.8358 13 11.25V12.75C13 13.1642 12.6642 13.5 12.25 13.5H9.25C8.83579 13.5 8.5 13.1642 8.5 12.75V11.25C8.5 10.8358 8.83579 10.5 9.25 10.5Z"
        fill="currentColor" fill-opacity="0.3" />
</svg>
    