<svg width="16" height="16" viewBox="0 0 16 16" fill="currentColor"
    xmlns="http://www.w3.org/2000/svg">
    <path fill-rule="evenodd" clip-rule="evenodd" d="M11.6152 4.88752C12.4288 4.51289 12.5 4.17425 12.5 4C12.5 3.82575 12.4288 3.48711 11.6152 3.11248C10.7988 2.73654 9.53779 2.5 8 2.5C6.46221 2.5 5.20116 2.73654 4.38478 3.11248C3.57123 3.48711 3.5 3.82575 3.5 4C3.5 4.17425 3.57123 4.51289 4.38478 4.88752C5.20116 5.26346 6.46221 5.5 8 5.5C9.53779 5.5 10.7988 5.26346 11.6152 4.88752ZM12.5 6.12262C11.4006 6.70754 9.79204 7 8 7C6.20796 7 4.59942 6.70754 3.5 6.12262V8C3.5 8.17425 3.57123 8.51289 4.38478 8.88752C5.20116 9.26346 6.46221 9.5 8 9.5C9.53779 9.5 10.7988 9.26346 11.6152 8.88752C12.4288 8.51289 12.5 8.17425 12.5 8V6.12262ZM12.5 10.1226C11.4006 10.7075 9.79204 11 8 11C6.20796 11 4.59942 10.7075 3.5 10.1226V12C3.5 12.1743 3.57123 12.5129 4.38478 12.8875C5.20116 13.2635 6.46221 13.5 8 13.5C9.53779 13.5 10.7988 13.2635 11.6152 12.8875C12.4288 12.5129 12.5 12.1743 12.5 12V10.1226ZM14 4C14 2 11.3137 1 8 1C4.68629 1 2 2 2 4V8V12C2 14 4.68629 15 8 15C11.3137 15 14 14 14 12V8V4Z" />
</svg>
