<svg width="16" height="16" viewBox="0 0 24 24" fill="currentColor" fill-opacity="0.85" xmlns="http://www.w3.org/2000/svg">
    <path d="M13.7778 11.7778C13.7778 10.8148 12.963 10 12 10C11 10 10.2222 10.8148 10.2222 11.7778C10.2222 12.7778 11 13.5556 12 13.5556C12.963 13.5556 13.7778 12.7778 13.7778 11.7778ZM18.2222 10C17.2222 10 16.4444 10.8148 16.4444 11.7778C16.4444 12.7778 17.2222 13.5556 18.2222 13.5556C19.1852 13.5556 20 12.7778 20 11.7778C20 10.8148 19.1852 10 18.2222 10ZM5.77778 10C4.77778 10 4 10.8148 4 11.7778C4 12.7778 4.77778 13.5556 5.77778 13.5556C6.74074 13.5556 7.55556 12.7778 7.55556 11.7778C7.55556 10.8148 6.74074 10 5.77778 10Z"/>
</svg>
