<svg xmlns="http://www.w3.org/2000/svg" fill="none" viewBox="0 0 379 350"><path fill="#EBF2FA" d="M117.733 4.33v43.2c0 2.1 1.5 3.9 3.6 4.3 28.5 5.1 49.9 30.5 48.8 60.7-1.1 30.9-26.3 56-57.1 57.2-30.2 1.1-55.5-20.3-60.7-48.7-.4-2.1-2.2-3.6-4.3-3.6h-43.2c-2.6 0-4.6 2.2-4.3 4.7 5.9 56 53.5 99.5 111.2 99 60.2-.5 109.3-49.7 109.8-109.9.5-57.7-43.1-105.3-99.1-111.2-2.5-.3-4.7 1.7-4.7 4.3z"/><path fill="#EBF2FA" fill-rule="evenodd" d="m39.433 31.43 30.5 30.5c1.5 1.5 3.9 1.7 5.7.4 7.1-5.3 15.5-8.9 24.6-10.6 2.1-.4 3.6-2.1 3.6-4.3V4.33c0-2.6-2.2-4.6-4.8-4.3-22.4 2.4-42.9 11.4-59.3 25.1-2 1.6-2.1 4.5-.3 6.3zm-16.1 10.501c-12.4 16-20.6 35.4-22.8 56.6-.3 2.5 1.8 4.7 4.3 4.7h43.1c2.1 0 3.9-1.5 4.3-3.6 1.4-8 4.5-15.5 8.8-22 1.1-1.7.9-4-.5-5.5l-30.7-30.5c-1.8-1.9-4.9-1.7-6.5.3zm115.2 183.897h56.5c3.2 0 5.8 2.6 5.9 5.9v111.7c0 3.3-2.7 5.9-5.9 5.9h-56.5c-3.3 0-5.9-2.7-5.9-5.9v-111.7c0-3.3 2.7-5.9 5.9-5.9zm133.3 46.402h-56.3c-3.3 0-6 2.7-6 6v65c0 3.3 2.7 6 6 6h56.3c3.3 0 6-2.7 6-6v-65c0-3.3-2.7-6-6-6zm20.9 31.301h55.8c3.4 0 6.2 2.8 6.2 6.2v33.2c0 3.4-2.8 6.2-6.2 6.2h-55.8c-3.4 0-6.2-2.8-6.2-6.2v-33.2c0-3.4 2.8-6.2 6.2-6.2z" clip-rule="evenodd"/><path stroke="#2EE5C0" stroke-linecap="round" stroke-linejoin="round" stroke-width="4" d="M230.433 293.73h-193.5c-10 0-18.2-8.2-18.2-18.2v-125.4c0-10 8.2-18.2 18.2-18.2h193.4c10 0 18.2 8.2 18.2 18.2v125.4c.1 10.1-8.1 18.2-18.1 18.2z" clip-rule="evenodd"/><path fill="#2EE5C0" d="M37.533 155.431a5.2 5.2 0 1 0 0-10.4 5.2 5.2 0 0 0 0 10.4zm16.9 0a5.2 5.2 0 1 0 0-10.4 5.2 5.2 0 0 0 0 10.4zm16.9 0a5.2 5.2 0 1 0 0-10.4 5.2 5.2 0 0 0 0 10.4z"/><path stroke="#2EE5C0" stroke-linecap="round" stroke-linejoin="round" stroke-width="4" d="M19.033 168.828h228.9"/><path fill="#027BF3" d="m316.533 255.428-216.9 12c-7.3.4-13.3-5.2-13.3-12.5v-167.4c0-7.3 6-12.9 13.3-12.5l216.9 12c5.6.3 10.1 5.7 10.1 12v144.4c0 6.3-4.5 11.7-10.1 12z"/><path fill="#fff" fill-rule="evenodd" d="M112.033 92.727c0 3.4-2.7 6-6.1 5.8-3.4-.1-6.1-3-6.1-6.4 0-3.4 2.8-6 6.1-5.8 3.3.1 6.1 3 6.1 6.4zm19.7.798c0 3.3-2.7 5.9-6 5.8-3.3-.1-6-3-6-6.3s2.7-5.9 6-5.8c3.3.2 6 3 6 6.3zm13.4 6.601c3.2.2 5.8-2.4 5.8-5.7 0-3.3-2.6-6.1-5.8-6.2-3.3-.2-5.9 2.4-5.9 5.7 0 3.3 2.7 6.1 5.9 6.2z" clip-rule="evenodd"/><path fill="#00236B" fill-rule="evenodd" d="M129.733 244.829v-98.8c-6.8-.9-14.7-.7-23.8 1.2v98.7l23.8-1.1zm22.9-89.599v88.7l-19 .8v-98c7.4 1.6 13.6 4.7 19 8.5zm23 23.8c-.1-.1-.175-.2-.25-.3-.075-.1-.15-.2-.25-.3a728.79 728.79 0 0 1-2.167-2.647c-4.923-6.031-10.058-12.324-16.333-17.553v85.5l19-.8v-63.9zm23 9.8c-6.7-.1-13.2-1.2-19-5.9v59.8l19-.8v-53.1zm23-.701c-4.734-.296-9.468.01-14.121.31h-.001c-1.637.106-3.264.211-4.878.29v53l19-.8v-52.8zm41.1 51.1-14.1.6v-38c14 15.9 14.1 37.4 14.1 37.4zm-22.3-44.7c1.5 1 2.9 2.1 4.2 3.3v42.2l-19 .8v-52.2c5 .8 9.9 2.5 14.8 5.9z" clip-rule="evenodd"/><path stroke="#fff" stroke-linecap="round" stroke-linejoin="round" stroke-width="4" d="M105.833 125.227v120.7l196.2-9.1"/><path fill="#fff" d="M97.072 131.778a2 2 0 0 0 3.123 2.499l-3.123-2.499zm8.761-7.751 1.575-1.232a2 2 0 0 0-3.136-.017l1.561 1.249zm5.625 10.433a2 2 0 0 0 3.15-2.465l-3.15 2.465zm182.825 93.607a2 2 0 1 0-2.499 3.124l2.499-3.124zm7.75 8.762 1.214 1.59a2.002 2.002 0 0 0 .036-3.152l-1.25 1.562zm-10.513 5.51a2 2 0 0 0 2.427 3.18l-2.427-3.18zM100.195 134.277l7.2-9-3.123-2.499-7.2 9 3.123 2.499zm4.063-9.017 7.2 9.2 3.15-2.465-7.2-9.2-3.15 2.465zm187.526 105.931 9 7.2 2.499-3.124-9-7.2-2.499 3.124zm9.036 4.048-9.3 7.1 2.427 3.18 9.3-7.1-2.427-3.18zM252.408 119.83a1.999 1.999 0 1 0-.149 3.997l.149-3.997zm50.851 5.897a2 2 0 0 0 .149-3.997l-.149 3.997zm-50.875 12.102a2 2 0 0 0-.102 3.998l.102-3.998zm50.898 5.298a2 2 0 1 0 .102-3.998l-.102 3.998zm-50.937 13.001a2 2 0 0 0-.024 4l.024-4zm50.976 4.3a2 2 0 1 0 .024-4l-.024 4zm-51.062-36.601 51 1.9.149-3.997-51-1.9-.149 3.997zm.023 18 51 1.3.102-3.998-51-1.3-.102 3.998zm.039 18.301 51 .3.024-4-51-.3-.024 4z"/><path fill="#fff" fill-rule="evenodd" d="M246.133 121.926c0 2.4-2 4.3-4.4 4.2-2.4-.1-4.4-2.2-4.4-4.6 0-2.4 2-4.4 4.4-4.2 2.5.1 4.4 2.2 4.4 4.6zm0 17.802c0 2.4-2 4.3-4.4 4.2-2.4-.1-4.4-2.2-4.4-4.6 0-2.5 2-4.4 4.4-4.2 2.5.1 4.4 2.2 4.4 4.6zm-4.4 22c2.4.1 4.4-1.8 4.4-4.2 0-2.4-1.9-4.5-4.4-4.6-2.4-.2-4.4 1.8-4.4 4.2 0 2.4 2 4.5 4.4 4.6z" clip-rule="evenodd"/><path fill="#00236B" d="M326.633 157.327v-58.4c0-6.3-4.5-11.7-10.1-12l-40.5-2.2c-1.9 5.8-3 12.1-3 18.8 0 30.2 21.9 54.5 48.1 54.2 1.8.1 3.7-.1 5.5-.4z" opacity=".2"/><path fill="#FF4645" d="M378.333 100.831c0-28.4-19.9-52.7-45.3-54.2-26.2-1.5-48.1 21.7-48.1 51.9s21.9 54.5 48.1 54.2c25.4-.2 45.3-23.5 45.3-51.9z"/><path fill="#FC0" d="M369.233 69.133c-8.2-12.8-21.2-21.6-36.2-22.5v53.1l36.2-30.6z"/><path fill="#00236B" d="m369.233 69.133-36.2 30.6 45.3 1.1c0-11.8-3.4-22.8-9.1-31.7z"/><path fill="#FF4645" d="M333.133 99.731v-53.1c-26.2-1.5-48.1 21.7-48.1 51.9l48.1 1.2z"/><path fill="#2EE5C0" d="M275.033 25.23a2 2 0 1 0-4 0h4zm-4 7.2a2 2 0 0 0 4 0h-4zm4 15.199a2 2 0 1 0-4 0h4zm-4 7.8a2 2 0 0 0 4 0h-4zm17.1-13.097a2 2 0 1 0 0-4v4zm-7.3-4a2 2 0 0 0 0 4v-4zm-15.7 4a2 2 0 1 0 0-4v4zm-7.3-4a2 2 0 0 0 0 4v-4zm13.2-13.102v7.2h4v-7.2h-4zm0 22.399v7.8h4v-7.8h-4zm17.1-9.297h-7.3v4h7.3v-4zm-23 0h-7.3v4h7.3v-4z"/></svg>
