<svg width="16" height="14" viewBox="0 0 16 14" fill="none" xmlns="http://www.w3.org/2000/svg">
<path fill-rule="evenodd" clip-rule="evenodd" d="M6.83623 2.20214L1.73981 4.38632C1.59433 4.44867 1.5 4.59172 1.5 4.75C1.5 4.90828 1.59433 5.05133 1.73981 5.11368L6.83623 7.29786C7.14742 7.43123 7.48246 7.5 7.82103 7.5H8.17897C8.51754 7.5 8.85258 7.43123 9.16377 7.29786L14.2602 5.11368C14.4057 5.05133 14.5 4.90828 14.5 4.75C14.5 4.59172 14.4057 4.44867 14.2602 4.38632L9.16377 2.20214C8.85258 2.06877 8.51754 2 8.17897 2H7.82103C7.48246 2 7.14742 2.06877 6.83623 2.20214ZM1.5 6.64286L2.99994 7.28569V10.5139C2.99994 11.2714 3.42795 11.9639 4.10553 12.3027L4.91188 12.7059C6.85869 13.6793 9.1475 13.6917 11.1047 12.7394L12.0136 12.2973C12.7018 11.9624 13.1386 11.2642 13.1386 10.4988V7.22631L14.8511 6.4924C15.5481 6.19368 16 5.50832 16 4.75C16 3.99168 15.5481 3.30632 14.8511 3.0076L9.75465 0.82342C9.25674 0.610031 8.72068 0.5 8.17897 0.5H7.82103C7.27932 0.5 6.74326 0.610031 6.24535 0.82342L1.14893 3.0076C0.451923 3.30632 0 3.99168 0 4.75V9.25C0 9.66421 0.335787 10 0.75 10C1.16421 10 1.5 9.66421 1.5 9.25V6.64286ZM4.49994 10.5139V7.92855L6.24535 8.67658C6.74326 8.88997 7.27932 9 7.82103 9H8.17897C8.72068 9 9.25674 8.88997 9.75465 8.67658L11.6386 7.86917V10.4988C11.6386 10.6902 11.5294 10.8647 11.3573 10.9484L10.4485 11.3906C8.91068 12.1388 7.11233 12.129 5.58269 11.3642L4.77634 10.9611C4.60694 10.8764 4.49994 10.7032 4.49994 10.5139Z" fill="currentColor"/>
</svg>
