<svg width="161" height="161" viewBox="0 0 161 161" fill="none" xmlns="http://www.w3.org/2000/svg">
    <rect width="160.122" height="160.122" fill="white" fill-opacity="0" />
    <rect width="160.122" height="160.122" fill="white" fill-opacity="0" />
    <path
        d="M131.112 30.7698V23.4594C131.112 22.0709 130.05 20.9682 128.703 20.8865C123.107 20.6823 108.936 20.1514 97.1739 20.1514C82.2264 20.1514 72.7923 30.1981 72.7923 30.1981C72.7923 30.1981 63.3173 20.1922 48.3698 20.1922C36.6486 20.1922 22.4362 20.6823 16.8411 20.9273C15.4934 20.9682 14.4315 22.1117 14.4315 23.5003V30.8107H9.20397C7.8154 30.8107 6.67188 31.9542 6.67188 33.3836V111.47C6.67188 112.9 7.8154 114.043 9.20397 114.043H136.381C137.769 114.043 138.913 112.9 138.913 111.47V33.3428C138.913 31.9134 137.769 30.7698 136.381 30.7698H131.112Z"
        fill="#ECF2F9" />
    <path
        d="M45.3915 47.0243L41.5116 46.9018C39.2246 46.8201 37.6726 48.8621 38.0402 51.4759L46.1266 106.569C46.4941 109.142 48.6587 111.225 50.9457 111.225"
        stroke="#2EE5C0" stroke-width="2.66869" stroke-linecap="round" stroke-linejoin="round" />
    <path
        d="M38.5301 48.4125L34.6503 48.29C32.3632 48.2083 30.8113 50.2503 31.1789 52.8641L39.2652 107.958C39.6328 110.531 41.7973 112.613 44.0844 112.613"
        stroke="#2EE5C0" stroke-width="2.66869" stroke-linecap="round" stroke-linejoin="round" />
    <path
        d="M31.6278 49.8422L27.748 49.7197C25.4609 49.638 23.909 51.68 24.2765 54.2938L32.3629 109.387C32.7305 111.96 34.895 114.043 37.1821 114.043"
        stroke="#2EE5C0" stroke-width="2.66869" stroke-linecap="round" stroke-linejoin="round" />
    <path
        d="M24.3579 52.0472L25.6866 51.9246C25.6254 51.2617 25.0849 50.7453 24.4199 50.7143L24.3579 52.0472ZM20.8456 51.8839L20.9076 50.551C20.9028 50.5508 20.898 50.5506 20.8932 50.5504L20.8456 51.8839ZM17.3742 56.458L16.0528 56.6438L16.054 56.6518L17.3742 56.458ZM25.4606 111.552L26.7815 111.363L26.7808 111.358L25.4606 111.552ZM30.2797 116.207V117.542C30.6549 117.542 31.0128 117.384 31.2656 117.106C31.5185 116.829 31.6429 116.458 31.6084 116.085L30.2797 116.207ZM139.444 105.548L138.122 105.733L138.124 105.746L139.444 105.548ZM132.051 52.9048L133.373 52.7193L133.372 52.7101L132.051 52.9048ZM127.6 48.2899L127.651 46.9565L127.64 46.9561L127.6 48.2899ZM48.0022 45.8803L47.9546 47.2138L47.9618 47.214L48.0022 45.8803ZM44.5716 50.4544L45.8919 50.261L45.89 50.2484L44.5716 50.4544ZM52.6171 105.385L53.9377 105.193L53.9374 105.191L52.6171 105.385ZM24.4199 50.7143L20.9076 50.551L20.7836 53.2168L24.2959 53.3802L24.4199 50.7143ZM20.8932 50.5504C19.309 50.4938 17.9378 51.1862 17.0517 52.3532C16.1787 53.503 15.8269 55.0372 16.0528 56.6438L18.6955 56.2722C18.5539 55.265 18.7943 54.4713 19.1772 53.967C19.5469 53.4801 20.0952 53.1923 20.798 53.2174L20.8932 50.5504ZM16.054 56.6518L24.1404 111.745L26.7808 111.358L18.6944 56.2642L16.054 56.6518ZM24.1396 111.74C24.5829 114.843 27.2075 117.542 30.2797 117.542V114.873C28.7779 114.873 27.0734 113.406 26.7815 111.363L24.1396 111.74ZM31.6084 116.085L25.6866 51.9246L23.0292 52.1699L28.951 116.33L31.6084 116.085ZM57.3955 111.334H136.299V108.665H57.3955V111.334ZM136.299 111.334C139.444 111.334 141.212 108.343 140.763 105.35L138.124 105.746C138.41 107.654 137.32 108.665 136.299 108.665V111.334ZM140.765 105.362L133.373 52.7193L130.73 53.0904L138.122 105.733L140.765 105.362ZM133.372 52.7101C132.936 49.757 130.577 47.0691 127.651 46.9565L127.549 49.6232C128.87 49.6741 130.432 51.0702 130.731 53.0996L133.372 52.7101ZM127.64 46.9561L48.0426 44.5466L47.9618 47.214L127.56 49.6236L127.64 46.9561ZM48.0498 44.5468C46.4665 44.4903 45.0927 45.182 44.2102 46.3538C43.3401 47.5092 43.0016 49.0498 43.2533 50.6604L45.89 50.2484C45.7332 49.2453 45.9664 48.458 46.342 47.9593C46.7051 47.4771 47.2508 47.1887 47.9546 47.2138L48.0498 44.5468ZM43.2513 50.6478L51.2969 105.578L53.9374 105.191L45.8919 50.261L43.2513 50.6478ZM51.2966 105.576C51.7406 108.634 54.3631 111.334 57.3955 111.334V108.665C55.9354 108.665 54.2288 107.199 53.9376 105.193L51.2966 105.576Z"
        fill="#2EE5C0" />
    <path d="M97.3378 75.8573L96.521 75.8165L96.3984 75.0405" stroke="#2EE5C0"
        stroke-width="2.66869" stroke-linecap="round" stroke-linejoin="round" />
    <path d="M95.7457 71.2422L93.377 57.1523" stroke="#2EE5C0" stroke-width="2.66869"
        stroke-linecap="round" stroke-linejoin="round" stroke-dasharray="2.52 6.3" />
    <path d="M93.0483 55.2738L92.9258 54.457H93.7426" stroke="#2EE5C0" stroke-width="2.66869"
        stroke-linecap="round" stroke-linejoin="round" />
    <path d="M97.582 54.5796L122.576 55.233" stroke="#2EE5C0" stroke-width="2.66869"
        stroke-linecap="round" stroke-linejoin="round" stroke-dasharray="2.51 6.28" />
    <path d="M124.494 55.2739L125.311 55.3148L125.433 56.1316" stroke="#2EE5C0"
        stroke-width="2.66869" stroke-linecap="round" stroke-linejoin="round" />
    <path d="M126.049 59.8481L128.377 73.7338" stroke="#2EE5C0" stroke-width="2.66869"
        stroke-linecap="round" stroke-linejoin="round" stroke-dasharray="2.48 6.2" />
    <path d="M128.704 75.6123L128.827 76.3883H128.01" stroke="#2EE5C0" stroke-width="2.66869"
        stroke-linecap="round" stroke-linejoin="round" />
    <path d="M124.168 76.3068L99.2559 75.8984" stroke="#2EE5C0" stroke-width="2.66869"
        stroke-linecap="round" stroke-linejoin="round" stroke-dasharray="2.5 6.26" />
    <path d="M56.9901 75.1633L56.1733 75.1225L56.0508 74.3057" stroke="#2EE5C0"
        stroke-width="2.66869" stroke-linecap="round" stroke-linejoin="round" />
    <path d="M55.3977 70.4668L52.9473 56.1318" stroke="#2EE5C0" stroke-width="2.66869"
        stroke-linecap="round" stroke-linejoin="round" stroke-dasharray="2.57 6.42" />
    <path d="M52.6145 54.1713L52.4512 53.3545L53.268 53.3953" stroke="#2EE5C0"
        stroke-width="2.66869" stroke-linecap="round" stroke-linejoin="round" />
    <path d="M57.2734 53.5176L83.2887 54.2119" stroke="#2EE5C0" stroke-width="2.66869"
        stroke-linecap="round" stroke-linejoin="round" stroke-dasharray="2.62 6.54" />
    <path d="M85.291 54.2529H86.1078L86.2303 55.0697" stroke="#2EE5C0" stroke-width="2.66869"
        stroke-linecap="round" stroke-linejoin="round" />
    <path d="M86.8809 58.9087L89.2904 72.9986" stroke="#2EE5C0" stroke-width="2.66869"
        stroke-linecap="round" stroke-linejoin="round" stroke-dasharray="2.53 6.32" />
    <path d="M89.5773 74.918L89.7406 75.7348L88.9238 75.6939" stroke="#2EE5C0"
        stroke-width="2.66869" stroke-linecap="round" stroke-linejoin="round" />
    <path d="M84.9258 75.6532L58.9922 75.1631" stroke="#2EE5C0" stroke-width="2.66869"
        stroke-linecap="round" stroke-linejoin="round" stroke-dasharray="2.61 6.52" />
    <path
        d="M16.0264 129.808L62.7885 131.645C64.0545 131.686 67.1176 131.074 67.1176 130.338V94.1131C67.1176 93.3372 66.0966 92.7654 64.8305 92.8063L15.9855 95.0116C14.8829 95.0525 13.9844 96.1143 13.9844 97.7888V127.847C14.0252 129.317 14.9237 129.767 16.0264 129.808Z"
        fill="#00236B" />
    <path
        d="M149.651 130.011L64.9888 131.645C62.7835 131.686 61.0273 129.726 61.0273 126.785V85.9857C61.0273 82.8818 62.8243 81.0848 64.9888 81.1257L149.651 82.7593C151.57 82.8001 153.081 84.6379 153.081 87.3334V126.172C153.081 129.113 151.529 129.971 149.651 130.011Z"
        fill="#027BF3" />
    <path d="M92.5167 96.3184V115.922" stroke="white" stroke-width="2.66869" stroke-linecap="round"
        stroke-linejoin="round" />
    <path fill-rule="evenodd" clip-rule="evenodd"
        d="M92.5131 98.9727C94.065 99.0135 95.3311 97.8292 95.3311 96.3589C95.3311 94.8887 94.065 93.6634 92.5131 93.6226C90.9203 93.5818 89.6543 94.7661 89.6543 96.2364C89.6543 97.7066 90.9612 98.9318 92.5131 98.9727ZM92.5131 108.856C94.065 108.856 95.3311 107.672 95.3311 106.202C95.3311 104.731 94.065 103.547 92.5131 103.506C90.9203 103.506 89.6543 104.69 89.6543 106.161C89.6543 107.631 90.9612 108.856 92.5131 108.856ZM95.3311 116.085C95.3311 117.555 94.065 118.78 92.5131 118.78C90.9612 118.78 89.6543 117.596 89.6543 116.126C89.6543 114.655 90.9203 113.43 92.5131 113.43C94.065 113.43 95.3311 114.615 95.3311 116.085ZM103.26 99.5038L125.967 99.9122C127.356 99.9122 128.5 98.8095 128.54 97.3393V97.0534C128.54 95.6648 127.397 94.4805 125.967 94.4396L103.26 93.8679C102.484 93.8679 101.79 94.1537 101.259 94.6438L99.2579 96.6042L101.259 98.6462C101.79 99.1771 102.525 99.5038 103.26 99.5038ZM125.967 109.142L103.26 109.06C102.525 109.06 101.79 108.774 101.259 108.243L99.2579 106.242L101.259 104.282C101.79 103.751 102.484 103.465 103.26 103.506L125.967 103.751C127.397 103.751 128.54 104.935 128.54 106.324V106.61C128.5 107.998 127.356 109.142 125.967 109.142ZM103.26 118.617L125.967 118.372C127.356 118.372 128.5 117.228 128.54 115.799V115.513C128.54 114.125 127.397 112.981 125.967 112.981L103.26 113.063C102.484 113.063 101.79 113.349 101.259 113.88L99.2579 115.881L101.259 117.841C101.79 118.331 102.525 118.617 103.26 118.617Z"
        fill="#027BF3" />
    <path
        d="M92.5131 98.9727L92.5482 97.6388L92.5131 98.9727ZM92.5131 93.6226L92.5482 92.2887L92.5473 92.2887L92.5131 93.6226ZM92.5131 103.506L92.5482 102.172C92.5365 102.172 92.5248 102.172 92.5131 102.172V103.506ZM125.967 99.9122L125.943 101.246C125.951 101.246 125.959 101.247 125.967 101.247V99.9122ZM103.26 99.5038L103.284 98.1697C103.276 98.1695 103.268 98.1695 103.26 98.1695V99.5038ZM128.54 97.3393L129.874 97.3763C129.875 97.364 129.875 97.3516 129.875 97.3393H128.54ZM125.967 94.4396L126.006 93.1058L126.001 93.1057L125.967 94.4396ZM103.26 93.8679L103.294 92.5339C103.283 92.5337 103.271 92.5335 103.26 92.5335V93.8679ZM101.259 94.6438L100.354 93.6633C100.344 93.6723 100.335 93.6814 100.325 93.6906L101.259 94.6438ZM99.2579 96.6042L98.3242 95.651C98.0714 95.8986 97.9273 96.2366 97.9237 96.5905C97.9201 96.9445 98.0572 97.2853 98.3049 97.5381L99.2579 96.6042ZM101.259 98.6462L100.306 99.5802L100.316 99.5897L101.259 98.6462ZM103.26 109.06L103.265 107.726H103.26V109.06ZM125.967 109.142L125.963 110.476H125.967V109.142ZM99.2579 106.242L98.3242 105.289C98.0697 105.538 97.9255 105.879 97.9236 106.235C97.9218 106.592 98.0625 106.934 98.3144 107.186L99.2579 106.242ZM101.259 104.282L102.193 105.235L102.203 105.225L101.259 104.282ZM103.26 103.506L103.19 104.838C103.209 104.839 103.227 104.84 103.246 104.84L103.26 103.506ZM125.967 103.751L125.953 105.085C125.958 105.085 125.963 105.085 125.967 105.085V103.751ZM128.54 106.61L129.874 106.649C129.875 106.636 129.875 106.623 129.875 106.61H128.54ZM125.967 118.372V117.038C125.963 117.038 125.958 117.038 125.953 117.038L125.967 118.372ZM103.26 118.617V119.951C103.265 119.951 103.27 119.951 103.275 119.951L103.26 118.617ZM128.54 115.799L129.874 115.837C129.875 115.824 129.875 115.812 129.875 115.799H128.54ZM125.967 112.981V111.647L125.963 111.647L125.967 112.981ZM103.26 113.063V114.397L103.265 114.397L103.26 113.063ZM101.259 113.88L100.316 112.936L100.316 112.936L101.259 113.88ZM99.2579 115.881L98.3144 114.937C98.0625 115.189 97.9218 115.531 97.9236 115.888C97.9255 116.244 98.0697 116.585 98.3242 116.834L99.2579 115.881ZM101.259 117.841L100.325 118.794C100.335 118.803 100.344 118.813 100.354 118.821L101.259 117.841ZM93.9967 96.3589C93.9967 97.0202 93.4093 97.6615 92.5482 97.6388L92.478 100.307C94.7208 100.366 96.6654 98.6381 96.6654 96.3589H93.9967ZM92.478 94.9565C93.3784 94.9802 93.9967 95.6814 93.9967 96.3589H96.6654C96.6654 94.0959 94.7517 92.3467 92.5482 92.2887L92.478 94.9565ZM90.9886 96.2364C90.9886 95.5878 91.5629 94.933 92.4789 94.9565L92.5473 92.2887C90.2778 92.2305 88.3199 93.9444 88.3199 96.2364H90.9886ZM92.5482 97.6388C91.6224 97.6144 90.9886 96.8902 90.9886 96.2364H88.3199C88.3199 98.5231 90.2999 100.249 92.478 100.307L92.5482 97.6388ZM93.9967 106.202C93.9967 106.858 93.4071 107.522 92.5131 107.522V110.19C94.723 110.19 96.6654 108.485 96.6654 106.202H93.9967ZM92.478 104.84C93.4051 104.864 93.9967 105.549 93.9967 106.202H96.6654C96.6654 103.914 94.725 102.229 92.5482 102.172L92.478 104.84ZM90.9886 106.161C90.9886 105.516 91.5654 104.84 92.5131 104.84V102.172C90.2753 102.172 88.3199 103.865 88.3199 106.161H90.9886ZM92.5131 107.522C91.6208 107.522 90.9886 106.819 90.9886 106.161H88.3199C88.3199 108.443 90.3016 110.19 92.5131 110.19V107.522ZM92.5131 120.115C94.7501 120.115 96.6654 118.343 96.6654 116.085H93.9967C93.9967 116.767 93.38 117.446 92.5131 117.446V120.115ZM88.3199 116.126C88.3199 118.433 90.329 120.115 92.5131 120.115V117.446C91.5934 117.446 90.9886 116.759 90.9886 116.126H88.3199ZM92.5131 112.096C90.2481 112.096 88.3199 113.855 88.3199 116.126H90.9886C90.9886 115.455 91.5926 114.765 92.5131 114.765V112.096ZM96.6654 116.085C96.6654 113.801 94.723 112.096 92.5131 112.096V114.765C93.4071 114.765 93.9967 115.428 93.9967 116.085H96.6654ZM125.991 98.5781L103.284 98.1697L103.236 100.838L125.943 101.246L125.991 98.5781ZM127.207 97.3022C127.185 98.0711 126.613 98.5779 125.967 98.5779V101.247C128.099 101.247 129.814 99.548 129.874 97.3763L127.207 97.3022ZM127.206 97.0534V97.3393H129.875V97.0534H127.206ZM125.929 95.7734C126.645 95.7939 127.206 96.3954 127.206 97.0534H129.875C129.875 94.9343 128.148 93.167 126.006 93.1058L125.929 95.7734ZM103.227 95.2018L125.934 95.7736L126.001 93.1057L103.294 92.5339L103.227 95.2018ZM102.164 95.6243C102.452 95.3584 102.825 95.2022 103.26 95.2022V92.5335C102.144 92.5335 101.128 92.9491 100.354 93.6633L102.164 95.6243ZM100.192 97.5574L102.193 95.597L100.325 93.6906L98.3242 95.651L100.192 97.5574ZM102.212 97.7122L100.211 95.6702L98.3049 97.5381L100.306 99.5801L102.212 97.7122ZM103.26 98.1695C102.909 98.1695 102.505 98.0052 102.203 97.7026L100.316 99.5897C101.075 100.349 102.141 100.838 103.26 100.838V98.1695ZM103.255 110.395L125.963 110.476L125.972 107.808L103.265 107.726L103.255 110.395ZM100.316 109.187C101.11 109.981 102.19 110.395 103.26 110.395V107.726C102.86 107.726 102.47 107.568 102.203 107.3L100.316 109.187ZM98.3144 107.186L100.316 109.187L102.203 107.3L100.201 105.299L98.3144 107.186ZM100.325 103.329L98.3242 105.289L100.192 107.195L102.193 105.235L100.325 103.329ZM103.33 102.173C102.16 102.112 101.102 102.552 100.316 103.338L102.203 105.225C102.478 104.95 102.809 104.818 103.19 104.838L103.33 102.173ZM125.982 102.417L103.275 102.172L103.246 104.84L125.953 105.085L125.982 102.417ZM129.875 106.324C129.875 104.212 128.148 102.417 125.967 102.417V105.085C126.646 105.085 127.206 105.659 127.206 106.324H129.875ZM129.875 106.61V106.324H127.206V106.61H129.875ZM125.967 110.476C128.1 110.476 129.813 108.736 129.874 106.649L127.207 106.571C127.186 107.261 126.612 107.808 125.967 107.808V110.476ZM125.953 117.038L103.246 117.283L103.275 119.951L125.982 119.706L125.953 117.038ZM127.207 115.761C127.185 116.504 126.599 117.038 125.967 117.038V119.706C128.113 119.706 129.814 117.953 129.874 115.837L127.207 115.761ZM127.206 115.513V115.799H129.875V115.513H127.206ZM125.967 114.315C126.674 114.315 127.206 114.875 127.206 115.513H129.875C129.875 113.374 128.12 111.647 125.967 111.647V114.315ZM103.265 114.397L125.972 114.315L125.963 111.647L103.255 111.728L103.265 114.397ZM102.203 114.823C102.477 114.548 102.83 114.397 103.26 114.397V111.728C102.139 111.728 101.103 112.149 100.316 112.936L102.203 114.823ZM100.201 116.824L102.203 114.823L100.316 112.936L98.3144 114.937L100.201 116.824ZM102.193 116.888L100.192 114.927L98.3242 116.834L100.325 118.794L102.193 116.888ZM103.26 117.283C102.856 117.283 102.445 117.12 102.164 116.861L100.354 118.821C101.135 119.542 102.195 119.951 103.26 119.951V117.283Z"
        fill="white" />
    <path
        d="M148.575 18.6812C148.575 17.9442 147.978 17.3468 147.241 17.3468C146.504 17.3468 145.906 17.9442 145.906 18.6812H148.575ZM145.906 21.6625C145.906 22.3994 146.504 22.9968 147.241 22.9968C147.978 22.9968 148.575 22.3994 148.575 21.6625H145.906ZM148.575 27.8701C148.575 27.1332 147.978 26.5358 147.241 26.5358C146.504 26.5358 145.906 27.1332 145.906 27.8701H148.575ZM145.906 31.0965C145.906 31.8334 146.504 32.4308 147.241 32.4308C147.978 32.4308 148.575 31.8334 148.575 31.0965H145.906ZM153.447 26.2233C154.184 26.2233 154.782 25.6259 154.782 24.8889C154.782 24.152 154.184 23.5546 153.447 23.5546V26.2233ZM150.466 23.5546C149.729 23.5546 149.132 24.152 149.132 24.8889C149.132 25.6259 149.729 26.2233 150.466 26.2233V23.5546ZM144.015 26.2233C144.751 26.2233 145.349 25.6259 145.349 24.8889C145.349 24.152 144.751 23.5546 144.015 23.5546V26.2233ZM141.033 23.5546C140.296 23.5546 139.699 24.152 139.699 24.8889C139.699 25.6259 140.296 26.2233 141.033 26.2233V23.5546ZM145.906 18.6812V21.6625H148.575V18.6812H145.906ZM145.906 27.8701V31.0965H148.575V27.8701H145.906ZM153.447 23.5546H150.466V26.2233H153.447V23.5546ZM144.015 23.5546H141.033V26.2233H144.015V23.5546Z"
        fill="#2EE5C0" />
</svg>
    