<svg width="16" height="16" viewBox="0 0 16 16" fill="currentColor"
    xmlns="http://www.w3.org/2000/svg">
    <path fill-rule="evenodd" clip-rule="evenodd"
        d="M4 3.5H12C12.8284 3.5 13.5 4.17157 13.5 5V7.25H2.5V5C2.5 4.17157 3.17157 3.5 4 3.5ZM2.5 8.75V11C2.5 11.8284 3.17157 12.5 4 12.5H12C12.8284 12.5 13.5 11.8284 13.5 11V8.75H2.5ZM1 5C1 3.34315 2.34315 2 4 2H12C13.6569 2 15 3.34315 15 5V11C15 12.6569 13.6569 14 12 14H4C2.34315 14 1 12.6569 1 11V5ZM3.75 5.5C3.75 5.08579 4.08579 4.75 4.5 4.75H7C7.41421 4.75 7.75 5.08579 7.75 5.5C7.75 5.91421 7.41421 6.25 7 6.25H4.5C4.08579 6.25 3.75 5.91421 3.75 5.5ZM4.5 9.75C4.08579 9.75 3.75 10.0858 3.75 10.5C3.75 10.9142 4.08579 11.25 4.5 11.25H7C7.41421 11.25 7.75 10.9142 7.75 10.5C7.75 10.0858 7.41421 9.75 7 9.75H4.5Z" />
</svg>
    