<svg width="16" height="16" viewBox="0 0 16 16" fill="currentColor"
    xmlns="http://www.w3.org/2000/svg">
    <path fill-rule="evenodd" clip-rule="evenodd"
        d="M4 3H12C12.8284 3 13.5 3.67157 13.5 4.5V8.5C13.5 9.32843 12.8284 10 12 10H4C3.17157 10 2.5 9.32843 2.5 8.5V7.5H4.75C4.96627 7.5 5.17202 7.40664 5.31443 7.24388L6.37116 6.0362L7.84882 8.6221C7.97411 8.84137 8.20134 8.98286 8.4534 8.99855C8.70545 9.01424 8.94848 8.90203 9.1 8.7L10.375 7H11.75C12.1642 7 12.5 6.66421 12.5 6.25C12.5 5.83579 12.1642 5.5 11.75 5.5H10C9.76393 5.5 9.54164 5.61115 9.4 5.8L8.58487 6.88684L7.15118 4.3779C7.03085 4.16731 6.8161 4.02791 6.57476 4.00374C6.33342 3.97956 6.09529 4.07359 5.93557 4.25612L4.40967 6H2.5V4.5C2.5 3.67157 3.17157 3 4 3ZM1 6.75V8.5C1 10.1569 2.34315 11.5 4 11.5H7.25V13H4.75C4.33579 13 4 13.3358 4 13.75C4 14.1642 4.33579 14.5 4.75 14.5H11.25C11.6642 14.5 12 14.1642 12 13.75C12 13.3358 11.6642 13 11.25 13H8.75V11.5H12C13.6569 11.5 15 10.1569 15 8.5V4.5C15 2.84315 13.6569 1.5 12 1.5H4C2.34315 1.5 1 2.84315 1 4.5V6.75Z" />
</svg>
    