<svg width="16" height="16" viewBox="0 0 16 16" fill="currentColor" xmlns="http://www.w3.org/2000/svg">
<path fill-rule="evenodd" clip-rule="evenodd" d="M6.43934 4.06066L6.87868 4.5H7.5H12.5C13.3284 4.5 14 5.17157 14 6V11C14 11.8284 13.3284 12.5 12.5 12.5H3.5C2.67157 12.5 2 11.8284 2 11V4.5C2 3.67157 2.67157 3 3.5 3H4.75736C5.15518 3 5.53672 3.15804 5.81802 3.43934L6.43934 4.06066ZM0.5 4.5C0.5 2.84315 1.84315 1.5 3.5 1.5H4.75736C5.55301 1.5 6.31607 1.81607 6.87868 2.37868L7.5 3H12.5C14.1569 3 15.5 4.34315 15.5 6V11C15.5 12.6569 14.1569 14 12.5 14H3.5C1.84315 14 0.5 12.6569 0.5 11V4.5ZM4.75 6.5C4.33579 6.5 4 6.83579 4 7.25C4 7.66421 4.33579 8 4.75 8H11.25C11.6642 8 12 7.66421 12 7.25C12 6.83579 11.6642 6.5 11.25 6.5H4.75Z"/>
</svg>
