<svg width="16" height="16" viewBox="0 0 16 16" fill="currentColor"
    xmlns="http://www.w3.org/2000/svg">
    <path fill-rule="evenodd" clip-rule="evenodd"
        d="M13.4987 10.0396C13.9913 9.78762 14 9.5935 14 9.5V5.46236C13.2039 5.82079 12.1525 6 11 6C10.434 6 9.89249 5.95678 9.39357 5.87035C9.46325 6.06504 9.5 6.27492 9.5 6.5V10.3645C9.92755 10.4498 10.4318 10.5 11 10.5C12.1071 10.5 12.9711 10.3096 13.4987 10.0396ZM8 8.46236V12.5C8 12.5935 7.99129 12.7876 7.49873 13.0396C6.97109 13.3096 6.10709 13.5 5 13.5C3.89291 13.5 3.02891 13.3096 2.50127 13.0396C2.00871 12.7876 2 12.5935 2 12.5V8.46236C2.79613 8.82079 3.84747 9 5 9C6.15253 9 7.20387 8.82079 8 8.46236ZM8 6.5C8 6.4065 7.99129 6.21238 7.49873 5.96035C6.97109 5.69038 6.10709 5.5 5 5.5C3.89291 5.5 3.02891 5.69038 2.50127 5.96035C2.00871 6.21238 2 6.4065 2 6.5C2 6.5935 2.00871 6.78762 2.50127 7.03965C3.02891 7.30962 3.89291 7.5 5 7.5C6.10709 7.5 6.97109 7.30962 7.49873 7.03965C7.99129 6.78762 8 6.5935 8 6.5ZM0.5 6.5C0.5 4.83333 2.51472 4 5 4C5.52595 4 6.03083 4.03732 6.5 4.11197V3.5C6.5 1.83333 8.51472 1 11 1C13.4853 1 15.5 1.83333 15.5 3.5V9.5C15.5 11.1667 13.4853 12 11 12C10.474 12 9.96917 11.9627 9.5 11.888V12.5C9.5 14.1667 7.48528 15 5 15C2.51472 15 0.5 14.1667 0.5 12.5V6.5ZM8 3.5C8 3.5935 8.00871 3.78762 8.50127 4.03965C9.02891 4.30962 9.89291 4.5 11 4.5C12.1071 4.5 12.9711 4.30962 13.4987 4.03965C13.9913 3.78762 14 3.5935 14 3.5C14 3.4065 13.9913 3.21238 13.4987 2.96035C12.9711 2.69038 12.1071 2.5 11 2.5C9.89291 2.5 9.02891 2.69038 8.50127 2.96035C8.00871 3.21238 8 3.4065 8 3.5Z" />
</svg>
    