<svg width="16" height="16" viewBox="0 0 16 16" fill="none" stroke="currentColor" stroke-width="1.5"
    stroke-linecap="round" stroke-linejoin="round" xmlns="http://www.w3.org/2000/svg">
    <path d="M12.5 7L12.5 4.5L9.50003 4.5" stroke-width="1" />
    <path d="M9.5 2L9.5 4.5L12.5 4.5" />
    <path d="M12.5 2L12.5 4.5L9.50003 4.5" />
    <path d="M9.5 7L9.5 4.5L12.5 4.5" />
    <path
        d="M7 2.9375C6.67224 2.3125 6.11337 2 5.41117 2C4.26447 2 3.5 2.83333 3.5 4.5C3.5 6.16667 4.26447 7 5.41117 7C6.11337 7 6.67224 6.6875 7 6.0625"
    />
    <path d="M5.25 14.1154L5.25 11.8077L7 9.5" />
    <path d="M5.25 14.1154L5.25 11.8077L3.5 9.5" />
    <path d="M10.9423 14.1154L10.9423 9.5L9.5 9.5" />
    <path d="M10.9423 14.1154L10.9423 9.5L12.5 9.5" />
</svg>
    