<svg width="16" height="16" viewBox="0 0 16 16" fill="currentColor"
    xmlns="http://www.w3.org/2000/svg">
    <g>
        <path fill-rule="evenodd" clip-rule="evenodd"
            d="M7.00007 1.25C7.00007 0.835786 6.66428 0.5 6.25007 0.5C5.83585 0.5 5.50007 0.835786 5.50007 1.25L5.50007 2.5C3.84321 2.5 2.50007 3.84315 2.50007 5.5H1.25C0.835786 5.5 0.5 5.83579 0.5 6.25C0.5 6.66421 0.835786 7 1.25 7H2.50007V9H1.25C0.835787 9 0.5 9.33579 0.5 9.75C0.5 10.1642 0.835787 10.5 1.25 10.5H2.50007C2.50007 12.1569 3.84321 13.5 5.50007 13.5V14.75C5.50007 15.1642 5.83585 15.5 6.25007 15.5C6.66428 15.5 7.00007 15.1642 7.00007 14.75V13.5H9.00007V14.75C9.00007 15.1642 9.33585 15.5 9.75007 15.5C10.1643 15.5 10.5001 15.1642 10.5001 14.75V13.5C12.1569 13.5 13.5001 12.1569 13.5001 10.5H14.75C15.1642 10.5 15.5 10.1642 15.5 9.75C15.5 9.33579 15.1642 9 14.75 9H13.5001V7H14.75C15.1642 7 15.5 6.66421 15.5 6.25C15.5 5.83579 15.1642 5.5 14.75 5.5H13.5001C13.5001 3.84315 12.1569 2.5 10.5001 2.5V1.25C10.5001 0.835786 10.1643 0.5 9.75007 0.5C9.33585 0.5 9.00007 0.835786 9.00007 1.25V2.5H7.00007V1.25ZM10.5001 4H5.50007C4.67164 4 4.00007 4.67157 4.00007 5.5V10.5C4.00007 11.3284 4.67164 12 5.50007 12H10.5001C11.3285 12 12.0001 11.3284 12.0001 10.5V5.5C12.0001 4.67157 11.3285 4 10.5001 4ZM10.4999 6.24983C10.4999 5.83561 10.1641 5.49983 9.7499 5.49983H6.25C5.83579 5.49983 5.5 5.83561 5.5 6.24983V9.75C5.5 9.94891 5.57902 10.1397 5.71967 10.2803C5.86032 10.421 6.05109 10.5 6.25 10.5H9.7499C10.1641 10.5 10.4999 10.1642 10.4999 9.75V6.24983ZM7 6.99983H8.9999V9H7L7 6.99983Z"
        />
    </g>
</svg>