<svg width="16" height="16" viewBox="0 0 16 16" fill="currentColor" xmlns="http://www.w3.org/2000/svg">
    <path fill-rule="evenodd" clip-rule="evenodd" d="M9.209 8.124L9.415 8.716C9.812 9.857 9.685 11.07 9.099 12.064L3.853 6.818C4.837 6.24 6.089 6.118 7.201 6.502L7.793 6.708L10.956 3.545L12.373 4.961L9.209 8.124ZM14.501 7.09L15.915 5.676L15.201 4.961L10.956 0.717L10.239 0L8.825 1.414L9.542 2.131L7.238 4.435C5.24 3.967 3.094 4.569 1.642 6.021L0.935 6.728L4.354 10.147L0 14.501V15.915H1.414L5.768 11.562L9.188 14.982L9.896 14.275C11.377 12.794 11.959 10.696 11.483 8.678L13.786 6.375L14.501 7.09Z" />
</svg>
