<svg width="16" height="16" viewBox="0 0 16 16" fill="none" xmlns="http://www.w3.org/2000/svg">
    <path d="M8.70471 5.56175C8.67347 5.53052 8.62662 5.49928 8.57977 5.49928C8.5173 5.49928 8.47044 5.53052 8.43921 5.56175L4.20686 9.7941L4.00383 11.5745C3.98822 11.6994 4.01945 11.8088 4.11316 11.8868C4.19125 11.9805 4.30057 12.0118 4.42551 11.9962L6.2059 11.7931L10.4382 7.56079C10.4695 7.52956 10.5007 7.4827 10.5007 7.42023C10.5007 7.37338 10.4695 7.32653 10.4382 7.29529L8.70471 5.56175ZM11.7814 5.1557C11.9219 5.31187 12 5.48366 12 5.68669C12 5.90534 11.9219 6.07713 11.7814 6.21769L11.0629 6.93609C11.0161 6.98294 10.9692 6.99856 10.9224 6.99856C10.8599 6.99856 10.8287 6.98294 10.7975 6.93609L9.06391 5.20255C9.01706 5.17131 9.00144 5.14008 9.00144 5.07761C9.00144 5.03076 9.01706 4.9839 9.06391 4.93705L9.78231 4.21865C9.92287 4.07809 10.0947 4 10.3133 4C10.5163 4 10.6881 4.07809 10.8443 4.21865L11.7814 5.1557Z" fill="#666666"/>
    <path d="M7.99997 6.00093L9.49997 4.50093L11.5 6.50093L9.99997 8.00093L7.99997 6.00093Z" fill="#666666"/>
    <path d="M8 1.10938C9.28906 1.10938 10.5195 1.46094 11.6328 2.10547C12.7461 2.75 13.625 3.62891 14.2695 4.74219C14.9141 5.85547 15.2656 7.08594 15.2656 8.375C15.2656 9.69336 14.9141 10.8945 14.2695 12.0078C13.625 13.1211 12.7461 14.0293 11.6328 14.6738C10.5195 15.3184 9.28906 15.6406 8 15.6406C6.68164 15.6406 5.48047 15.3184 4.36719 14.6738C3.25391 14.0293 2.3457 13.1211 1.70117 12.0078C1.05664 10.8945 0.734375 9.69336 0.734375 8.375C0.734375 7.08594 1.05664 5.85547 1.70117 4.74219C2.3457 3.62891 3.25391 2.75 4.36719 2.10547C5.48047 1.46094 6.68164 1.10938 8 1.10938ZM12.1309 4.24414C11.4277 3.54102 10.6367 3.07227 9.69922 2.7793C8.76172 2.48633 7.85352 2.42773 6.91602 2.60352C5.97852 2.7793 5.12891 3.18945 4.39648 3.77539L12.5996 11.9785C13.1855 11.2461 13.5957 10.3965 13.7715 9.45898C13.9473 8.52148 13.8887 7.61328 13.5957 6.67578C13.3027 5.73828 12.834 4.94727 12.1309 4.24414ZM3.86914 12.5059C4.54297 13.209 5.33398 13.707 6.27148 14C7.20898 14.293 8.14648 14.3223 9.08398 14.1465C10.0215 13.9707 10.8418 13.5898 11.6035 12.9746L3.40039 4.77148C2.78516 5.5332 2.4043 6.35352 2.22852 7.29102C2.05273 8.22852 2.08203 9.16602 2.375 10.1035C2.66797 11.041 3.16602 11.832 3.86914 12.5059Z" fill="#FF8888"/>
</svg>
