<svg width="24" height="24" viewBox="0 0 24 24" fill="none" xmlns="http://www.w3.org/2000/svg">
    <path d="M12.546 3.99956H4.045H4.993C4.729 4.00141 4.47644 4.10758 4.29041 4.29492C4.10439 4.48225 3.99999 4.73555 4 4.99956L4 3.99956V19.9906V19.0076C4 19.5566 4.439 20.0016 5.01 20.0016H4.012H15.624L20.003 11.9516L15.624 3.99756H12.549" fill="#F5A623"/>
    <path d="M10.0712 13.2599C8.51722 13.2599 7.41122 11.5498 7.41122 9.5569C7.41122 7.564 8.35482 6.3999 10.0712 6.3999C11.789 6.3999 12.7312 7.564 12.7312 9.5569C12.7312 11.5498 11.6266 13.2599 10.0712 13.2599ZM10.0747 17.5999C7.76962 17.5999 6.33112 17.4123 5.75782 17.0364C5.70607 17.0025 5.66423 16.9555 5.63656 16.9002C5.60889 16.8448 5.59639 16.7831 5.60032 16.7214C5.70182 15.1597 7.19282 14.3799 10.0712 14.3799C12.9496 14.3799 14.442 15.1597 14.5484 16.72C14.5527 16.7821 14.5404 16.8442 14.5127 16.8999C14.485 16.9557 14.443 17.003 14.3909 17.0371C13.8169 17.4123 12.3784 17.5999 10.0747 17.5999Z" fill="white"/>
</svg>
