<svg width="16" height="16" viewBox="0 0 16 16" fill="currentColor"
    xmlns="http://www.w3.org/2000/svg">
    <path fill-rule="evenodd" clip-rule="evenodd" d="M0.115112 2.1243L3.23361 6.56598L4.94684 6.20067L8.66804 9.92187C8.57304 10.1579 8.4971 10.4282 8.47681 10.7218C8.43604 11.3118 8.62531 11.9268 9.16106 12.4719L12.0505 15.4112C12.3054 15.6705 12.5998 15.834 12.9172 15.8952C13.2281 15.9552 13.5068 15.9066 13.7224 15.8315C13.9351 15.7574 14.1033 15.652 14.2143 15.5709C14.2713 15.5292 14.3175 15.4908 14.3514 15.4609C14.3684 15.4459 14.3826 15.4327 14.3939 15.422L14.4086 15.4078L14.4143 15.4021L15.2216 14.5949L15.2233 14.5932L15.2251 14.5914L15.2313 14.5851L15.2456 14.5704C15.2563 14.5592 15.2694 14.5449 15.2845 14.5279C15.3144 14.494 15.3528 14.4479 15.3944 14.3908C15.4755 14.2799 15.581 14.1117 15.6551 13.8989C15.7302 13.6833 15.7787 13.4047 15.7188 13.0938C15.6576 12.7763 15.494 12.4819 15.2348 12.2271L12.2954 9.33762C11.7504 8.80187 11.1354 8.61258 10.5453 8.65335C10.2518 8.67364 9.98148 8.74958 9.74544 8.84458L6.02423 5.12338L6.38955 3.41015L1.94787 0.291656L0.115112 2.1243ZM9.97324 10.8252C9.98412 10.6678 10.0436 10.4955 10.1371 10.3138C10.3189 10.2202 10.4913 10.1607 10.6488 10.1498C10.8107 10.1386 11.0052 10.1727 11.2439 10.4073L14.1833 13.2968C14.2273 13.3401 14.2417 13.3673 14.2456 13.377C14.2454 13.3807 14.2441 13.3897 14.2386 13.4055C14.2275 13.4372 14.207 13.4735 14.1834 13.5058C14.1727 13.5204 14.164 13.5306 14.16 13.5351L13.359 14.3361C13.3545 14.3401 13.3438 14.3491 13.3292 14.3598C13.2969 14.3834 13.2607 14.404 13.2289 14.415C13.2131 14.4205 13.2042 14.4218 13.2005 14.422C13.1908 14.4181 13.1636 14.4038 13.1203 14.3597L10.2308 11.4203C9.99618 11.1817 9.96205 10.9872 9.97324 10.8252ZM3.89114 4.89205L4.57074 4.74714L4.71562 4.06768L2.11736 2.24345L2.06695 2.29385L3.89114 4.89205Z" />
    <path fill-rule="evenodd" clip-rule="evenodd" d="M9.76448 6.80873L12.5787 7.19396L14.2796 5.49304C14.2669 5.54496 14.2526 5.59883 14.2368 5.65454C14.0275 6.38963 13.6268 7.13734 13.1831 7.5811C12.9705 7.79364 12.7355 7.9687 12.4859 8.10635L13.5679 9.20611C13.7995 9.04754 14.0201 8.86513 14.2263 8.65887C15.5678 7.31737 16.2602 4.66238 15.6166 3.99754C15.0835 3.44677 14.2119 3.43969 13.6699 3.98172L12.0551 5.59644L11.0087 5.4532L10.768 4.26677L12.3827 2.65204C12.9248 2.11001 12.932 1.22412 12.3988 0.673351C11.7553 0.00851294 9.13219 0.668982 7.7907 2.01048C7.455 2.34618 7.18084 2.72144 6.96835 3.12176L8.09163 4.26345C8.2443 3.83333 8.49184 3.43038 8.83397 3.08824C9.27774 2.64448 10.0198 2.24944 10.7463 2.04874C10.8014 2.03353 10.8546 2.01993 10.9059 2.00783L9.1474 3.76635L9.76448 6.80873Z"/>
    <path d="M4.62076 7.81075C4.64641 7.78468 4.67244 7.75924 4.69884 7.73442L5.75265 8.80551C5.72522 8.82894 5.69856 8.85377 5.67276 8.88L2.39752 12.2089C1.91335 12.701 1.91335 13.4989 2.39752 13.991C2.88169 14.4831 3.66669 14.4831 4.15086 13.991L7.32061 10.7693L7.72137 12.5005L5.20286 15.0602C4.13769 16.1429 2.4107 16.1429 1.34552 15.0602C0.280343 13.9776 0.280344 12.2223 1.34552 11.1397L4.62076 7.81075Z" />
</svg>
