<svg width="828" height="800" viewBox="0 0 828 800" fill="none" xmlns="http://www.w3.org/2000/svg">
<g opacity="0.6">
<mask id="mask0_818_90406" style="mask-type:alpha" maskUnits="userSpaceOnUse" x="240" y="538" width="617" height="561">
<path d="M843.132 768.5C860.996 799.44 860.996 837.56 843.132 868.5L739.117 1048.66C721.254 1079.6 688.242 1098.66 652.515 1098.66L444.485 1098.66C408.758 1098.66 375.746 1079.6 357.882 1048.66L253.867 868.5C236.004 837.56 236.004 799.44 253.867 768.5L357.883 588.341C375.746 557.401 408.758 538.341 444.485 538.341L652.515 538.341C688.242 538.341 721.254 557.401 739.118 588.341L843.132 768.5Z" fill="url(#paint0_linear_818_90406)"/>
</mask>
<g mask="url(#mask0_818_90406)">
<g filter="url(#filter0_f_818_90406)">
<ellipse cx="515.595" cy="933.594" rx="441.031" ry="282.473" transform="rotate(135 515.595 933.594)" fill="#FFB23E"/>
</g>
</g>
</g>
<g opacity="0.95" filter="url(#filter1_b_818_90406)">
<mask id="mask1_818_90406" style="mask-type:luminance" maskUnits="userSpaceOnUse" x="474" y="81" width="578" height="1305">
<rect opacity="0.4" x="474" y="81" width="578" height="1304.93" rx="289" fill="white"/>
</mask>
<g mask="url(#mask1_818_90406)">
<g opacity="0.4" filter="url(#filter2_f_818_90406)">
<ellipse cx="579.247" cy="558.894" rx="328.778" ry="477.894" fill="#FFB23E" fill-opacity="0.93"/>
</g>
<g filter="url(#filter3_f_818_90406)">
<ellipse cx="342.094" cy="116.369" rx="342.094" ry="116.369" transform="matrix(-0.466166 -0.884697 0.724332 -0.689451 895.291 483.909)" fill="#FF9F47" fill-opacity="0.8"/>
</g>
<g filter="url(#filter4_f_818_90406)">
<ellipse cx="334.598" cy="119.384" rx="334.598" ry="119.384" transform="matrix(-0.748809 -0.464337 0.362447 -1.05585 1034.66 386.129)" fill="#FF9F47" fill-opacity="0.8"/>
</g>
</g>
</g>
<path d="M628.949 726.378L627.849 727.398L628.949 726.378ZM773.146 559.111L774.246 558.092L773.146 559.111ZM476.489 709.605L476.258 711.088L476.489 709.605ZM480.116 557.735L481.005 558.944L481.069 558.896L481.128 558.842L480.116 557.735ZM593.231 502.465L594.263 501.376L593.231 502.465ZM273.593 539.674C272.807 539.934 272.38 540.782 272.64 541.569L276.877 554.387C277.137 555.173 277.985 555.6 278.772 555.34C279.558 555.08 279.985 554.232 279.725 553.445L275.959 542.051L287.353 538.285C288.139 538.025 288.566 537.177 288.306 536.39C288.046 535.604 287.198 535.177 286.411 535.437L273.593 539.674ZM878.555 623.755C844.288 648.657 790.672 683.592 741.199 707.478C716.452 719.426 692.827 728.567 673.219 732.335C653.498 736.125 638.404 734.378 630.05 725.359L627.849 727.398C637.349 737.653 653.915 739.1 673.785 735.281C693.77 731.441 717.669 722.17 742.503 710.18C792.193 686.19 845.967 651.145 880.319 626.182L878.555 623.755ZM772.045 560.131C772.609 560.739 772.973 561.836 772.759 563.722C772.547 565.591 771.787 567.998 770.43 570.894C767.721 576.675 762.782 584.092 755.825 592.515C741.926 609.345 720.149 629.982 692.643 649.294C637.61 687.931 559.899 721.088 476.72 708.123L476.258 711.088C560.493 724.217 638.987 690.63 694.367 651.749C722.068 632.301 744.049 611.485 758.138 594.425C765.175 585.904 770.287 578.268 773.146 572.168C774.573 569.124 775.477 566.383 775.74 564.06C776.001 561.752 775.652 559.61 774.246 558.092L772.045 560.131ZM476.72 708.123C443.351 702.922 423.708 693.517 413.667 681.98C403.733 670.565 402.972 656.779 408.114 642.059C413.276 627.283 424.346 611.744 437.764 597.235C451.163 582.746 466.812 569.38 481.005 558.944L479.227 556.527C464.913 567.053 449.114 580.543 435.561 595.198C422.027 609.833 410.641 625.728 405.282 641.069C399.903 656.467 400.554 671.483 411.404 683.95C422.148 696.294 442.661 705.851 476.258 711.088L476.72 708.123ZM481.128 558.842C495.626 545.588 518.648 526.944 540.584 514.072C551.561 507.63 562.177 502.687 571.264 500.552C580.399 498.406 587.584 499.18 592.2 503.554L594.263 501.376C588.536 495.949 580.048 495.407 570.578 497.632C561.063 499.868 550.146 504.982 539.066 511.484C516.886 524.5 493.693 543.291 479.104 556.628L481.128 558.842ZM592.2 503.554C594.818 506.035 595.334 509.678 593.323 514.49C591.297 519.341 586.787 525.074 579.91 531.11C566.187 543.156 543.436 556.063 513.911 565.269C454.9 583.669 369.049 587.211 274.738 539.758L273.39 542.438C368.45 590.268 455.111 586.745 514.804 568.133C544.632 558.833 567.781 545.748 581.889 533.365C588.927 527.187 593.815 521.096 596.092 515.646C598.385 510.157 598.108 505.02 594.263 501.376L592.2 503.554ZM630.05 725.359C618.925 713.349 620.272 695.786 629.709 675.919C639.11 656.129 656.31 634.616 675.776 615.391C695.233 596.175 716.854 579.343 735.002 568.881C744.086 563.644 752.222 560.05 758.735 558.519C765.357 556.962 769.753 557.655 772.045 560.131L774.246 558.092C770.77 554.339 764.859 553.998 758.048 555.599C751.127 557.226 742.701 560.98 733.504 566.282C715.088 576.898 693.267 593.901 673.668 613.256C654.08 632.602 636.611 654.398 626.999 674.632C617.424 694.79 615.411 713.97 627.849 727.398L630.05 725.359Z" fill="#2E2E2C"/>
<mask id="mask2_818_90406" style="mask-type:alpha" maskUnits="userSpaceOnUse" x="135" y="-216" width="644" height="577">
<path opacity="0.4" d="M708.817 -215.727C762.704 -215.727 796.382 -157.394 769.439 -110.727L517.703 325.292C490.76 371.959 423.403 371.959 396.46 325.292L144.724 -110.727C117.781 -157.394 151.46 -215.727 205.346 -215.727L708.817 -215.727Z" fill="url(#paint1_linear_818_90406)"/>
</mask>
<g mask="url(#mask2_818_90406)">
<g filter="url(#filter5_f_818_90406)">
<ellipse cx="704.595" cy="-152.406" rx="441.031" ry="282.473" transform="rotate(135 704.595 -152.406)" fill="#FFB23E"/>
</g>
<g filter="url(#filter6_f_818_90406)">
<ellipse cx="278.861" cy="122.61" rx="278.861" ry="122.61" transform="matrix(0.996047 -0.0888276 -0.378585 0.925567 455.969 126.534)" fill="#FF9F47"/>
</g>
<g filter="url(#filter7_f_818_90406)">
<ellipse cx="291.741" cy="118.337" rx="291.741" ry="118.337" transform="matrix(1.03719 -0.592024 0.0983694 0.792037 361 315.436)" fill="#FF9F47"/>
</g>
</g>
<defs>
<filter id="filter0_f_818_90406" x="2.98792" y="420.988" width="1025.21" height="1025.21" filterUnits="userSpaceOnUse" color-interpolation-filters="sRGB">
<feFlood flood-opacity="0" result="BackgroundImageFix"/>
<feBlend mode="normal" in="SourceGraphic" in2="BackgroundImageFix" result="shape"/>
<feGaussianBlur stdDeviation="71.112" result="effect1_foregroundBlur_818_90406"/>
</filter>
<filter id="filter1_b_818_90406" x="410" y="17" width="706" height="1083.79" filterUnits="userSpaceOnUse" color-interpolation-filters="sRGB">
<feFlood flood-opacity="0" result="BackgroundImageFix"/>
<feGaussianBlur in="BackgroundImageFix" stdDeviation="32"/>
<feComposite in2="SourceAlpha" operator="in" result="effect1_backgroundBlur_818_90406"/>
<feBlend mode="normal" in="SourceGraphic" in2="effect1_backgroundBlur_818_90406" result="shape"/>
</filter>
<filter id="filter2_f_818_90406" x="108.245" y="-61.224" width="942.004" height="1240.24" filterUnits="userSpaceOnUse" color-interpolation-filters="sRGB">
<feFlood flood-opacity="0" result="BackgroundImageFix"/>
<feBlend mode="normal" in="SourceGraphic" in2="BackgroundImageFix" result="shape"/>
<feGaussianBlur stdDeviation="71.112" result="effect1_foregroundBlur_818_90406"/>
</filter>
<filter id="filter3_f_818_90406" x="497.469" y="-354.376" width="645.277" height="910.809" filterUnits="userSpaceOnUse" color-interpolation-filters="sRGB">
<feFlood flood-opacity="0" result="BackgroundImageFix"/>
<feBlend mode="normal" in="SourceGraphic" in2="BackgroundImageFix" result="shape"/>
<feGaussianBlur stdDeviation="71.112" result="effect1_foregroundBlur_818_90406"/>
</filter>
<filter id="filter4_f_818_90406" x="508.418" y="-160.026" width="637.924" height="529.475" filterUnits="userSpaceOnUse" color-interpolation-filters="sRGB">
<feFlood flood-opacity="0" result="BackgroundImageFix"/>
<feBlend mode="normal" in="SourceGraphic" in2="BackgroundImageFix" result="shape"/>
<feGaussianBlur stdDeviation="32.331" result="effect1_foregroundBlur_818_90406"/>
</filter>
<filter id="filter5_f_818_90406" x="191.988" y="-665.012" width="1025.21" height="1025.21" filterUnits="userSpaceOnUse" color-interpolation-filters="sRGB">
<feFlood flood-opacity="0" result="BackgroundImageFix"/>
<feBlend mode="normal" in="SourceGraphic" in2="BackgroundImageFix" result="shape"/>
<feGaussianBlur stdDeviation="71.112" result="effect1_foregroundBlur_818_90406"/>
</filter>
<filter id="filter6_f_818_90406" x="263.43" y="-43.157" width="847.758" height="516.809" filterUnits="userSpaceOnUse" color-interpolation-filters="sRGB">
<feFlood flood-opacity="0" result="BackgroundImageFix"/>
<feBlend mode="normal" in="SourceGraphic" in2="BackgroundImageFix" result="shape"/>
<feGaussianBlur stdDeviation="71.112" result="effect1_foregroundBlur_818_90406"/>
</filter>
<filter id="filter7_f_818_90406" x="307.751" y="-24.7648" width="734.96" height="522.419" filterUnits="userSpaceOnUse" color-interpolation-filters="sRGB">
<feFlood flood-opacity="0" result="BackgroundImageFix"/>
<feBlend mode="normal" in="SourceGraphic" in2="BackgroundImageFix" result="shape"/>
<feGaussianBlur stdDeviation="32.331" result="effect1_foregroundBlur_818_90406"/>
</filter>
<linearGradient id="paint0_linear_818_90406" x1="548.5" y1="1103.18" x2="548.5" y2="543.464" gradientUnits="userSpaceOnUse">
<stop stop-color="#FFF6E0"/>
<stop offset="0.114583" stop-color="#FCD889"/>
<stop offset="0.3125" stop-color="#F2D282"/>
<stop offset="1" stop-color="#F2C86A" stop-opacity="0"/>
</linearGradient>
<linearGradient id="paint1_linear_818_90406" x1="456.615" y1="358.046" x2="545.721" y2="-461.236" gradientUnits="userSpaceOnUse">
<stop stop-color="#67BFDB"/>
<stop offset="0.0001" stop-color="white"/>
<stop offset="0.188371" stop-color="#55B4D7" stop-opacity="0.72"/>
<stop offset="0.546098" stop-color="white" stop-opacity="0.59"/>
<stop offset="1" stop-color="white" stop-opacity="0"/>
</linearGradient>
</defs>
</svg>
