<svg width="161" height="34" viewBox="0 0 161 34" fill="none" xmlns="http://www.w3.org/2000/svg">
<path d="M64.5001 7.12762H60.583L55.4997 16.3971L50.3866 7.12762H46.4695L53.7654 19.7461V28.0587H57.2041V19.7461L64.5001 7.12762ZM76.1701 7.12762H60.9203V10.4168H66.8408V28.0587H70.2795V10.4168H76.1701V7.12762ZM78.1149 17.2344C78.1149 16.1579 79.1315 15.6496 80.2977 15.6496C81.5237 15.6496 82.5702 16.1878 83.1084 17.354L85.8295 15.829C84.7829 13.8555 82.7496 12.7192 80.2977 12.7192C77.2477 12.7192 74.8257 14.4834 74.8257 17.2942C74.8257 22.6465 82.8692 21.1515 82.8692 23.8127C82.8692 25.0088 81.7629 25.4872 80.3276 25.4872C78.683 25.4872 77.4869 24.6798 77.0085 23.3343L74.2277 24.949C75.1845 27.1019 77.3374 28.4474 80.3276 28.4474C83.557 28.4474 86.1584 26.8328 86.1584 23.8426C86.1584 18.3108 78.1149 19.9554 78.1149 17.2344ZM100.091 13.1079V15.2309C98.9544 13.6761 97.1902 12.7192 94.8579 12.7192C90.7913 12.7192 87.4124 16.128 87.4124 20.5833C87.4124 25.0088 90.7913 28.4474 94.8579 28.4474C97.1902 28.4474 98.9544 27.4906 100.091 25.9058V28.0587H103.32V13.1079H100.091ZM95.3662 25.3676C92.6751 25.3676 90.6418 23.3642 90.6418 20.5833C90.6418 17.8025 92.6751 15.7991 95.3662 15.7991C98.0574 15.7991 100.091 17.8025 100.091 20.5833C100.091 23.3642 98.0574 25.3676 95.3662 25.3676ZM115.965 13.1079V21.1216C115.965 24.1715 114.29 25.4274 112.167 25.4274C110.134 25.4274 108.818 24.2313 108.818 21.9588V13.1079H105.589V22.2877C105.589 26.1749 107.981 28.4474 111.33 28.4474C113.363 28.4474 114.978 27.6999 115.965 26.145V28.0587H119.194V13.1079H115.965ZM125.004 15.6197V13.1079H121.774V28.0587H125.004V20.5235C125.004 17.1745 127.486 16.1878 129.609 16.3373V12.8388C127.725 12.8388 125.901 13.5864 125.004 15.6197ZM141.623 13.1079V21.1216C141.623 24.1715 139.948 25.4274 137.825 25.4274C135.792 25.4274 134.477 24.2313 134.477 21.9588V13.1079H131.247V22.2877C131.247 26.1749 133.639 28.4474 136.988 28.4474C139.022 28.4474 140.636 27.6999 141.623 26.145V28.0587H144.852V13.1079H141.623ZM150.482 17.2344C150.482 16.1579 151.499 15.6496 152.665 15.6496C153.891 15.6496 154.938 16.1878 155.476 17.354L158.197 15.829C157.151 13.8555 155.117 12.7192 152.665 12.7192C149.615 12.7192 147.193 14.4834 147.193 17.2942C147.193 22.6465 155.237 21.1515 155.237 23.8127C155.237 25.0088 154.13 25.4872 152.695 25.4872C151.051 25.4872 149.855 24.6798 149.376 23.3343L146.595 24.949C147.552 27.1019 149.705 28.4474 152.695 28.4474C155.925 28.4474 158.526 26.8328 158.526 23.8426C158.526 18.3108 150.482 19.9554 150.482 17.2344Z" fill="#2E2E2C"/>
<path fill-rule="evenodd" clip-rule="evenodd" d="M12.9279 7.01103C16.333 2.22269 21.7583 -0.451393 24.3304 0.0627616C25.98 0.392502 24.9804 2.17918 23.7886 4.20123C23.4776 4.72883 23.173 5.21518 22.8992 5.65248C22.1236 6.89115 21.5944 7.73622 21.8641 8.0101C26.1394 3.89647 28.8883 3.43833 31.179 3.43833C33.4473 3.43833 32.3804 5.07389 31.2137 6.86248L31.179 6.91572C31.0099 7.17496 30.8353 7.4316 30.667 7.67882L30.667 7.67884C30.0113 8.64221 29.4531 9.46243 29.7034 9.73583C32.1686 7.98012 34.7209 7.55602 35.9202 7.80415C37.1194 8.05228 37.4717 8.57248 35.8168 11.1332L34.2348 13.5084L34.3075 13.6255C34.8688 14.5284 35.7247 15.9052 35.7247 18.0989C35.7247 22.4953 32.3727 26.8657 30.4904 28.826C30.3226 29.0008 30.0909 29.0944 29.8486 29.0944H26.3801C26.109 29.0944 25.899 28.8592 25.9071 28.5882C26.0464 23.9148 21.081 24.1104 17.7663 28.8896C17.6789 29.0155 17.535 29.0944 17.3817 29.0944H14.114C13.8705 29.0944 13.6351 28.9992 13.4733 28.8172C12.1985 27.3822 11.0365 24.9625 10.7428 23.9189C9.33806 26.0892 5.48923 27.2826 2.73847 25.4256C-0.527947 23.2204 -0.506606 19.4693 0.905767 17.179L3.77594 18.8111C3.35359 20.4755 3.97924 21.6217 5.18064 21.6217C6.91512 21.6218 7.59594 19.518 8.5695 16.5096C9.45031 13.7878 10.5707 10.3256 12.9279 7.01103ZM15.0304 18.9637C15.9875 16.8001 15.9876 14.703 15.0306 14.2796C14.0737 13.8563 12.5219 15.267 11.5648 17.4306C11.3263 17.9697 11.1472 18.5047 11.0276 19.0107H15.0094L15.0304 18.9637ZM22.0818 14.2796C23.0388 14.703 23.0387 16.8001 22.0816 18.9637L22.0606 19.0107H18.0788C18.1984 18.5047 18.3775 17.9697 18.616 17.4306C19.5732 15.267 21.1249 13.8563 22.0818 14.2796Z" fill="#2E2E2C"/>
</svg>