<svg width="173" height="37" viewBox="0 0 173 37" fill="none" xmlns="http://www.w3.org/2000/svg">
<path d="M55.1681 16.6067H55.9521L60.7401 8.06671H64.3521L57.2401 20.6947V28.0587H53.8801V20.6947L46.7681 8.06671H50.3801L55.1681 16.6067ZM81.4638 8.06671V11.0347H75.0798V28.0587H71.7198V11.0347H65.3078V8.06671H81.4638ZM92.8707 17.6147H89.7067C89.5387 16.588 88.6054 16.0747 86.9067 16.0747C85.1894 16.0747 84.3307 16.5694 84.3307 17.5587C84.3307 18.0067 84.4707 18.3334 84.7507 18.5387C85.0494 18.7254 85.5161 18.8747 86.1507 18.9867L88.9227 19.4347C91.8161 19.9014 93.2627 21.376 93.2627 23.8587C93.2627 25.128 92.7214 26.2107 91.6387 27.1067C90.5747 27.984 89.0814 28.4227 87.1587 28.4227C85.1427 28.4227 83.5934 28.012 82.5107 27.1907C81.4281 26.3694 80.8027 25.2214 80.6347 23.7467H83.7987C84.0414 25.1094 85.1427 25.7907 87.1027 25.7907C89.1001 25.7907 90.0987 25.1747 90.0987 23.9427C90.0987 23.4014 89.9214 22.9907 89.5667 22.7107C89.2121 22.412 88.6147 22.188 87.7747 22.0387L84.8067 21.5347C82.3801 21.124 81.1667 19.8734 81.1667 17.7827C81.1667 16.5134 81.6614 15.4774 82.6507 14.6747C83.6401 13.8534 85.0961 13.4427 87.0187 13.4427C88.7174 13.4427 90.0801 13.8254 91.1067 14.5907C92.1334 15.3374 92.7214 16.3454 92.8707 17.6147ZM105.506 28.0587V26.7427H104.834C103.938 27.8627 102.538 28.4227 100.634 28.4227C99.0657 28.4227 97.8244 27.9747 96.9097 27.0787C95.9951 26.164 95.5377 25.0534 95.5377 23.7467C95.5377 22.4587 96.0044 21.3387 96.9377 20.3867C97.8711 19.4347 99.2897 18.9587 101.194 18.9587H105.394V18.5387C105.394 16.8027 104.395 15.9347 102.398 15.9347C100.624 15.9347 99.6724 16.5414 99.5417 17.7547H96.4057C96.4804 16.4294 97.0497 15.384 98.1137 14.6187C99.1964 13.8347 100.587 13.4427 102.286 13.4427C104.208 13.4427 105.711 13.872 106.794 14.7307C107.895 15.5894 108.446 16.8774 108.446 18.5947V28.0587H105.506ZM101.614 25.8467C102.678 25.8467 103.574 25.5014 104.302 24.8107C105.03 24.12 105.394 23.28 105.394 22.2907V21.1987H101.754C99.7377 21.1987 98.7297 21.9827 98.7297 23.5507C98.7297 24.2787 98.9817 24.848 99.4857 25.2587C99.9897 25.6507 100.699 25.8467 101.614 25.8467ZM112.429 13.8067H115.593V22.0947C115.593 24.428 116.648 25.5947 118.757 25.5947C119.858 25.5947 120.745 25.1934 121.417 24.3907C122.108 23.5694 122.453 22.58 122.453 21.4227V13.8067H125.617V28.0587H122.565V26.6867H121.893C121.034 27.844 119.662 28.4227 117.777 28.4227C116.022 28.4227 114.688 27.928 113.773 26.9387C112.877 25.9307 112.429 24.5214 112.429 22.7107V13.8067ZM138.892 13.8067V16.7467H137.604C136.148 16.7467 135.038 17.148 134.272 17.9507C133.526 18.7347 133.152 19.8827 133.152 21.3947V28.0587H129.988V13.8067H133.04V15.4587H133.712C134.534 14.3574 135.859 13.8067 137.688 13.8067H138.892ZM141.66 13.8067H144.824V22.0947C144.824 24.428 145.878 25.5947 147.988 25.5947C149.089 25.5947 149.976 25.1934 150.648 24.3907C151.338 23.5694 151.684 22.58 151.684 21.4227V13.8067H154.848V28.0587H151.796V26.6867H151.124C150.265 27.844 148.893 28.4227 147.008 28.4227C145.253 28.4227 143.918 27.928 143.004 26.9387C142.108 25.9307 141.66 24.5214 141.66 22.7107V13.8067ZM170.363 17.6147H167.199C167.031 16.588 166.098 16.0747 164.399 16.0747C162.682 16.0747 161.823 16.5694 161.823 17.5587C161.823 18.0067 161.963 18.3334 162.243 18.5387C162.542 18.7254 163.008 18.8747 163.643 18.9867L166.415 19.4347C169.308 19.9014 170.755 21.376 170.755 23.8587C170.755 25.128 170.214 26.2107 169.131 27.1067C168.067 27.984 166.574 28.4227 164.651 28.4227C162.635 28.4227 161.086 28.012 160.003 27.1907C158.92 26.3694 158.295 25.2214 158.127 23.7467H161.291C161.534 25.1094 162.635 25.7907 164.595 25.7907C166.592 25.7907 167.591 25.1747 167.591 23.9427C167.591 23.4014 167.414 22.9907 167.059 22.7107C166.704 22.412 166.107 22.188 165.267 22.0387L162.299 21.5347C159.872 21.124 158.659 19.8734 158.659 17.7827C158.659 16.5134 159.154 15.4774 160.143 14.6747C161.132 13.8534 162.588 13.4427 164.511 13.4427C166.21 13.4427 167.572 13.8254 168.599 14.5907C169.626 15.3374 170.214 16.3454 170.363 17.6147Z" fill="white" fill-opacity="0.85"/>
<path fill-rule="evenodd" clip-rule="evenodd" d="M12.9279 8.01103C16.333 3.22269 21.7583 0.548607 24.3304 1.06276C25.98 1.3925 24.9804 3.17918 23.7886 5.20123C23.4776 5.72883 23.173 6.21518 22.8992 6.65248C22.1236 7.89115 21.5944 8.73622 21.8641 9.0101C26.1394 4.89647 28.8883 4.43833 31.179 4.43833C33.4473 4.43833 32.3804 6.07389 31.2137 7.86248L31.179 7.91572C31.0099 8.17496 30.8353 8.4316 30.667 8.67882L30.667 8.67884C30.0113 9.64221 29.4531 10.4624 29.7034 10.7358C32.1686 8.98012 34.7209 8.55602 35.9202 8.80415C37.1194 9.05228 37.4717 9.57248 35.8168 12.1332L34.2348 14.5084L34.3075 14.6255C34.8688 15.5284 35.7247 16.9052 35.7247 19.0989C35.7247 23.4953 32.3727 27.8657 30.4904 29.826C30.3226 30.0008 30.0909 30.0944 29.8486 30.0944H26.3801C26.109 30.0944 25.899 29.8592 25.9071 29.5882C26.0464 24.9148 21.081 25.1104 17.7663 29.8896C17.6789 30.0155 17.535 30.0944 17.3817 30.0944H14.114C13.8705 30.0944 13.6351 29.9992 13.4733 29.8172C12.1985 28.3822 11.0365 25.9625 10.7428 24.9189C9.33806 27.0892 5.48923 28.2826 2.73847 26.4256C-0.527947 24.2204 -0.506606 20.4693 0.905767 18.179L3.77594 19.8111C3.35359 21.4755 3.97924 22.6217 5.18064 22.6217C6.91512 22.6218 7.59594 20.518 8.5695 17.5096C9.45031 14.7878 10.5707 11.3256 12.9279 8.01103ZM15.0304 19.9637C15.9875 17.8001 15.9876 15.703 15.0306 15.2796C14.0737 14.8563 12.5219 16.267 11.5648 18.4306C11.3263 18.9697 11.1472 19.5047 11.0276 20.0107H15.0094L15.0304 19.9637ZM22.0818 15.2796C23.0388 15.703 23.0387 17.8001 22.0816 19.9637L22.0606 20.0107H18.0788C18.1984 19.5047 18.3775 18.9697 18.616 18.4306C19.5732 16.267 21.1249 14.8563 22.0818 15.2796Z" fill="white" fill-opacity="0.85"/>
</svg>
