<svg width="34" height="34" viewBox="0 0 34 34" fill="none" xmlns="http://www.w3.org/2000/svg">
<rect x="1" y="1" width="32" height="32" rx="4" fill="#FFB23E"/>
<rect x="0.5" y="0.5" width="33" height="33" rx="4.5" stroke="white" stroke-opacity="0.1"/>
<path fill-rule="evenodd" clip-rule="evenodd" d="M13.3439 12.3951C15.4245 9.46926 18.7396 7.8353 20.3113 8.14946C21.3192 8.35095 20.7084 9.44267 19.9802 10.6782C19.7902 11.0006 19.6041 11.2978 19.4367 11.565L19.4367 11.565C18.9628 12.3219 18.6394 12.8382 18.8042 13.0056C21.4166 10.492 23.0963 10.2121 24.496 10.2121C25.882 10.2121 25.2301 11.2114 24.5172 12.3043L24.496 12.3369C24.3927 12.4953 24.286 12.6521 24.1831 12.8032C23.7825 13.3918 23.4414 13.893 23.5943 14.0601C25.1007 12.9873 26.6602 12.7281 27.393 12.8797C28.1258 13.0314 28.341 13.3492 27.3298 14.9139L26.3632 16.3653L26.4076 16.4368C26.7506 16.9885 27.2736 17.8298 27.2736 19.1702C27.2736 21.43 25.8242 23.6786 24.6792 25.0488C24.2121 25.6078 23.5053 25.8889 22.7768 25.8889C21.9617 25.8889 21.4105 25.1354 21.0738 24.3931C20.4349 22.9848 18.4086 23.2605 16.7791 25.145C16.3979 25.5858 15.8651 25.8889 15.2823 25.8889C14.3566 25.8889 13.4508 25.5266 12.9648 24.7387C12.4976 23.9814 12.1307 23.1598 12.0087 22.7265C11.1504 24.0526 8.79858 24.7818 7.11777 23.6471C5.12186 22.2996 5.1349 20.0076 5.99792 18.6081L7.7517 19.6054C7.49363 20.6224 7.87592 21.3228 8.61002 21.3228C9.66986 21.3228 10.0859 20.0373 10.6807 18.1991C11.2189 16.536 11.9036 14.4204 13.3439 12.3951ZM14.6285 19.6991C15.2134 18.377 15.2134 17.0956 14.6287 16.8369C14.0439 16.5783 13.0958 17.4403 12.5109 18.7623C12.3652 19.0917 12.2558 19.4186 12.1827 19.7277H14.6158L14.6285 19.6991ZM18.9372 16.8369C19.522 17.0956 19.5219 18.377 18.937 19.6991L18.9243 19.7277H16.4912C16.5643 19.4186 16.6737 19.0917 16.8195 18.7623C17.4043 17.4403 18.3525 16.5783 18.9372 16.8369Z" fill="black"/>
</svg>
