<svg width="16" height="16" viewBox="0 0 16 16" fill="currentColor"
    xmlns="http://www.w3.org/2000/svg">
    <path fill-rule="evenodd" clip-rule="evenodd" d="M10.2182 3.2156C10.3373 2.81886 10.1121 2.40074 9.71539 2.28172C9.31864 2.1627 8.90053 2.38784 8.78151 2.78458L5.78151 12.7846C5.66248 13.1813 5.88762 13.5994 6.28437 13.7185C6.68111 13.8375 7.09922 13.6123 7.21825 13.2156L10.2182 3.2156ZM4.53021 4.96952C4.8231 5.26241 4.8231 5.73728 4.53021 6.03018L2.56054 7.99985L4.53021 9.96952C4.8231 10.2624 4.8231 10.7373 4.53021 11.0302C4.23732 11.3231 3.76244 11.3231 3.46955 11.0302L0.969548 8.53018C0.828895 8.38952 0.749878 8.19876 0.749878 7.99985C0.749878 7.80093 0.828895 7.61017 0.969548 7.46952L3.46955 4.96952C3.76244 4.67662 4.23732 4.67662 4.53021 4.96952ZM11.4695 11.0302C11.1767 10.7373 11.1767 10.2624 11.4695 9.96952L13.4392 7.99985L11.4695 6.03018C11.1767 5.73728 11.1767 5.26241 11.4695 4.96952C11.7624 4.67662 12.2373 4.67662 12.5302 4.96952L15.0302 7.46952C15.1709 7.61017 15.2499 7.80093 15.2499 7.99985C15.2499 8.19876 15.1709 8.38952 15.0302 8.53018L12.5302 11.0302C12.2373 11.3231 11.7624 11.3231 11.4695 11.0302Z" />
</svg>
