<svg width="161" height="161" viewBox="0 0 161 161" fill="none" xmlns="http://www.w3.org/2000/svg">
<rect width="160.122" height="160.122" fill="white" fill-opacity="0.01"/>
<path d="M152.301 103.179H150.337V80.3059C150.337 78.5874 148.946 77.1962 147.227 77.1962H121.858L121.899 16.4745C121.899 16.3926 121.817 16.3108 121.735 16.3108H81.1043C73.0435 16.3108 72.1433 20.8117 72.1433 25.7218V85.6661H61.7502V63.6524C61.7502 62.1385 60.5227 60.9519 59.0497 60.9519H20.5872C19.0732 60.9519 17.8866 62.1794 17.8866 63.6524V103.138H15.5543C13.8358 103.138 12.4446 104.529 12.4446 106.248V118.482C12.4446 120.201 13.8358 121.592 15.5543 121.592H152.342C154.06 121.592 155.451 120.201 155.451 118.482V106.248C155.411 104.57 154.019 103.179 152.301 103.179Z" fill="#F0FAEB"/>
<path fill-rule="evenodd" clip-rule="evenodd" d="M46.3652 141.437H9.25299C6.7161 141.437 4.67022 139.391 4.67022 136.854V93.113C4.67022 90.5761 6.7161 88.5303 9.25299 88.5303H46.3652C48.9021 88.5303 50.948 90.5761 50.948 93.113V136.854C50.948 139.391 48.9021 141.437 46.3652 141.437Z" stroke="#333333" stroke-width="2.00152" stroke-linecap="round" stroke-linejoin="round" stroke-dasharray="4 4"/>
<path d="M12.8414 96.6979C12.2225 96.2978 11.3964 96.4752 10.9964 97.0941C10.5963 97.713 10.7736 98.539 11.3925 98.9391L12.8414 96.6979ZM20.2186 103.056L20.9522 104.171C21.3288 103.923 21.5548 103.501 21.553 103.05C21.5511 102.6 21.3217 102.18 20.943 101.935L20.2186 103.056ZM11.4652 107.22C10.8496 107.625 10.679 108.452 11.0842 109.068C11.4893 109.683 12.3168 109.854 12.9324 109.449L11.4652 107.22ZM23.6142 113.547C22.8772 113.547 22.2798 114.144 22.2798 114.881C22.2798 115.618 22.8772 116.215 23.6142 116.215V113.547ZM32.125 116.215C32.862 116.215 33.4594 115.618 33.4594 114.881C33.4594 114.144 32.862 113.547 32.125 113.547V116.215ZM11.3925 98.9391L19.4942 104.177L20.943 101.935L12.8414 96.6979L11.3925 98.9391ZM19.485 101.941L11.4652 107.22L12.9324 109.449L20.9522 104.171L19.485 101.941ZM23.6142 116.215H32.125V113.547H23.6142V116.215Z" fill="#333333"/>
<path d="M138.489 24.1533L137.713 23.525H136.604" stroke="#333333" stroke-width="2.00152" stroke-linecap="round" stroke-linejoin="round"/>
<path d="M133.233 23.3485H84.9502C82.6997 23.3485 80.8584 25.1897 80.8584 27.4402V110.544C80.8584 112.794 82.6997 114.636 84.9502 114.636H146.94C149.191 114.636 151.032 112.794 151.032 110.544V36.1966L140.189 25.3943" stroke="#333333" stroke-width="2.00152" stroke-linecap="round" stroke-linejoin="round" stroke-dasharray="4 4"/>
<path d="M136.604 26.6663V33.1202C136.604 35.4619 138.159 37.3466 140.091 37.3466H147.912" stroke="#333333" stroke-width="2.00152" stroke-linecap="round" stroke-linejoin="round" stroke-dasharray="4 4"/>
<path d="M35.0624 127.163L35.9254 53.7717C35.9629 50.8825 37.989 48.5562 40.3904 48.6688L123.125 52.9837C124.851 53.0588 126.201 54.5221 126.201 56.2856V123.636L35.0624 127.163Z" fill="#D78A15"/>
<path d="M90.2555 59.7C90.6682 57.4487 92.8444 55.6852 95.0957 55.7978L136.669 57.6363C138.733 57.7114 140.084 59.5124 139.671 61.6511L128.565 123.261C128.189 125.362 126.201 127.126 124.137 127.238L38.964 130.765C36.4126 130.878 34.6866 129.039 35.0993 126.713L45.3802 66.6414C45.7929 64.2776 48.1567 62.4015 50.6706 62.5141L85.3027 63.7148C87.704 63.7148 90.2555 59.7 90.2555 59.7Z" fill="#FFB23E"/>
<path d="M38.2006 14.1011C38.2006 13.5484 37.7525 13.1004 37.1998 13.1004C36.6471 13.1004 36.1991 13.5484 36.1991 14.1011H38.2006ZM36.1991 18.5202C36.1991 19.0729 36.6471 19.521 37.1998 19.521C37.7525 19.521 38.2006 19.0729 38.2006 18.5202H36.1991ZM38.2006 27.8085C38.2006 27.2558 37.7525 26.8077 37.1998 26.8077C36.6471 26.8077 36.1991 27.2558 36.1991 27.8085H38.2006ZM36.1991 32.5958C36.1991 33.1485 36.6471 33.5966 37.1998 33.5966C37.7525 33.5966 38.2006 33.1485 38.2006 32.5958H36.1991ZM46.4477 24.3493C47.0004 24.3493 47.4485 23.9013 47.4485 23.3486C47.4485 22.7958 47.0004 22.3478 46.4477 22.3478V24.3493ZM41.9877 22.3478C41.435 22.3478 40.9869 22.7958 40.9869 23.3486C40.9869 23.9013 41.435 24.3493 41.9877 24.3493V22.3478ZM32.3716 24.3493C32.9244 24.3493 33.3724 23.9013 33.3724 23.3486C33.3724 22.7958 32.9244 22.3478 32.3716 22.3478V24.3493ZM27.9525 22.3478C27.3998 22.3478 26.9518 22.7958 26.9518 23.3486C26.9518 23.9013 27.3998 24.3493 27.9525 24.3493V22.3478ZM36.1991 14.1011V18.5202H38.2006V14.1011H36.1991ZM36.1991 27.8085V32.5958H38.2006V27.8085H36.1991ZM46.4477 22.3478H41.9877V24.3493H46.4477V22.3478ZM32.3716 22.3478H27.9525V24.3493H32.3716V22.3478Z" fill="#333333"/>
<path d="M144.095 136.649C144.095 136.097 143.647 135.649 143.094 135.649C142.542 135.649 142.094 136.097 142.094 136.649H144.095ZM142.094 138.941C142.094 139.493 142.542 139.941 143.094 139.941C143.647 139.941 144.095 139.493 144.095 138.941H142.094ZM144.095 143.769C144.095 143.216 143.647 142.768 143.094 142.768C142.542 142.768 142.094 143.216 142.094 143.769H144.095ZM142.094 146.265C142.094 146.818 142.542 147.266 143.094 147.266C143.647 147.266 144.095 146.818 144.095 146.265H142.094ZM147.923 142.437C148.475 142.437 148.923 141.989 148.923 141.437C148.923 140.884 148.475 140.436 147.923 140.436V142.437ZM145.59 140.436C145.038 140.436 144.589 140.884 144.589 141.437C144.589 141.989 145.038 142.437 145.59 142.437V140.436ZM140.598 142.437C141.151 142.437 141.599 141.989 141.599 141.437C141.599 140.884 141.151 140.436 140.598 140.436V142.437ZM138.266 140.436C137.713 140.436 137.265 140.884 137.265 141.437C137.265 141.989 137.713 142.437 138.266 142.437V140.436ZM142.094 136.649V138.941H144.095V136.649H142.094ZM142.094 143.769V146.265H144.095V143.769H142.094ZM147.923 140.436H145.59V142.437H147.923V140.436ZM140.598 140.436H138.266V142.437H140.598V140.436Z" fill="#333333"/>
</svg>
