<svg xmlns="http://www.w3.org/2000/svg" width="14" height="14" viewBox="0 0 14 14" fill="none">
<path d="M7 0.828125C3.52148 0.828125 0.703125 3.67188 0.703125 7.125C0.703125 10.6035 3.52148 13.4219 7 13.4219C10.4531 13.4219 13.2969 10.6035 13.2969 7.125C13.2969 3.67188 10.4531 0.828125 7 0.828125ZM7 12.2031C4.18164 12.2031 1.92188 9.94336 1.92188 7.125C1.92188 4.33203 4.18164 2.04688 7 2.04688C9.79297 2.04688 12.0781 4.33203 12.0781 7.125C12.0781 9.94336 9.79297 12.2031 7 12.2031ZM7 3.62109C6.39062 3.62109 5.93359 4.10352 5.93359 4.6875C5.93359 5.29688 6.39062 5.75391 7 5.75391C7.58398 5.75391 8.06641 5.29688 8.06641 4.6875C8.06641 4.10352 7.58398 3.62109 7 3.62109ZM8.42188 10.0703V9.46094C8.42188 9.30859 8.26953 9.15625 8.11719 9.15625H7.8125V6.61719C7.8125 6.46484 7.66016 6.3125 7.50781 6.3125H5.88281C5.70508 6.3125 5.57812 6.46484 5.57812 6.61719V7.22656C5.57812 7.4043 5.70508 7.53125 5.88281 7.53125H6.1875V9.15625H5.88281C5.70508 9.15625 5.57812 9.30859 5.57812 9.46094V10.0703C5.57812 10.248 5.70508 10.375 5.88281 10.375H8.11719C8.26953 10.375 8.42188 10.248 8.42188 10.0703Z" fill="#027BF3"/>
</svg>