<svg width="284" height="188" viewBox="0 0 284 188" fill="none" xmlns="http://www.w3.org/2000/svg">
    <g opacity="0.22">
        <mask id="path-1-inside-1" fill="white">
            <path fill-rule="evenodd" clip-rule="evenodd" d="M141.141 181.886H142.95V183.092H141.141V181.886Z"/>
        </mask>
        <path d="M141.141 181.886V179.886H139.141V181.886H141.141ZM142.95 181.886H144.95V179.886H142.95V181.886ZM142.95 183.092V185.092H144.95V183.092H142.95ZM141.141 183.092H139.141V185.092H141.141V183.092ZM141.141 183.886H142.95V179.886H141.141V183.886ZM140.95 181.886V183.092H144.95V181.886H140.95ZM142.95 181.092H141.141V185.092H142.95V181.092ZM143.141 183.092V181.886H139.141V183.092H143.141Z" fill="#B8BEC3" mask="url(#path-1-inside-1)"/>
        <mask id="path-3-inside-2" fill="white">
            <path fill-rule="evenodd" clip-rule="evenodd" d="M140.468 178.829H143.483V180.035H140.468V178.829Z"/>
        </mask>
        <path d="M140.468 178.829V176.829H138.468V178.829H140.468ZM143.483 178.829H145.483V176.829H143.483V178.829ZM143.483 180.035V182.035H145.483V180.035H143.483ZM140.468 180.035H138.468V182.035H140.468V180.035ZM140.468 180.829H143.483V176.829H140.468V180.829ZM141.483 178.829V180.035H145.483V178.829H141.483ZM143.483 178.035H140.468V182.035H143.483V178.035ZM142.468 180.035V178.829H138.468V180.035H142.468Z" fill="#B8BEC3" mask="url(#path-3-inside-2)"/>
        <mask id="path-5-inside-3" fill="white">
            <path fill-rule="evenodd" clip-rule="evenodd" d="M139.446 175.772H143.667V176.978H139.446V175.772Z"/>
        </mask>
        <path d="M139.446 175.772V173.772H137.446V175.772H139.446ZM143.667 175.772H145.667V173.772H143.667V175.772ZM143.667 176.978V178.978H145.667V176.978H143.667ZM139.446 176.978H137.446V178.978H139.446V176.978ZM139.446 177.772H143.667V173.772H139.446V177.772ZM141.667 175.772V176.978H145.667V175.772H141.667ZM143.667 174.978H139.446V178.978H143.667V174.978ZM141.446 176.978V175.772H137.446V176.978H141.446Z" fill="#B8BEC3" mask="url(#path-5-inside-3)"/>
        <mask id="path-7-inside-4" fill="white">
            <path fill-rule="evenodd" clip-rule="evenodd" d="M138.424 172.715H144.454V173.921H138.424V172.715Z"/>
        </mask>
        <path d="M138.424 172.715V170.715H136.424V172.715H138.424ZM144.454 172.715H146.454V170.715H144.454V172.715ZM144.454 173.921V175.921H146.454V173.921H144.454ZM138.424 173.921H136.424V175.921H138.424V173.921ZM138.424 174.715H144.454V170.715H138.424V174.715ZM142.454 172.715V173.921H146.454V172.715H142.454ZM144.454 171.921H138.424V175.921H144.454V171.921ZM140.424 173.921V172.715H136.424V173.921H140.424Z" fill="#B8BEC3" mask="url(#path-7-inside-4)"/>
        <mask id="path-9-inside-5" fill="white">
            <path fill-rule="evenodd" clip-rule="evenodd" d="M137.403 169.658H145.844V170.864H137.403V169.658Z"/>
        </mask>
        <path d="M137.403 169.658V167.658H135.403V169.658H137.403ZM145.844 169.658H147.844V167.658H145.844V169.658ZM145.844 170.864V172.864H147.844V170.864H145.844ZM137.403 170.864H135.403V172.864H137.403V170.864ZM137.403 171.658H145.844V167.658H137.403V171.658ZM143.844 169.658V170.864H147.844V169.658H143.844ZM145.844 168.864H137.403V172.864H145.844V168.864ZM139.403 170.864V169.658H135.403V170.864H139.403Z" fill="#B8BEC3" mask="url(#path-9-inside-5)"/>
        <mask id="path-11-inside-6" fill="white">
            <path fill-rule="evenodd" clip-rule="evenodd" d="M135.36 166.602H146.816V167.807H135.36V166.602Z"/>
        </mask>
        <path d="M135.36 166.602V164.602H133.36V166.602H135.36ZM146.816 166.602H148.816V164.602H146.816V166.602ZM146.816 167.807V169.807H148.816V167.807H146.816ZM135.36 167.807H133.36V169.807H135.36V167.807ZM135.36 168.602H146.816V164.602H135.36V168.602ZM144.816 166.602V167.807H148.816V166.602H144.816ZM146.816 165.807H135.36V169.807H146.816V165.807ZM137.36 167.807V166.602H133.36V167.807H137.36Z" fill="#B8BEC3" mask="url(#path-11-inside-6)"/>
        <mask id="path-13-inside-7" fill="white">
            <path fill-rule="evenodd" clip-rule="evenodd" d="M133.827 163.545H148.902V164.75H133.827V163.545Z"/>
        </mask>
        <path d="M133.827 163.545V161.545H131.827V163.545H133.827ZM148.902 163.545H150.902V161.545H148.902V163.545ZM148.902 164.75V166.75H150.902V164.75H148.902ZM133.827 164.75H131.827V166.75H133.827V164.75ZM133.827 165.545H148.902V161.545H133.827V165.545ZM146.902 163.545V164.75H150.902V163.545H146.902ZM148.902 162.75H133.827V166.75H148.902V162.75ZM135.827 164.75V163.545H131.827V164.75H135.827Z" fill="#B8BEC3" mask="url(#path-13-inside-7)"/>
        <mask id="path-15-inside-8" fill="white">
            <path fill-rule="evenodd" clip-rule="evenodd" d="M131.784 160.488H151.079V161.694H131.784V160.488Z"/>
        </mask>
        <path d="M131.784 160.488V158.488H129.784V160.488H131.784ZM151.079 160.488H153.079V158.488H151.079V160.488ZM151.079 161.694V163.694H153.079V161.694H151.079ZM131.784 161.694H129.784V163.694H131.784V161.694ZM131.784 162.488H151.079V158.488H131.784V162.488ZM149.079 160.488V161.694H153.079V160.488H149.079ZM151.079 159.694H131.784V163.694H151.079V159.694ZM133.784 161.694V160.488H129.784V161.694H133.784Z" fill="#B8BEC3" mask="url(#path-15-inside-8)"/>
        <mask id="path-17-inside-9" fill="white">
            <path fill-rule="evenodd" clip-rule="evenodd" d="M129.23 157.431H153.349V158.637H129.23V157.431Z"/>
        </mask>
        <path d="M129.23 157.431V155.431H127.23V157.431H129.23ZM153.349 157.431H155.349V155.431H153.349V157.431ZM153.349 158.637V160.637H155.349V158.637H153.349ZM129.23 158.637H127.23V160.637H129.23V158.637ZM129.23 159.431H153.349V155.431H129.23V159.431ZM151.349 157.431V158.637H155.349V157.431H151.349ZM153.349 156.637H129.23V160.637H153.349V156.637ZM131.23 158.637V157.431H127.23V158.637H131.23Z" fill="#B8BEC3" mask="url(#path-17-inside-9)"/>
        <mask id="path-19-inside-10" fill="white">
            <path fill-rule="evenodd" clip-rule="evenodd" d="M126.165 154.374H156.314V155.58H126.165V154.374Z"/>
        </mask>
        <path d="M126.165 154.374V152.374H124.165V154.374H126.165ZM156.314 154.374H158.314V152.374H156.314V154.374ZM156.314 155.58V157.58H158.314V155.58H156.314ZM126.165 155.58H124.165V157.58H126.165V155.58ZM126.165 156.374H156.314V152.374H126.165V156.374ZM154.314 154.374V155.58H158.314V154.374H154.314ZM156.314 153.58H126.165V157.58H156.314V153.58ZM128.165 155.58V154.374H124.165V155.58H128.165Z" fill="#B8BEC3" mask="url(#path-19-inside-10)"/>
        <mask id="path-21-inside-11" fill="white">
            <path fill-rule="evenodd" clip-rule="evenodd" d="M122.59 151.317H159.371V152.523H122.59V151.317Z"/>
        </mask>
        <path d="M122.59 151.317V149.317H120.59V151.317H122.59ZM159.371 151.317H161.371V149.317H159.371V151.317ZM159.371 152.523V154.523H161.371V152.523H159.371ZM122.59 152.523H120.59V154.523H122.59V152.523ZM122.59 153.317H159.371V149.317H122.59V153.317ZM157.371 151.317V152.523H161.371V151.317H157.371ZM159.371 150.523H122.59V154.523H159.371V150.523ZM124.59 152.523V151.317H120.59V152.523H124.59Z" fill="#B8BEC3" mask="url(#path-21-inside-11)"/>
        <mask id="path-23-inside-12" fill="white">
            <path fill-rule="evenodd" clip-rule="evenodd" d="M118.504 148.098H164.329V149.304H118.504V148.098Z"/>
        </mask>
        <path d="M118.504 148.098V146.098H116.504V148.098H118.504ZM164.329 148.098H166.329V146.098H164.329V148.098ZM164.329 149.304V151.304H166.329V149.304H164.329ZM118.504 149.304H116.504V151.304H118.504V149.304ZM118.504 150.098H164.329V146.098H118.504V150.098ZM162.329 148.098V149.304H166.329V148.098H162.329ZM164.329 147.304H118.504V151.304H164.329V147.304ZM120.504 149.304V148.098H116.504V149.304H120.504Z" fill="#B8BEC3" mask="url(#path-23-inside-12)"/>
        <path d="M231.539 93.7453C231.539 143.31 191.352 183.491 141.777 183.491C92.2016 183.491 52.0144 143.31 52.0144 93.7453C52.0144 44.181 92.2016 4 141.777 4C191.352 4 231.539 44.181 231.539 93.7453Z" stroke="#B8BEC3" stroke-width="8"/>
        <path d="M177.665 93.5143C177.665 113.385 161.554 129.495 141.678 129.495C121.802 129.495 105.691 113.385 105.691 93.5143C105.691 73.6432 121.802 57.5339 141.678 57.5339C161.554 57.5339 177.665 73.6432 177.665 93.5143Z" stroke="#B8BEC3" stroke-width="4"/>
        <path d="M153.336 94.0418C153.336 100.156 148.378 105.113 142.261 105.113C136.145 105.113 131.187 100.156 131.187 94.0418C131.187 87.9278 136.145 82.9702 142.261 82.9702C148.378 82.9702 153.336 87.9278 153.336 94.0418Z" stroke="#B8BEC3" stroke-width="8"/>
        <path d="M81.2158 33.626L111.967 64.372" stroke="#B8BEC3" stroke-width="4" stroke-linecap="square"/>
        <path d="M79.7756 42.7966V144.078" stroke="#B8BEC3" stroke-width="4" stroke-dasharray="8 8"/>
        <path d="M21.3166 47.8916V138.924" stroke="#B8BEC3" stroke-width="4"/>
        <path d="M203.387 42.7966V144.078" stroke="#B8BEC3" stroke-width="4" stroke-dasharray="8 8"/>
        <path d="M262.776 47.8916V138.924" stroke="#B8BEC3" stroke-width="4"/>
        <path d="M202.888 33.626L172.137 64.372" stroke="#B8BEC3" stroke-width="4" stroke-linecap="square"/>
        <path d="M81.2158 155.06L111.967 124.314" stroke="#B8BEC3" stroke-width="4" stroke-linecap="square"/>
        <path d="M202.888 155.06L172.137 124.314" stroke="#B8BEC3" stroke-width="4" stroke-linecap="square"/>
        <path d="M38.811 166.095C38.811 175.705 31.019 183.497 21.4055 183.497C11.792 183.497 4 175.705 4 166.095C4 156.486 11.792 148.694 21.4055 148.694C31.019 148.694 38.811 156.486 38.811 166.095Z" stroke="#B8BEC3" stroke-width="8"/>
        <path d="M9.23743 166.151V164.151H7.23743V166.151H9.23743ZM21.488 178.4V180.4H23.488V178.4H21.488ZM13.2374 166.151H15.2374V164.151H13.2374V166.151ZM21.488 174.4H23.488V172.4H21.488V174.4ZM33.7385 166.151V168.151H35.7385V166.151H33.7385ZM21.488 153.902V151.902H19.488V153.902H21.488ZM29.7385 166.151H27.7385V168.151H29.7385V166.151ZM21.488 157.902H19.488V159.902H21.488V157.902ZM7.23743 166.151C7.23743 174.021 13.6183 180.4 21.488 180.4V176.4C15.8267 176.4 11.2374 171.811 11.2374 166.151H7.23743ZM13.2374 164.151H9.23743V168.151H13.2374V164.151ZM21.488 172.4C18.0352 172.4 15.2374 169.601 15.2374 166.151H11.2374C11.2374 171.811 15.8267 176.4 21.488 176.4V172.4ZM23.488 178.4V174.4H19.488V178.4H23.488ZM35.7385 166.151C35.7385 158.281 29.3576 151.902 21.488 151.902V155.902C27.1492 155.902 31.7385 160.491 31.7385 166.151H35.7385ZM29.7385 168.151H33.7385V164.151H29.7385V168.151ZM21.488 159.902C24.9407 159.902 27.7385 162.701 27.7385 166.151H31.7385C31.7385 160.491 27.1492 155.902 21.488 155.902V159.902ZM19.488 153.902V157.902H23.488V153.902H19.488Z" fill="#B8BEC3"/>
        <path d="M279.905 166.095C279.905 175.705 272.113 183.497 262.499 183.497C252.886 183.497 245.094 175.705 245.094 166.095C245.094 156.486 252.886 148.694 262.499 148.694C272.113 148.694 279.905 156.486 279.905 166.095Z" stroke="#B8BEC3" stroke-width="8"/>
        <path d="M262.071 178.4H260.071V180.4H262.071V178.4ZM274.321 166.151H276.321V164.151H274.321V166.151ZM262.071 174.4V172.4H260.071V174.4H262.071ZM270.321 166.151V164.151H268.321V166.151H270.321ZM262.071 153.902H264.071V151.902H262.071V153.902ZM249.82 166.151H247.82V168.151H249.82V166.151ZM262.071 157.902V159.902H264.071V157.902H262.071ZM253.82 166.151V168.151H255.82V166.151H253.82ZM262.071 180.4C269.94 180.4 276.321 174.021 276.321 166.151H272.321C272.321 171.811 267.732 176.4 262.071 176.4V180.4ZM260.071 174.4V178.4H264.071V174.4H260.071ZM268.321 166.151C268.321 169.601 265.523 172.4 262.071 172.4V176.4C267.732 176.4 272.321 171.811 272.321 166.151H268.321ZM274.321 164.151H270.321V168.151H274.321V164.151ZM262.071 151.902C254.201 151.902 247.82 158.281 247.82 166.151H251.82C251.82 160.491 256.409 155.902 262.071 155.902V151.902ZM264.071 157.902V153.902H260.071V157.902H264.071ZM255.82 166.151C255.82 162.701 258.618 159.902 262.071 159.902V155.902C256.409 155.902 251.82 160.491 251.82 166.151H255.82ZM249.82 168.151H253.82V164.151H249.82V168.151Z" fill="#B8BEC3"/>
        <path d="M38.811 21.4016C38.811 31.0116 31.019 38.8033 21.4055 38.8033C11.792 38.8033 4 31.0116 4 21.4016C4 11.7917 11.792 4 21.4055 4C31.019 4 38.811 11.7917 38.811 21.4016Z" stroke="#B8BEC3" stroke-width="8"/>
        <path d="M21.488 34.2156H19.488V36.2156H21.488V34.2156ZM33.7385 21.9669H35.7385V19.9669H33.7385V21.9669ZM21.488 30.2156V28.2156H19.488V30.2156H21.488ZM29.7385 21.9669V19.9669H27.7385V21.9669H29.7385ZM21.488 9.71826H23.488V7.71826H21.488V9.71826ZM9.23743 21.9669H7.23743V23.9669H9.23743V21.9669ZM21.488 13.7183V15.7183H23.488V13.7183H21.488ZM13.2374 21.9669V23.9669H15.2374V21.9669H13.2374ZM21.488 36.2156C29.3576 36.2156 35.7385 29.837 35.7385 21.9669H31.7385C31.7385 27.6271 27.1492 32.2156 21.488 32.2156V36.2156ZM19.488 30.2156V34.2156H23.488V30.2156H19.488ZM27.7385 21.9669C27.7385 25.4173 24.9407 28.2156 21.488 28.2156V32.2156C27.1492 32.2156 31.7385 27.6271 31.7385 21.9669H27.7385ZM33.7385 19.9669H29.7385V23.9669H33.7385V19.9669ZM21.488 7.71826C13.6183 7.71826 7.23743 14.0969 7.23743 21.9669H11.2374C11.2374 16.3068 15.8267 11.7183 21.488 11.7183V7.71826ZM23.488 13.7183V9.71826H19.488V13.7183H23.488ZM15.2374 21.9669C15.2374 18.5165 18.0352 15.7183 21.488 15.7183V11.7183C15.8267 11.7183 11.2374 16.3068 11.2374 21.9669H15.2374ZM9.23743 23.9669H13.2374V19.9669H9.23743V23.9669Z" fill="#B8BEC3"/>
        <path d="M279.905 21.4016C279.905 31.0116 272.113 38.8033 262.499 38.8033C252.886 38.8033 245.094 31.0116 245.094 21.4016C245.094 11.7917 252.886 4 262.499 4C272.113 4 279.905 11.7917 279.905 21.4016Z" stroke="#B8BEC3" stroke-width="8"/>
        <path d="M274.321 21.9669V23.9669H276.321V21.9669H274.321ZM262.071 9.71826V7.71826H260.071V9.71826H262.071ZM270.321 21.9669H268.321V23.9669H270.321V21.9669ZM262.071 13.7183H260.071V15.7183H262.071V13.7183ZM249.82 21.9669V19.9669H247.82V21.9669H249.82ZM262.071 34.2156V36.2156H264.071V34.2156H262.071ZM253.82 21.9669H255.82V19.9669H253.82V21.9669ZM262.071 30.2156H264.071V28.2156H262.071V30.2156ZM276.321 21.9669C276.321 14.0969 269.94 7.71826 262.071 7.71826V11.7183C267.732 11.7183 272.321 16.3068 272.321 21.9669H276.321ZM270.321 23.9669H274.321V19.9669H270.321V23.9669ZM262.071 15.7183C265.523 15.7183 268.321 18.5166 268.321 21.9669H272.321C272.321 16.3068 267.732 11.7183 262.071 11.7183V15.7183ZM260.071 9.71826V13.7183H264.071V9.71826H260.071ZM247.82 21.9669C247.82 29.837 254.201 36.2156 262.071 36.2156V32.2156C256.409 32.2156 251.82 27.6271 251.82 21.9669H247.82ZM253.82 19.9669H249.82V23.9669H253.82V19.9669ZM262.071 28.2156C258.618 28.2156 255.82 25.4173 255.82 21.9669H251.82C251.82 27.6271 256.409 32.2156 262.071 32.2156V28.2156ZM264.071 34.2156V30.2156H260.071V34.2156H264.071Z" fill="#B8BEC3"/>
    </g>
</svg>
