<svg xmlns="http://www.w3.org/2000/svg" width="16" height="16" viewBox="0 0 16 16" fill="none">
    <path fill-rule="evenodd" clip-rule="evenodd" d="M12.0017 11.249C12.0007 11.2328 12.0001 11.2165 12.0001 11.2L12.0001 4.89996C12.0001 4.48575 12.3359 4.14996 12.7501 4.14996C13.1643 4.14996 13.5001 4.48575 13.5001 4.89996L13.5001 10.55H15.25C15.6642 10.55 16 10.8858 16 11.3C16 11.7142 15.6642 12.05 15.25 12.05H12.75C12.3358 12.05 12 11.7142 12 11.3C12 11.2829 12.0006 11.2659 12.0017 11.249Z" fill="#3B6080"/>
    <path fill-rule="evenodd" clip-rule="evenodd" d="M0 6.4C0 5.07452 0.967065 4 2.16 4H4.08C4.47765 4 4.8 4.35817 4.8 4.8C4.8 5.24183 4.47765 5.6 4.08 5.6H2.16C1.76236 5.6 1.44 5.95817 1.44 6.4C1.44 6.84183 1.76236 7.2 2.16 7.2H2.64C3.83294 7.2 4.8 8.27452 4.8 9.6C4.8 10.9255 3.83294 12 2.64 12H0.72C0.322355 12 0 11.6418 0 11.2C0 10.7582 0.322355 10.4 0.72 10.4H2.64C3.03765 10.4 3.36 10.0418 3.36 9.6C3.36 9.15817 3.03765 8.8 2.64 8.8H2.16C0.967065 8.8 0 7.72548 0 6.4Z" fill="#3B6080"/>
    <path fill-rule="evenodd" clip-rule="evenodd" d="M7.80005 5.5H8.60005C9.15233 5.5 9.60005 5.94771 9.60005 6.5V9.5C9.60005 9.55446 9.5957 9.6079 9.58732 9.66L9.11239 9.15227C8.82943 8.84977 8.37067 8.84977 8.08771 9.15227C7.80475 9.45477 7.80475 9.94523 8.08771 10.2477L8.32368 10.5H7.80005C7.24776 10.5 6.80005 10.0523 6.80005 9.5V6.5C6.80005 5.94772 7.24776 5.5 7.80005 5.5ZM9.55148 11.8126C9.2582 11.9334 8.9369 12 8.60005 12H7.80005C6.41934 12 5.30005 10.8807 5.30005 9.5V6.5C5.30005 5.11929 6.41934 4 7.80005 4H8.60005C9.98076 4 11.1 5.11929 11.1 6.5V9.5C11.1 9.99838 10.9542 10.4627 10.7029 10.8526L11.0022 11.1726C11.2851 11.4751 11.2851 11.9655 11.0022 12.268C10.7192 12.5705 10.2605 12.5705 9.9775 12.268L9.55148 11.8126Z" fill="#3B6080"/>
</svg>