<svg width="16" height="16" viewBox="0 0 16 16" fill="currentColor"
    xmlns="http://www.w3.org/2000/svg">
    <g>
        <path fill-rule="evenodd" clip-rule="evenodd"
            d="M7.89329 13.8761L4.28522 11.1636C3.975 10.9304 3.72333 10.6281 3.55016 10.2808L3.50043 10.1811C3.32725 9.83373 3.23732 9.45084 3.23776 9.06273L3.24289 4.5488C3.24311 4.35088 3.35514 4.17007 3.53227 4.08175C3.7094 3.99344 3.92123 4.01278 4.07943 4.13172L7.6875 6.84417C7.99772 7.07739 8.24939 7.37964 8.42256 7.72697L8.4723 7.82672C8.64547 8.17406 8.7354 8.55694 8.73496 8.94505L8.72983 13.459C8.72961 13.6569 8.61758 13.8377 8.44045 13.926C8.26332 14.0143 8.0515 13.995 7.89329 13.8761ZM9.10975 15.2684C8.42415 15.6103 7.60427 15.5354 6.99193 15.075L3.38386 12.3626C2.8875 11.9894 2.48484 11.5058 2.20776 10.9501L2.15802 10.8504C1.88094 10.2946 1.73706 9.68201 1.73776 9.06103L1.74289 4.5471C1.74376 3.78101 2.17738 3.08117 2.86298 2.73935C3.54857 2.39753 4.36845 2.47239 4.98079 2.93274L5.76889 3.52521L5.77001 2.53925C5.77088 1.77317 6.2045 1.07333 6.8901 0.731502C7.57569 0.389677 8.39557 0.464544 9.00791 0.92489L12.616 3.63735C13.1123 4.0105 13.515 4.49409 13.7921 5.04983L13.8418 5.14957C14.1189 5.70531 14.2628 6.31793 14.2621 6.93891L14.257 11.4528C14.2561 12.2189 13.8225 12.9188 13.1369 13.2606C12.4513 13.6024 11.6314 13.5275 11.0191 13.0672L10.231 12.4747L10.2298 13.4607C10.229 14.2268 9.79534 14.9266 9.10975 15.2684ZM10.2331 10.5997L11.9204 11.8682C12.0786 11.9872 12.2904 12.0065 12.4676 11.9182C12.6447 11.8299 12.7567 11.6491 12.757 11.4511L12.7621 6.9372C12.7625 6.54909 12.6726 6.16621 12.4994 5.81887L12.4497 5.71913C12.2765 5.37179 12.0248 5.06954 11.7146 4.83633L8.10655 2.12387C7.94835 2.00493 7.73652 1.98559 7.55939 2.0739C7.38226 2.16222 7.27023 2.34303 7.27001 2.54095L7.26761 4.65191L8.58886 5.6452C9.08522 6.01835 9.48789 6.50194 9.76497 7.05768L9.8147 7.15742C10.0918 7.71316 10.2357 8.32578 10.235 8.94676L10.2331 10.5997Z"
        />
    </g>
</svg>
    