<svg width="16" height="16" viewBox="0 0 16 16" fill="currentColor"
    xmlns="http://www.w3.org/2000/svg">
    <path fill-rule="evenodd" clip-rule="evenodd" d="M12 3.5H4C3.17157 3.5 2.5 4.17157 2.5 5V5.5L13.5 5.5V5C13.5 4.17157 12.8284 3.5 12 3.5ZM2.5 11V7H7.25L7.25 12.5H4C3.17157 12.5 2.5 11.8284 2.5 11ZM8.75 12.5H12C12.8284 12.5 13.5 11.8284 13.5 11V7H8.75L8.75 12.5ZM4 2C2.34315 2 1 3.34315 1 5V11C1 12.6569 2.34315 14 4 14H12C13.6569 14 15 12.6569 15 11V5C15 3.34315 13.6569 2 12 2H4Z" />
</svg>
