<svg width="16" height="16" viewBox="0 0 16 16" fill="currentColor"
    xmlns="http://www.w3.org/2000/svg">
    <path fill-rule="evenodd" clip-rule="evenodd"
        d="M9.5 2.5C10.3284 2.5 11 3.17157 11 4V6.5H12.5V4C12.5 2.34315 11.1569 1 9.5 1H4.5C2.84315 1 1.5 2.34315 1.5 4V12C1.5 13.6569 2.84315 15 4.5 15H7V13.5H4.5C3.67157 13.5 3 12.8284 3 12L3 4C3 3.17157 3.67157 2.5 4.5 2.5L9.5 2.5ZM7 10.75V12.25H5.50006C5.08584 12.25 4.75006 11.9142 4.75006 11.5C4.75006 11.0858 5.08584 10.75 5.50006 10.75H7ZM10 6.5C10 4.84315 8.65685 3.5 7 3.5C5.34315 3.5 4 4.84315 4 6.5C4 8.15685 5.34315 9.5 7 9.5V8C6.17157 8 5.5 7.32843 5.5 6.5C5.5 5.67157 6.17157 5 7 5C7.82843 5 8.5 5.67157 8.5 6.5H10Z" />
    <path fill-rule="evenodd" clip-rule="evenodd"
        d="M13.0283 10.377V10.5998H11.4717V10.377C11.4717 9.92571 11.8202 9.55989 12.25 9.55989C12.6798 9.55989 13.0283 9.92571 13.0283 10.377ZM9.98585 10.377C9.98585 9.06421 10.9995 8 12.25 8C13.5005 8 14.5142 9.06421 14.5142 10.377V10.6518C15.3348 10.6518 16 11.3502 16 12.2117V14.4401C16 15.3016 15.3348 16 14.5142 16H9.98585C9.16524 16 8.5 15.3016 8.5 14.4401V12.2117C8.5 11.3502 9.16524 10.6518 9.98585 10.6518V10.377ZM9.98585 12.2117H14.5142V14.4401H9.98585V12.2117Z" />
</svg>
    