<svg xmlns="http://www.w3.org/2000/svg" width="14" height="14" viewBox="0 0 14 14">
<path d="M1.21094 1.36133C1.00781 1.1582 0.703125 1.31055 0.703125 1.56445V5.19531C0.703125 5.37305 0.830078 5.5 1.00781 5.5H4.63867C4.89258 5.5 5.04492 5.19531 4.8418 4.99219L3.4707 3.62109C4.35938 2.70703 5.60352 2.14844 7 2.14844C9.74219 2.14844 11.9766 4.38281 11.9766 7.125C11.9766 9.89258 9.74219 12.1016 7 12.1016C5.70508 12.1016 4.5625 11.6445 3.67383 10.8574C3.54688 10.7559 3.36914 10.7559 3.26758 10.8574L2.75977 11.3652C2.63281 11.4922 2.63281 11.6953 2.75977 11.8223C3.87695 12.8125 5.375 13.4219 7 13.4219C10.4531 13.4219 13.2715 10.6289 13.2969 7.15039C13.2969 3.67188 10.4531 0.828125 6.97461 0.828125C5.24805 0.828125 3.67383 1.53906 2.53125 2.68164L1.21094 1.36133Z" fill="black" fill-opacity="0.3"/>
</svg>