<svg viewBox="0 0 16 16" fill="currentColor" xmlns="http://www.w3.org/2000/svg">
    <path fill-rule="evenodd" clip-rule="evenodd" d="M1.5 3.5a1 1 0 011-1h1.96a1 1 0 011 1v9a1 1 0 01-1 1H2.5a1 1 0 01-1-1v-9zm12-1a1 1 0 011 1v2.05a1 1 0 01-1 1H7.59a1 1 0 01-1-1V3.5a1 1 0 011-1h5.91zm0 5.33c.2-.2.56-.14.68.11.21.42.34.87.32 1.38 0 1.6-1.3 2.87-2.85 2.87h-2.8v.87c0 .4-.47.58-.72.31l-1.41-1.45a.4.4 0 010-.6l1.41-1.45c.27-.3.73-.1.73.29v.87h2.8c.93 0 1.7-.76 1.7-1.7.02-.3-.05-.55-.15-.79a.46.46 0 01.09-.49l.08-.09a1 1 0 00.13-.13z"/>
</svg>
