<svg width="14" height="14" viewBox="0 0 14 14" fill="none" xmlns="http://www.w3.org/2000/svg">
    <path d="M11.4148 7.36681C12.437 6.44978 13 5.61135 13 4.41921C13 3.15395 12.2498 2.04096 10.8389 1.22886C10.5993 1.09092 10.2977 1.18122 10.1546 1.41777C9.98931 1.69078 10.1011 2.0442 10.3718 2.21318C11.2446 2.75799 11.8 3.53572 11.8 4.40611C11.8 5.34934 11.3407 5.92576 10.5852 6.63319C9.54815 7.55022 9 8.38865 9 9.58079C9 10.846 9.75024 11.959 11.1611 12.7711C11.4007 12.9091 11.7023 12.8188 11.8454 12.5822C12.0107 12.3092 11.8989 11.9558 11.6282 11.7868C10.7554 11.242 10.2 10.4643 10.2 9.59389C10.2 8.63755 10.6593 8.07424 11.4148 7.36681Z" fill="#F9A525" stroke="#F9A525" strokeWidth="0.6"/>
    <path d="M7.41481 7.36681C8.43704 6.44978 9 5.61135 9 4.41921C9 3.15395 8.24976 2.04096 6.83892 1.22886C6.59928 1.09092 6.29772 1.18122 6.15455 1.41777C5.98931 1.69078 6.10113 2.0442 6.37185 2.21318C7.24464 2.75799 7.8 3.53572 7.8 4.40611C7.8 5.34934 7.34074 5.92576 6.58519 6.63319C5.54815 7.55022 5 8.38865 5 9.58079C5 10.846 5.75024 11.959 7.16108 12.7711C7.40072 12.9091 7.70228 12.8188 7.84545 12.5822C8.01069 12.3092 7.89887 11.9558 7.62815 11.7868C6.75536 11.242 6.2 10.4643 6.2 9.59389C6.2 8.63755 6.65926 8.07424 7.41481 7.36681Z" fill="#F9A525" stroke="#F9A525" strokeWidth="0.6"/>
    <path d="M3.41481 7.36681C4.43704 6.44978 5 5.61135 5 4.41921C5 3.15395 4.24976 2.04096 2.83892 1.22886C2.59928 1.09092 2.29772 1.18122 2.15455 1.41777C1.98931 1.69078 2.10113 2.0442 2.37185 2.21318C3.24464 2.75799 3.8 3.53572 3.8 4.40611C3.8 5.34934 3.34074 5.92576 2.58519 6.63319C1.54815 7.55022 1 8.38865 1 9.58079C1 10.846 1.75024 11.959 3.16108 12.7711C3.40072 12.9091 3.70228 12.8188 3.84545 12.5822C4.01069 12.3092 3.89887 11.9558 3.62815 11.7868C2.75536 11.242 2.2 10.4643 2.2 9.59389C2.2 8.63755 2.65926 8.07424 3.41481 7.36681Z" fill="#F9A525" stroke="#F9A525" strokeWidth="0.6"/>
</svg>
